<svg width="283" height="127" fill="none" xmlns="http://www.w3.org/2000/svg"><path d="M272.277 5.752H10.465C4.91 5.752.395 10.27.395 15.832V97.16c0 5.561 4.515 10.079 10.07 10.079H29.91c1.736 8.341 3.473 19.116 3.473 19.116l17.708-19.116h221.186c5.556 0 10.07-4.518 10.07-10.08V15.832c.347-5.56-4.167-10.079-10.07-10.079z" fill="#C4C4C4"/><path d="M16.454 23.224c.32-.762.614-1.577.882-2.448.213-.816.347-1.631.4-2.447 0-.762-.133-1.469-.4-2.121-.267-.599-.749-1.088-1.443-1.469a11.663 11.663 0 01-3.528-2.937c-1.016-1.142-1.523-2.556-1.523-4.242a7.78 7.78 0 01.56-2.937 7.437 7.437 0 011.604-2.448 7.017 7.017 0 012.325-1.55 7.393 7.393 0 012.887-.57c2.03 0 3.741.733 5.13 2.202 1.39 1.468 2.139 3.236 2.246 5.303.16 2.175-.107 4.188-.802 6.037-.748 1.904-1.604 3.563-2.566 4.977-1.015 1.414-2.004 2.556-2.966 3.426-.962.925-1.63 1.523-2.005 1.795a3.9 3.9 0 01-.4-.245l-.24-.245c-.054-.054-.108-.081-.161-.081zm18.44 0c.32-.762.614-1.577.882-2.448a12.98 12.98 0 00.4-2.447c0-.762-.133-1.469-.4-2.121-.268-.599-.749-1.088-1.444-1.469a11.664 11.664 0 01-3.527-2.937c-1.016-1.142-1.523-2.556-1.523-4.242a7.78 7.78 0 01.56-2.937 7.436 7.436 0 011.604-2.448 7.018 7.018 0 012.325-1.55 7.393 7.393 0 012.886-.57c2.032 0 3.742.733 5.132 2.202 1.39 1.468 2.138 3.236 2.244 5.303.16 2.175-.106 4.188-.801 6.037-.748 1.904-1.604 3.563-2.566 4.977C39.651 19.988 38.662 21.13 37.7 22c-.962.925-1.63 1.523-2.005 1.795a3.9 3.9 0 01-.4-.245l-.24-.245c-.054-.054-.108-.081-.161-.081z" fill="#0E2EB6"/></svg>