<svg width="429" height="517" fill="none" xmlns="http://www.w3.org/2000/svg"><path d="M214.307 517C95.948 517 0 425.388 0 312.379c0-113.008 95.948-204.62 214.307-204.62 118.358 0 214.307 91.612 214.307 204.62C428.614 425.388 332.665 517 214.307 517z" fill="#E0E0E0"/><path d="M237.917 11.576c22.166 1.286 30.84 24.116 33.41 29.261 2.57 5.145 2.891 10.933 3.533 16.72.643 5.789 1.285 11.577 4.177 16.722 4.818 7.717 15.098 11.897 17.99 20.579 3.212 9.968-4.819 20.258-2.892 30.547 1.285 5.467 5.14 9.969 6.425 15.435 1.607 5.466 0 11.576-2.891 16.721-7.389 12.54-22.166 18.65-36.622 19.293-14.457.643-28.592-3.859-42.084-8.039M140.579 40.194c2.248 4.823 0 10.29-3.213 14.148-3.534 3.859-8.031 6.431-11.886 9.647-3.855 3.215-7.71 7.396-8.031 12.54-.322 4.824 1.927 9.326 1.285 14.149-1.607 11.897-20.882 15.756-21.845 27.653-.643 8.039 7.71 15.435 5.14 23.152-.964 2.894-3.213 5.145-4.82 8.039-5.46 9.003-1.605 21.544 6.105 28.618 8.031 7.074 18.953 9.647 29.233 9.968 8.995.322 18.954-.965 24.094-8.36 4.819-6.431 3.855-15.435 2.891-23.474-4.497-37.621-3.855-75.886-2.891-113.83" fill="#263238"/><path d="M232.134 214.797c-.321-19.936 0-40.516 0-40.516s25.379-4.501 30.197-37.943c4.819-31.833-3.212-100.324-3.212-100.324-36.944-14.47-78.385-9.004-104.085 20.9l3.855 160.777c.321 18.65 17.026 33.12 36.944 32.477 20.239-.643 36.301-16.721 36.301-35.371z" fill="#FFBE9D"/><path d="M252.051 88.427c0 2.25-1.606 4.18-4.176 4.502-2.249 0-4.176-1.608-4.497-3.859 0-2.25 1.606-4.18 4.176-4.502 2.57 0 4.497 1.608 4.497 3.859z" fill="#263238"/><path d="M259.119 85.211c-.643.643-3.855-1.929-8.353-1.607-8.673 1.286-8.352 2.572-8.352 1.929-.321-.322.321-1.286 1.606-2.251 1.285-.965 3.855-2.25 6.746-2.25 2.892 0 5.14.964 6.747 1.928 1.285.965 1.927 1.93 1.606 2.251zm-53.97 4.824c0 2.25-1.606 4.18-4.176 4.501-2.249 0-4.176-1.607-4.498-3.858 0-2.251 1.607-4.18 4.177-4.502 2.57-.322 4.497 1.608 4.497 3.859z" fill="#263238"/><path d="M211.253 86.82c-.643.642-3.855-1.93-8.353-1.609-4.497 0-8.031 2.251-8.352 1.93-.321-.322.321-1.287 1.606-2.251 1.285-.965 3.855-2.251 6.746-2.251 2.892 0 5.14.965 6.747 1.93 1.285.964 1.927 1.929 1.606 2.25zm17.026 33.119c0-.322 2.891-.643 7.389-1.286 1.285 0 2.248-.322 2.57-1.286.321-.965-.322-2.251-.964-3.538-1.285-2.894-2.249-5.787-3.534-9.003-4.819-12.54-8.674-23.152-8.031-23.152.642-.321 4.819 9.968 9.959 22.509 1.285 3.215 2.248 6.109 3.533 9.003.322 1.287 1.285 2.894.643 4.502-.321.965-1.285 1.608-1.928 1.608-.642.321-1.285.321-1.927.321-4.819.322-7.71.322-7.71.322z" fill="#263238"/><path d="M232.135 173.96s-22.488 1.608-44.654-11.254c0 0 10.922 22.83 44.332 19.293l.322-8.039zm-5.783-43.088c-1.606-2.251-4.498-3.216-7.389-2.894-1.927.321-3.855 1.286-5.14 2.894-1.285 1.607-1.285 3.858-.321 5.466 1.285 1.608 3.855 2.251 6.104 1.608 2.248-.643 4.176-2.251 5.782-3.537.642-.322.964-.965 1.285-1.286.321-.965.321-1.608-.321-2.251z" fill="#EB996E"/><path d="M214.787 123.155c.642 0 .964 4.823 5.14 8.36 4.176 3.537 9.637 2.894 9.637 3.537 0 .322-1.285.965-3.534.965-2.248 0-5.461-.643-8.031-2.573-2.57-2.251-3.855-5.145-3.855-7.074-.321-1.929.322-3.215.643-3.215zM169.491 33.12c12.207 17.364 44.332 35.37 67.462 39.23-2.57-3.538-16.705-12.22-19.596-15.757 10.601 7.718 25.379 18.329 39.192 18.972 1.607 0 3.534 0 4.819-.643 1.928-.965 2.249-3.216 2.57-5.145.964-8.039.321-22.187-.964-30.226-1.285-8.039-5.14-16.078-11.886-21.544-8.995-6.753-21.524-8.682-33.731-9.004-9.959-.321-20.56.322-29.555 3.86-9.316 3.536-17.026 10.932-18.311 19.292" fill="#263238"/><path d="M134.475 110.936c-1.607-8.682-2.892-16.721-3.213-22.188-.964-17.042 3.855-80.388 62.965-75.564l2.249 18.007s8.995 61.738-29.234 62.06c0 0-2.249 18.328-19.596 36.335.642 0-9.638-.322-13.171-18.65z" fill="#263238"/><path d="M167.563 93.25c-3.534-.643-7.388-.643-10.601.965-3.534 1.286-6.425 3.858-7.71 7.074-1.285 3.216-1.285 7.074 0 10.611 1.285 3.537 3.534 6.431 6.104 9.004 1.927 1.929 3.855 3.537 6.425 4.18 2.57.643 5.461.321 7.388-1.286" fill="#FFBE9D"/><path d="M165.957 115.116c.322 0-.963 2.251-4.497 1.608-1.606-.322-3.213-1.608-4.176-3.538-.964-1.607-1.607-3.537-1.928-5.788-.321-2.25.321-4.501 1.285-6.431 1.285-1.607 2.891-2.894 4.498-2.894 3.212 0 4.497 2.251 4.176 2.251-.321.322-1.606-.964-3.855-.321-2.249.321-4.176 3.215-3.534 7.074.321 3.537 1.928 7.074 3.855 7.717 2.57.965 3.855 0 4.176.322z" fill="#EB996E"/><path d="M161.139 26.689c-4.498 2.572-9.959 3.215-15.099 1.93-5.14-1.287-9.638-4.824-12.208-9.326-1.606-2.894-2.57-6.43-1.927-9.646 1.285-4.502 5.461-7.396 9.959-8.682 6.425-1.608 13.813 0 18.632 4.501 4.819 4.502 7.068 11.898 4.819 18.329-2.249 6.43-8.674 10.933-15.42 10.611m5.782 88.106c3.213 2.25 6.747 4.823 9.317 8.038 2.57 3.216 4.497 7.074 3.854 11.255-.321 2.251-.963 4.501-.642 6.752.321 3.216 2.891 5.467 4.819 8.039 4.176 6.753 2.57 16.399-2.892 22.187-5.461 5.788-13.813 8.682-21.844 9.004-4.819 0-9.638-.643-13.493-3.216-5.461-3.859-7.71-11.254-7.71-18.007" fill="#263238"/><path d="M151.822 39.873c-.321 0 .964 2.572 3.534 6.109s6.425 8.039 11.243 12.54c5.14 4.18 10.28 7.396 14.135 9.326 3.855 1.929 6.425 2.572 6.425 2.572.321-.643-9.637-4.502-19.596-13.184-9.638-8.682-15.42-17.685-15.741-17.363zm-6.103-.322c-.322 0 0 3.215.963 8.039 1.285 4.823 3.534 11.576 7.389 18.328 4.176 6.753 8.674 11.898 12.529 15.113 3.855 3.216 6.425 4.823 6.746 4.823.321-.321-9.959-7.717-17.99-20.9-7.71-12.862-9.316-25.724-9.637-25.403zM273.897 66.24c-.643 0-1.285 5.466-2.891 12.219-1.928 6.43-4.177 11.576-3.856 11.897.322.322 3.534-4.501 5.462-11.254 1.927-7.074 1.927-12.862 1.285-12.862zM132.226 180.069c0-.321-1.607 1.608-4.819 1.608-1.606 0-3.855-.321-5.782-1.929-1.928-1.286-3.534-3.537-4.177-6.431-.642-2.894-.642-6.11 0-9.647.643-3.537 1.928-7.074 3.213-10.933 1.285-3.858 2.249-8.36 1.285-12.862-.643-4.823-3.855-8.682-5.14-12.862-1.606-4.18-.964-9.003.964-12.54 1.927-3.859 5.14-6.753 8.673-8.039 1.928-.643 3.855-1.608 5.462-2.573 1.606-.964 3.533-2.25 4.497-3.858 1.927-3.537 1.927-7.074 1.927-9.968 0-3.216-.321-5.788.322-8.04.642-2.25 1.285-4.18 2.57-5.466 2.248-2.572 4.497-2.572 4.176-2.572h-1.285c-.964.322-2.249.965-3.534 2.25-1.285 1.287-2.248 3.216-2.891 5.789-.642 2.572-.643 5.466-.643 8.36 0 2.894 0 6.431-1.927 9.325-1.927 2.894-5.461 4.18-9.316 5.788-3.855 1.286-7.71 4.502-9.638 8.682-1.927 4.18-2.891 9.325-.963 13.827 1.606 4.502 4.497 8.36 5.14 12.54.642 4.181-.322 8.361-1.285 12.219-1.285 3.859-2.57 7.718-3.213 11.255-.642 3.537-.642 7.074.321 10.289.964 3.216 2.57 5.467 4.819 7.075 2.249 1.286 4.498 1.929 6.104 1.607 1.927 0 3.212-.643 3.855-1.286 1.285-1.286 1.285-1.608 1.285-1.608zm23.451-2.251s-.321.965-1.927 1.608c-1.285.643-4.498.643-6.104-1.608-1.606-2.572-1.606-6.431.643-9.968 1.927-3.537 5.461-7.074 6.424-12.54.643-2.573.001-5.467-1.927-7.396-1.606-1.929-3.534-3.215-4.497-4.823-2.57-3.216-2.57-7.074-2.249-10.29.321-3.215 1.285-5.466 1.927-7.396.643-1.607.964-2.572.643-2.572 0 0-.643.965-1.285 2.572-.643 1.608-1.928 4.181-2.249 7.396-.642 3.216-.642 7.717 2.249 11.254 1.285 1.93 3.212 3.216 4.497 4.824 1.285 1.608 1.928 3.858 1.285 6.109-.642 4.502-4.176 8.039-6.103 12.219-1.928 3.859-2.249 8.682 0 11.576.963 1.608 2.891 2.251 4.176 2.251 1.285 0 2.57 0 3.533-.643.964-1.286.964-2.573.964-2.573zm125.93-8.36l2.57-2.572c1.606-1.93 3.855-4.502 5.461-8.361.964-1.929 1.285-4.501 1.285-7.074 0-2.572-.964-5.466-2.891-7.717-1.928-2.251-4.819-3.537-6.747-5.788-1.927-2.251-1.927-5.145-1.285-8.36.643-2.894 2.249-5.788 3.534-8.361 1.285-2.572 2.57-5.466 3.213-8.36.642-2.894 0-6.11-1.607-8.039-1.606-2.251-3.212-3.537-4.818-5.145-3.213-2.572-5.14-5.466-5.462-7.717-.321-2.25.322-3.537 0-3.537 0 0-.321.321-.642.964-.321.644-.321 1.608-.321 2.894.321 2.573 2.248 5.788 5.461 8.682 1.606 1.608 3.212 2.894 4.497 5.145 1.285 1.93 1.928 4.502 1.285 7.074-.321 2.573-1.606 5.145-3.212 8.039-1.285 2.573-2.891 5.467-3.855 9.004-.643 3.215-.643 7.074 1.606 9.646 2.249 2.573 5.14 3.537 6.746 5.788 1.607 1.93 2.57 4.502 2.57 6.753 0 2.251-.321 4.502-.963 6.431-1.607 3.858-3.534 6.431-5.14 8.36-.643.965-1.607 2.251-1.285 2.251z" fill="#455A64"/><path d="M147.646 30.869c.321.322 2.57-4.823 7.71-8.36 5.14-3.859 10.28-4.824 10.28-5.145 0-.322-5.782-.322-11.244 3.858-5.782 3.86-7.388 9.647-6.746 9.647z" fill="#E8505B"/><path d="M142.827 0c-.321 0-1.285 1.286-2.249 3.537-.963 2.572-1.285 6.11-.321 10.29.964 3.858 3.534 7.074 5.461 8.682 1.928 1.607 3.534 2.25 3.534 1.929 0-.322-1.285-.965-2.891-2.894-1.606-1.93-3.534-4.502-4.819-8.039-.964-3.537-.642-7.074-.321-9.325 1.285-2.572 1.927-4.18 1.606-4.18z" fill="#455A64"/><path opacity=".3" d="M306.022 395.51s-79.67 75.886-127.215 62.059c-47.545-13.827-61.358-49.519-61.358-49.519l-1.285-12.862 4.818-3.216 182.791-14.791 2.249 18.329z" fill="#000"/><path d="M353.245 324.446l-15.42-39.55-55.255 34.727 49.151 75.887s19.918-26.046 21.524-71.064z" fill="#EB996E"/><path d="M290.923 215.44c-25.7-13.505-58.789-17.364-58.789-17.364-9.637 19.294-40.156 21.866-58.467 8.682l-15.42-10.611s-2.249 0-6.425.322c-36.301 3.215-66.177 30.225-73.566 66.239-2.57 12.862-4.819 27.975-3.855 41.802 1.928 34.728 38.229 37.943 38.229 37.943s1.927 34.728 4.176 62.703c1.927 20.901 12.529 36.657 31.804 45.339 14.135 6.431 22.166 9.647 40.477 12.54 46.581 7.396 91.235-10.289 120.79-41.801-5.462-33.442-10.923-76.851-10.28-78.781v-.643l35.98-32.155 20.559-17.042c-.321.321-44.974-66.24-65.213-77.173z" fill="#E8505B"/><path d="M246.269 236.984c0 .322 3.213-2.572 8.995-2.572 2.892 0 6.425.964 9.317 3.215 1.285 1.287 2.57 2.894 4.176 4.502 1.285 1.608 3.212 3.537 5.782 3.859 2.57.643 5.14-.643 6.747-1.93 1.927-1.286 3.533-2.572 5.14-3.537 3.212-1.929 6.746-1.607 9.316-.964 2.57.964 4.497 2.572 5.461 3.858.964 1.286 1.285 2.251 1.606 1.93 0 0 0-.965-.963-2.573-.964-1.286-2.57-3.215-5.462-4.502-2.891-1.286-7.067-1.607-10.601.644-1.927.964-3.534 2.25-5.14 3.215-1.606.965-3.534 1.929-5.461 1.608-1.928-.322-3.534-1.929-4.819-3.216-1.285-1.607-2.57-3.215-4.497-4.501-3.213-2.573-7.068-3.216-10.28-3.216-3.213 0-5.462.965-6.747 1.929-1.927 1.287-2.57 2.251-2.57 2.251zm-36.622 47.912c.321.321 2.249-3.216 7.71-5.145 2.57-.965 6.104-1.287 9.638 0 1.606.643 3.533 1.929 5.14 2.894 1.927.964 4.176 2.251 6.746 1.929 2.57-.322 4.497-2.251 5.782-3.859 1.285-1.607 2.57-3.537 3.855-4.823 2.249-2.894 5.783-3.859 8.674-3.859 2.891 0 5.14.965 6.425 1.93 1.285.964 1.927 1.607 2.249 1.607 0 0-.322-.964-1.607-1.929-1.285-.964-3.533-2.251-6.746-2.572-2.891-.322-7.067.643-9.958 3.858l-3.855 4.824c-1.285 1.607-2.892 2.894-4.819 3.215-1.928.322-3.855-.643-5.783-1.608-1.927-.964-3.533-2.25-5.461-2.894-3.855-1.286-7.71-.964-10.601.322-2.891.965-4.819 2.894-5.783 4.18-1.285.965-1.606 1.93-1.606 1.93zm-81.276-70.099c0 .322 3.534-1.608 9.316-.643 2.892.643 6.104 2.251 8.353 5.145 1.285 1.286 1.927 3.215 3.212 5.145.964 1.929 2.57 3.858 4.819 5.145 2.57.964 5.14.321 7.068-.322 1.927-.643 3.855-1.608 5.782-2.251 3.534-1.286 7.068-.321 9.316 1.286 2.57 1.608 3.855 3.537 4.498 4.824.642 1.286.963 2.25.963 2.25s0-.964-.321-2.572c-.642-1.608-1.927-3.859-4.497-5.466-2.57-1.608-6.425-2.894-10.601-1.608-1.928.643-3.855 1.608-5.783 2.251-1.927.643-3.855.964-5.782.321-1.928-.643-3.213-2.572-4.177-4.18-.963-1.929-1.927-3.858-3.212-5.466-2.57-3.216-6.425-4.824-9.316-5.145-2.892-.643-5.462 0-7.068.321-1.927.322-2.57.644-2.57.965zm37.586 52.735c.321.321 1.606-2.573 5.782-4.181 1.928-.643 4.819-.964 7.389-.321 1.285.321 2.57 1.286 4.176 1.929 1.607.643 3.213 1.608 5.462 1.286 1.927-.321 3.533-1.929 4.497-3.215.964-1.286 1.928-2.894 2.57-3.859 1.606-2.251 4.176-3.215 6.425-3.215 4.498 0 6.425 2.251 6.746 2.251 0 0-.321-.643-1.285-1.608-.963-.643-2.891-1.608-5.461-1.608-2.249 0-5.461.965-7.71 3.537l-2.891 3.859c-.964 1.286-1.928 2.251-3.534 2.572-2.891.643-5.782-2.251-8.674-2.894-3.212-.964-6.103-.321-8.352.643-4.176 1.608-5.461 4.824-5.14 4.824zm82.561 44.374c.322.321 1.607-2.572 5.783-4.18 1.927-.643 4.819-.965 7.389-.322 1.285.322 2.57 1.286 4.176 1.93 1.606.643 3.212 1.607 5.461 1.286 1.927-.322 3.534-1.93 4.497-3.216.964-1.286 1.928-2.894 2.57-3.858 1.607-2.251 4.177-3.216 6.425-3.216 4.498 0 6.425 2.251 6.747 2.251 0 0-.322-.643-1.285-1.608-.964-.643-2.892-1.608-5.462-1.608-2.248 0-5.461.965-7.71 3.537l-2.891 3.859c-.963 1.286-1.927 2.251-3.534 2.573-2.891.643-5.782-2.251-8.673-2.894-3.213-.965-6.104-.322-8.353.643-4.176 1.607-5.14 4.823-5.14 4.823zm-77.1.965c0 .321 2.249-1.93 6.747-1.93 2.248 0 4.818.322 7.067 2.251.964.965 2.249 1.929 3.212 3.216 1.285 1.286 2.57 2.572 4.819 2.894 2.249.321 3.855-.643 5.461-1.608l3.855-2.894c2.249-1.608 5.14-1.608 7.068-.965 4.176 1.286 5.461 4.502 5.461 4.18 0 0 0-.643-.642-1.929-.643-.965-2.249-2.572-4.498-3.537-2.249-.965-5.461-.965-8.352.643l-3.855 2.894c-1.285.965-2.57 1.608-4.177 1.286-2.891-.321-4.818-3.858-7.388-5.788-2.57-1.929-5.783-2.251-8.031-2.251-5.14.965-7.068 3.538-6.747 3.538zm25.379 35.37c0 .322 2.249-1.929 6.746-1.929 2.249 0 4.819.322 7.068 2.251.963.964 2.248 1.929 3.212 3.215 1.285 1.287 2.57 2.573 4.819 2.894 2.249.322 3.855-.643 5.461-1.607l3.855-2.894c2.249-1.608 5.14-1.608 7.068-.965 4.176 1.286 5.461 4.502 5.461 4.18 0 0 0-.643-.643-1.929-.642-.965-2.248-2.573-4.497-3.537-2.249-.965-5.461-.965-8.353.643l-3.855 2.894c-1.285.965-2.57 1.608-4.176 1.286-2.891-.322-4.819-3.859-7.389-5.788-2.57-1.929-5.782-2.251-8.031-2.251-4.819.643-6.746 3.537-6.746 3.537zm53.97 87.463c.321.321 1.606-2.573 5.782-4.181 1.928-.643 4.819-.964 7.389 0 1.285.322 2.57 1.287 4.176 1.93 1.607.643 3.213 1.607 5.462 1.286 1.927-.322 3.533-1.929 4.497-3.216.964-1.286 1.928-2.572 2.57-3.858 1.606-2.251 4.176-3.216 6.425-3.216 4.497 0 6.425 2.573 6.746 2.251 0 0-.321-.643-1.285-1.608-.964-.964-2.891-1.607-5.14-1.929-2.249 0-5.461.643-7.71 3.216l-2.891 3.858c-.964 1.286-2.249 2.251-3.534 2.573-2.891.321-5.782-2.251-8.673-3.216-3.213-.965-6.104-.321-8.353.643-4.497 2.573-5.461 5.788-5.461 5.467zm-62.965 18.65c0 .321 2.249-1.93 6.746-2.251 2.249 0 4.819.321 7.068 1.929.963.965 2.248 1.929 3.212 3.216 1.285 1.286 2.57 2.572 4.819 2.894 2.249.321 3.855-.643 5.14-1.608l3.855-2.894c2.248-1.608 5.14-1.608 7.067-.965 4.176 1.286 5.461 4.18 5.783 4.18 0 0 0-.643-.964-1.929-.643-.965-2.249-2.572-4.498-3.215-2.248-.965-5.461-.965-8.352.964l-3.855 2.894c-1.285.965-2.57 1.608-4.176 1.286-2.891-.321-4.819-3.858-7.389-5.466-2.57-1.929-5.782-2.251-8.031-1.929-4.819.321-6.746 2.894-6.425 2.894z" fill="#FAFAFA"/><path d="M395.65 188.43c-1.927 2.251-72.602 96.787-72.602 96.787l9.959 5.788 72.602-93.25-9.959-9.325z" fill="#263238"/><path d="M120.019 255.956s66.177 114.472 70.674 116.402c8.674 4.18 110.51-83.925 120.148-92.286 1.285-1.929 4.176-5.466 9.637-13.183 0 0 8.031-36.657 16.705-33.763 8.674 2.893-4.819 18.65.964 32.476 5.461 13.827 31.161-19.293 32.125-22.187l6.425-8.682s6.746 19.615 6.425 27.654c-1.607 26.367-26.343 57.236-26.343 57.236s-100.551 126.37-177.008 130.55c-21.845 1.287-63.929-62.059-89.95-108.684-15.741-28.297-8.352-56.915 17.669-75.887l12.529-9.646z" fill="#FFBE9D"/><path d="M370.593 267.532c.321 0 2.891-3.859 5.782-9.325 2.57-5.467 4.176-9.968 3.855-9.968-.321 0-2.249 4.501-4.819 9.646-2.891 5.145-5.14 9.325-4.818 9.647z" fill="#EB996E"/><path d="M123.231 224.122c2.57 1.608 64.25 116.08 64.25 116.08l-79.349 62.06s-20.56-50.805-31.482-92.285c-2.891-11.255-1.285-41.159 2.891-52.735 5.782-16.399 14.778-12.219 28.27-21.866l15.42-11.254z" fill="#E8505B"/><path d="M97.21 224.122s.642-.321 2.249-1.286c1.606-.643 3.855-1.608 7.067-1.608 3.213 0 6.746 1.608 10.28 4.18 3.534 2.573 7.068 6.431 10.28 11.255 3.213 4.501 6.104 10.289 9.638 16.077 3.212 5.788 6.746 12.219 10.601 18.65 7.388 13.184 15.741 27.654 24.415 42.767 5.14 9.325 10.28 18.007 15.098 26.367l.322-.965c-21.524 17.043-40.156 31.834-53.649 42.445-6.425 5.145-11.886 9.325-15.42 12.541-1.606 1.286-3.212 2.572-4.176 3.537-.964.643-1.285 1.286-1.285 1.286s.642-.321 1.606-.965c.964-.964 2.57-1.929 4.176-3.215a643.427 643.427 0 0015.742-12.219c13.492-10.611 32.446-25.081 53.969-42.123l.643-.322-.321-.643c-4.819-8.36-9.959-17.364-15.099-26.367-8.674-15.113-17.026-29.583-24.415-42.445-3.855-6.431-7.389-12.862-10.601-18.65-3.534-5.788-6.425-11.255-9.638-16.078-3.533-4.502-7.067-8.36-10.601-11.254-3.855-2.573-7.71-4.18-10.922-4.18-3.213 0-5.783.964-7.068 1.929-.642.321-1.285.965-1.606.965l-1.285.321z" fill="#000" opacity=".7"/><path d="M120.661 331.521c.321.321 1.606-2.573 5.782-4.181 1.928-.643 4.819-.964 7.389-.321 1.285.321 2.57 1.286 4.176 1.929 1.607.643 3.213 1.608 5.462 1.286 1.927-.321 3.533-1.929 4.497-3.215.964-1.286 1.928-2.894 2.57-3.859 1.606-2.251 4.176-3.215 6.425-3.215 4.498 0 6.425 2.251 6.746 2.251 0 0-.321-.644-1.285-1.608-.963-.643-2.891-1.608-5.461-1.608-2.249 0-5.461.965-7.71 3.537l-2.891 3.859c-.964 1.286-1.928 2.251-3.534 2.572-2.891.643-5.782-2.251-8.674-2.894-3.212-.964-6.103-.321-8.352.643-4.176 1.608-5.14 4.824-5.14 4.824zm-35.98-14.792c.321 0 .964-2.894 4.498-5.466 1.606-1.286 4.176-2.251 7.067-2.251 1.285 0 2.891.643 4.498.965 1.606.321 3.533.643 5.461-.322 1.927-.965 2.891-2.894 3.534-4.502.642-1.607.963-3.215 1.606-4.501.964-2.573 3.212-4.181 5.461-4.824 4.176-1.286 7.068.643 7.068.322 0 0-.322-.643-1.607-.965-1.285-.643-3.212-.964-5.461-.321s-5.14 2.251-6.425 5.466c-.642 1.608-.964 2.894-1.606 4.502-.643 1.608-1.285 2.894-2.57 3.537-2.57 1.286-6.104-.643-9.316-.643-3.213 0-6.104 1.286-7.71 2.894-4.82 2.894-4.82 6.109-4.498 6.109zm-1.928-47.268c.322 0 .964-2.894 4.498-5.466 1.606-1.287 4.176-2.251 7.067-2.251 1.285 0 2.892.643 4.498.964 1.606.322 3.534.644 5.461-.321 1.928-.965 2.891-2.894 3.534-4.502.642-1.608.964-3.215 1.606-4.502.964-2.572 3.213-4.18 5.461-4.823 4.177-1.286 7.068.643 7.068.322 0 0-.321-.643-1.606-.965-1.285-.643-3.213-.965-5.462-.322-2.248.644-5.14 2.251-6.425 5.467-.642 1.608-.963 2.894-1.606 4.502-.642 1.607-1.285 2.894-2.57 3.537-2.57 1.286-6.104-.643-9.316-.643-3.213 0-6.104 1.286-7.71 2.894-4.498 2.893-4.819 6.109-4.498 6.109zm17.348 108.685c.321 0 .964-2.894 4.498-5.467 1.606-1.286 4.176-2.251 7.067-2.251 1.285 0 2.891.644 4.497.965 1.607.322 3.534.643 5.462-.321 1.927-.965 2.891-2.894 3.533-4.502.643-1.608.964-3.216 1.607-4.502.963-2.572 3.212-4.18 5.461-4.823 4.176-1.286 7.067.643 7.067.321 0 0-.321-.643-1.606-.964-1.285-.643-3.212-.965-5.461-.322s-5.14 2.251-6.425 5.467c-.643 1.607-.964 2.893-1.606 4.501-.643 1.608-1.285 2.894-2.57 3.537-2.57 1.287-6.104-.643-9.316-.643-3.213 0-6.104 1.286-7.71 2.894-4.498 2.894-4.498 6.11-4.498 6.11z" fill="#FAFAFA"/></svg>