<svg width="655" height="452" viewBox="0 0 655 452" fill="none" xmlns="http://www.w3.org/2000/svg">
<path d="M44.4406 363.343L29.85 63.9449C29.85 63.9449 28.9741 37.9703 44.6711 35.4256C60.368 32.8809 633.643 11.1455 633.643 11.1455C633.643 11.1455 651.001 13.3916 651.624 35.5445C652.247 57.6975 633.324 364.065 633.324 364.065C633.324 364.065 634.812 388.597 612.245 388.321C589.678 388.044 161.93 391.942 161.93 391.942L162.404 450.959L109.646 392.428L64.5405 392.726C64.5405 392.726 44.6788 392.951 44.4406 363.343Z" fill="#0120A2"/>
<path d="M59.5 363.946L6.86968 126.389C6.86968 126.389 2.61572 105.726 14.827 101.543C27.0382 97.3599 469.775 5.93774 469.775 5.93774C469.775 5.93774 483.971 5.36037 487.5 23C491.029 40.6397 549.048 272.709 549.048 272.709C549.048 272.709 553.594 292.134 535.5 295C517.406 297.866 157.417 370.757 157.417 370.757L165.87 417.912L115.65 378.298L79.6015 384.706C79.6015 384.706 63.7407 387.603 59.5 363.946Z" fill="white"/>
<path d="M65.9864 191.868C63.2935 192.472 61.7827 192.043 61.454 190.579L59.2042 179.739L56.9544 168.899C56.0736 164.976 54.6514 159.054 52.6879 151.132C50.7376 143.268 49.3154 137.346 48.4215 133.365L48.3032 132.838C47.9614 131.316 47.7922 129.878 47.7957 128.524C47.792 126.865 48.5512 125.864 50.0733 125.522C54.1713 124.602 57.7162 125.19 60.708 127.285C63.6998 129.38 65.6821 132.594 66.6549 136.926C67.2465 139.561 67.1618 142.47 66.401 145.654C65.6401 148.838 64.4515 151.35 62.8351 153.188C66.7433 154.709 69.8952 157.107 72.2909 160.381C74.732 163.584 76.4389 167.352 77.4117 171.684C77.8718 173.733 77.7412 176.437 77.0198 179.797C76.1371 183.808 74.4097 186.932 71.8375 189.17C70.2785 190.443 68.4452 191.316 66.3377 191.789L65.9864 191.868ZM58.1487 152.857C59.5919 152.164 60.5972 150.616 61.1645 148.213C61.6746 146.377 62.0472 144.203 62.2824 141.69C62.3134 141.007 62.4221 140.121 62.6084 139.034L61.9182 135.961C61.5238 134.204 60.4986 132.651 58.8426 131.301C57.1866 129.951 55.539 129.46 53.8998 129.828C53.0802 130.013 52.8742 131.012 53.2817 132.827C54.1494 136.691 54.9835 140.131 55.7842 143.149L58.1487 152.857ZM66.1904 187.025C68.9669 185.971 70.9543 184.142 72.1525 181.536C73.3506 178.93 73.6013 176.076 72.9046 172.973C72.2999 170.28 71.5136 167.874 70.5457 165.754C69.6232 163.563 68.6792 161.961 67.7138 160.948C66.8201 159.98 65.9658 159.188 65.1509 158.572C64.336 157.955 63.6681 157.583 63.1472 157.454L62.3856 157.348L59.2243 158.058C61.0288 164.724 63.3508 174.38 66.1904 187.025ZM101.445 184.459C100.157 184.748 98.7357 184.852 97.1802 184.771C95.6963 184.735 94.5212 184.568 93.655 184.271C89.1674 182.634 85.6616 176.196 83.1375 164.956L82.6051 162.585L81.9938 159.863L81.5205 157.755C80.9947 155.414 80.5573 153.329 80.2083 151.501C79.8462 149.614 79.5097 147.568 79.1989 145.363C78.8618 143.04 78.7112 141.137 78.7469 139.653C78.7695 138.111 78.9869 136.34 79.3989 134.341C79.7202 132.486 80.2733 130.978 81.0581 129.818C81.9016 128.644 83.0706 127.552 84.5651 126.54C85.8841 125.567 87.6266 124.838 89.7926 124.351C90.6708 124.154 91.39 124.208 91.9504 124.512C92.5107 124.817 92.8632 125.291 93.0078 125.935C93.1393 126.521 93.0527 127.094 92.7481 127.654C92.502 128.201 92.1221 128.563 91.6083 128.74L87.4811 129.667C86.3103 129.93 85.4501 130.892 84.9006 132.552C84.3512 134.213 84.1637 136.254 84.3383 138.674C84.5501 143.177 84.9583 146.775 85.563 149.468L85.6616 149.907L87.3791 158.377C87.8273 160.92 88.4063 163.773 89.1162 166.934C89.6157 169.159 90.1111 170.954 90.6022 172.319C91.3682 174.361 92.2602 176.006 93.2782 177.253C94.3356 178.676 95.7921 179.548 97.6476 179.869C98.6046 180.023 99.61 179.982 100.664 179.745C101.308 179.601 101.899 179.222 102.438 178.609C103.199 178.438 103.853 178.476 104.4 178.722C104.993 178.896 105.361 179.305 105.506 179.949C106.019 182.232 104.665 183.736 101.445 184.459ZM130.944 176.451C130.21 176.739 129.526 176.708 128.894 176.358C128.249 175.949 127.828 175.306 127.631 174.428C126.824 171.657 126.112 168.896 125.494 166.145C124.652 162.398 123.905 158.661 123.253 154.933C122.529 151.16 121.969 148.395 121.575 146.639C119.998 142.627 118.112 136.01 115.918 126.786C115.431 124.62 115.008 122.871 114.647 121.537C111.661 122.208 109.482 122.636 108.109 122.821L107.582 122.939C106.704 123.136 106.341 123.71 106.493 124.66L107.825 131.002C108.508 134.046 109.01 135.871 109.33 136.475C109.605 137.151 109.769 137.606 109.822 137.841C109.927 138.309 110.026 139.025 110.119 139.988C110.212 140.951 110.312 141.666 110.417 142.135C110.614 143.013 110.931 143.741 111.369 144.319C111.721 144.793 111.973 145.505 112.125 146.455C112.335 147.392 112.493 148.094 112.598 148.563C113.064 150.364 113.633 153.035 114.305 156.573C114.819 159.41 115.227 161.501 115.529 162.848C115.911 164.545 116.403 166.464 117.006 168.604C117.597 170.685 118.02 172.158 118.276 173.023L119.003 175.443C119.272 176.366 119.238 177.173 118.901 177.864C118.61 178.483 118.054 178.884 117.235 179.068C116.942 179.134 116.548 179.161 116.054 179.149C115.487 179.092 115.07 178.878 114.803 178.507C114.535 178.137 114.3 177.636 114.097 177.006L112.177 169.688L109.879 159.043C108.342 152.747 107.225 148.048 106.528 144.945L104.843 137.852C104.035 134.528 103.093 131.019 102.018 127.325L101.034 123.764L100.916 123.237C100.784 122.652 100.809 122.216 100.991 121.929C101.159 121.584 101.546 121.251 102.15 120.931C103.255 120.375 104.276 119.992 105.213 119.782C105.74 119.663 106.127 119.607 106.374 119.613C106.842 119.508 107.558 119.409 108.521 119.315C109.835 119.143 110.873 118.972 111.634 118.801C112.746 118.551 113.744 118.204 114.629 117.759C115.233 117.439 116.086 117.402 117.186 117.646C118.273 117.833 118.967 118.323 119.268 119.116C119.57 119.909 119.773 120.54 119.878 121.008C119.983 121.477 120.033 121.834 120.027 122.082C119.95 122.837 120.024 123.712 120.247 124.707C120.366 125.234 120.526 125.813 120.73 126.444C120.933 127.075 121.113 127.741 121.271 128.444C121.402 129.029 121.478 129.504 121.499 129.868C121.558 130.408 121.72 131.264 121.983 132.435C122.416 134.367 123.203 137.049 124.343 140.483L125.139 142.795C125.316 143.309 125.523 144.092 125.759 145.146C126.036 146.375 126.21 147.289 126.283 147.888C126.388 148.356 126.49 148.948 126.59 149.664C126.734 150.308 126.941 151.092 127.21 152.015C127.454 153.375 127.936 155.388 128.658 158.055L129.18 159.967L132.803 173.635C132.947 174.279 132.89 174.845 132.631 175.334C132.417 175.751 131.855 176.123 130.944 176.451ZM154.506 173.005C152.984 173.346 151.467 173.164 149.955 172.458C148.457 171.811 147.114 170.76 145.926 169.304C143.427 166.115 141.499 162.458 140.143 158.335C138.722 154.473 137.597 150.697 136.769 147.009C136.611 146.307 136.509 145.715 136.462 145.233L136.107 143.653C136.042 143.36 135.98 143.22 135.921 143.233L135.566 141.653L134.274 135.486C133.911 133.599 133.475 130.561 132.965 126.371C132.626 123.495 132.688 120.622 133.151 117.751C133.297 116.488 133.627 115.492 134.14 114.762C134.639 113.973 135.298 113.487 136.118 113.303C138.46 112.777 140.666 112.743 142.736 113.2C144.794 113.599 146.637 114.415 148.267 115.648C149.767 116.849 151.169 118.44 152.475 120.422C153.768 122.345 154.86 124.468 155.75 126.789C156.653 129.169 157.414 131.735 158.032 134.486L158.19 135.189C158.597 137.003 158.994 138.636 159.382 140.086L160.593 145.072C164.38 161.932 162.35 171.243 154.506 173.005ZM153.326 169.395C154.38 169.159 155.254 168.532 155.948 167.515C156.629 166.44 157.039 165.118 157.179 163.549C157.621 160.314 157.571 156.943 157.029 153.436C156.652 150.385 156.22 147.776 155.733 145.61C155.142 142.976 154.161 139.568 152.792 135.386C151.428 130.957 150.497 127.631 149.997 125.406L149.642 123.825C149.026 121.627 147.831 119.866 146.058 118.542C144.343 117.206 142.491 116.761 140.5 117.208C138.51 117.655 137.449 119.092 137.318 121.52C137.14 123.466 137.373 125.873 138.017 128.742C138.267 129.854 138.506 130.784 138.736 131.532L139.268 133.903L140 137.982C140.159 139.238 140.402 140.597 140.731 142.061C141.441 145.222 142.232 148.334 143.104 151.398C144.325 155.736 145.87 159.878 147.74 163.824C149.649 167.946 151.511 169.803 153.326 169.395ZM211.915 163.157C210.1 163.565 208.785 161.953 207.97 158.324L206.708 152.704L205.446 147.084C204.788 144.157 203.722 140.368 202.248 135.718C200.583 130.496 199.527 126.89 199.08 124.899L198.033 119.416C197.796 117.809 197.453 116.01 197.006 114.019C196.943 114.833 196.884 119.089 196.83 126.788C196.723 134.253 196.439 141.204 195.978 147.642C195.523 153.832 194.74 157.052 193.627 157.301C192.515 157.551 191.535 157.433 190.688 156.947C189.886 156.389 189.354 155.525 189.091 154.354C188.513 151.778 186.23 146.541 182.242 138.643C178.314 130.731 174.902 124.302 172.008 119.356L173.709 129.397C175.121 137.874 176.363 144.913 177.437 150.514C178.529 155.926 179.299 159.627 179.746 161.618C179.851 162.086 179.979 162.519 180.129 162.915L180.405 164.145C180.629 165.14 180.588 165.918 180.284 166.478C179.992 167.097 179.29 167.531 178.178 167.781C177.593 167.913 176.984 167.803 176.352 167.453C175.733 167.162 175.364 166.753 175.246 166.226C173.905 160.254 172.333 151.199 170.529 139.059C168.725 126.919 167.153 117.864 165.812 111.892C165.343 111.444 165.042 110.928 164.911 110.342C164.753 109.64 164.957 109.041 165.522 108.545C166.132 107.977 166.906 107.588 167.842 107.378C168.603 107.207 170.626 109.643 173.911 114.686C177.196 119.729 180.645 125.503 184.258 132.01C187.871 138.516 190.319 143.255 191.601 146.226C191.715 144.54 191.767 142.991 191.757 141.579L191.811 139.353C191.844 130.737 192.054 122.911 192.442 115.875C192.647 111.585 193.02 108.181 193.561 105.661C194.063 102.966 194.753 101.52 195.631 101.322C196.45 101.138 197.235 101.208 197.984 101.532C198.778 101.784 199.255 102.261 199.412 102.964C200.359 107.179 201.954 113.462 204.199 121.813C206.37 129.566 207.942 135.608 208.915 139.94L209.872 144.614L210.742 149.307C210.899 150.01 211.224 151.044 211.715 152.41L212.669 155.424C212.845 155.938 212.967 156.341 213.032 156.634C213.157 156.913 213.225 157.082 213.239 157.141C213.702 157.836 213.973 158.359 214.052 158.711C214.276 159.706 214.18 160.65 213.766 161.542C213.351 162.435 212.734 162.973 211.915 163.157ZM227.494 154.677C226.681 154.614 226.159 154.209 225.93 153.461L225.634 152.143C224.965 149.711 224.02 146.049 222.798 141.158C221.604 136.937 220.722 133.691 220.151 131.421C219.173 127.89 217.765 122.579 215.927 115.49C215.593 114.273 215.153 112.589 214.608 110.436C214.063 108.283 213.666 106.65 213.416 105.538C213.213 104.907 212.98 104.006 212.717 102.836C212.414 101.489 212.249 100.481 212.222 99.8104C212.049 97.9431 212.853 96.8707 214.636 96.5934C216.275 96.2253 217.363 96.9648 217.901 98.8119L218.138 99.8656L223.019 122.014L225.366 132.464L226.549 137.733C226.733 138.552 227.008 139.505 227.375 140.591C227.729 141.619 227.988 142.36 228.151 142.815C228.063 141.052 228.143 139.22 228.393 137.319C228.688 135.346 228.877 134.135 228.961 133.686C229.366 131.381 229.622 129.51 229.729 128.071C230.122 123.248 230.695 117.308 231.447 110.252C231.613 108.8 231.772 107.043 231.923 104.979C232.386 99.6484 232.746 96.1854 233.003 94.5904C233.214 93.0671 233.808 92.0115 234.782 91.4236C235.27 91.1296 235.777 90.9235 236.304 90.8052C237.124 90.6212 238.032 90.694 239.028 91.0237L239.975 95.2387C240.961 99.6294 242.067 104.147 243.294 108.791C243.576 109.773 243.941 111.259 244.388 113.249L244.96 115.796C245.078 116.323 245.207 117.032 245.345 117.923C245.542 118.801 245.802 119.819 246.123 120.977L251.711 144.627C251.908 145.505 251.92 146.517 251.747 147.663C251.676 148.171 251.469 148.617 251.125 149.002C250.768 149.328 250.355 149.544 249.887 149.649C248.248 150.017 247.257 149.44 246.915 147.918C246.521 146.162 246.228 144.444 246.035 142.766C245.653 140.515 245.33 138.804 245.067 137.633C242.347 126.068 240.255 117.437 238.791 111.739C238.594 110.861 238.155 109.453 237.474 107.515L236.5 104.413C236.105 105.117 235.898 105.563 235.878 105.752L235.44 110.37C235.187 113.624 234.961 116.043 234.763 117.625L231.895 140.591L230.369 152.279C230.177 153.614 229.612 154.386 228.675 154.597C228.5 154.636 228.106 154.663 227.494 154.677ZM278.769 143.348C276.778 143.795 274.699 139.188 272.529 129.529L271.493 124.504L270.674 120.445L270.615 120.181L270.418 119.303C270.371 118.822 270.275 118.259 270.131 117.615C270.104 117.498 269.984 117.371 269.769 117.235C269.554 117.099 269.433 116.972 269.407 116.855L269.387 116.767C269.121 116.95 268.607 117.127 267.846 117.298C267.085 117.469 266.122 117.562 264.957 117.578C264.592 117.598 263.623 117.662 262.048 117.77L264.316 127.868C264.658 129.39 265.285 131.771 266.196 135.01C267.095 138.19 267.722 140.571 268.077 142.151C268.274 143.029 268.211 143.843 267.887 144.592C267.563 145.341 267.021 145.801 266.26 145.972C265.148 146.222 264.114 145.316 263.159 143.256C262.191 141.136 261.306 138.291 260.505 134.72L259.083 127.568C258.695 125.564 258.251 123.45 257.751 121.225L257.416 119.732L257.14 118.503C256.929 117.566 256.762 116.958 256.638 116.679L256.539 116.24L255.659 111.087C255.159 108.863 254.329 105.575 253.167 101.224C252.006 96.8724 251.175 93.5845 250.675 91.3599C250.518 90.6573 250.614 89.9901 250.964 89.358C251.314 88.726 251.84 88.3311 252.543 88.1733C254.416 87.7526 255.747 89.2986 256.536 92.8111L258.805 103.739C259.424 107.044 260.188 110.716 261.095 114.755C262.039 114.851 263.652 114.642 265.935 114.13L269.184 113.4C269.222 113.023 269.202 112.658 269.123 112.307C268.492 109.497 267.383 105.38 265.796 99.9557C264.23 94.896 263.085 90.7563 262.362 87.5365C262.217 86.8925 262.333 86.3131 262.709 85.7981C263.131 85.2114 263.693 84.8392 264.396 84.6815C264.805 84.5895 265.424 84.6044 266.25 84.7262L267.12 84.8999C268.986 93.2129 271.77 104.241 275.471 117.984L281.251 140.023C281.435 140.843 281.257 141.559 280.719 142.172C280.238 142.772 279.588 143.164 278.769 143.348ZM309.861 137.196C308.515 137.498 307.474 137.517 306.738 137.252C306.002 136.986 305.509 136.298 305.259 135.185C304.865 133.429 303.901 130.509 302.369 126.426L301.604 124.66L292.615 125.295C292.566 126.721 292.68 129.555 292.956 133.797C293.249 136.745 293.12 138.772 292.569 139.88C292.278 140.499 291.751 140.894 290.99 141.065C290.288 141.222 289.598 141.162 288.92 140.884C288.23 140.547 287.812 140.056 287.668 139.412L287.745 138.934L287.754 138.563C288.239 122.65 287.833 107.152 286.537 92.0697C286.485 91.8355 286.429 91.4484 286.369 90.9084C286.296 90.3099 286.17 89.4771 285.992 88.4102C285.681 86.2047 285.469 84.4383 285.356 83.1109C285.301 81.7704 285.435 80.7256 285.759 79.9765L288.744 79.306C289.564 79.122 290.312 79.1691 290.99 79.4474C291.654 79.6672 292.065 80.1284 292.223 80.8309C293.222 85.2801 295.322 91.7573 298.524 100.263C301.719 109.015 303.724 115.206 304.539 118.836C304.618 119.187 304.968 120.062 305.59 121.459C306.185 122.74 306.528 123.585 306.62 123.995C306.712 124.405 307.399 126.096 308.681 129.067C309.839 131.759 310.51 133.514 310.694 134.334L310.714 134.422C311.003 135.71 310.719 136.634 309.861 137.196ZM300.279 121.637C299.907 120.799 299.576 119.735 299.286 118.447C298.103 113.178 296.123 106.551 293.346 98.5657L290.417 89.6304C290.989 103.953 291.596 114.732 292.236 121.967C293.246 122.356 295.927 122.246 300.279 121.637ZM340.98 130.023C339.575 130.339 338.13 130.202 336.645 129.613C335.16 129.024 333.824 128.002 332.636 126.547C331.618 125.3 330.785 123.919 330.138 122.404C329.535 120.817 328.883 118.873 328.182 116.571L324.966 105.947L317.414 107.643L319.347 116.249L320.135 119.761L323.439 130.365C323.78 131.334 323.791 132.069 323.473 132.571C323.214 133.06 322.528 133.429 321.416 133.679C320.596 133.863 319.985 133.877 319.581 133.722C319.177 133.567 318.844 133.18 318.582 132.562C318.255 131.652 317.874 130.231 317.441 128.299L315.854 121.645C314.422 115.817 313.371 111.41 312.701 108.425C312.162 106.024 311.79 104.232 311.586 103.048L310.431 97.4963C310.116 96.0913 309.505 93.6457 308.599 90.1595L307.072 83.7688C306.914 83.0663 306.736 81.9994 306.538 80.5681L305.935 77.4749C305.765 76.7139 305.799 76.1834 306.039 75.8835C306.338 75.5705 306.956 75.3088 307.892 75.0984C308.829 74.8881 309.656 75.0099 310.373 75.4639C311.135 75.8461 311.55 76.4602 311.616 77.3061C311.691 78.4578 311.866 79.6484 312.142 80.8778C312.418 82.1072 312.657 83.0373 312.861 83.6681L313.599 86.5462C314.256 89.4733 314.77 92.3096 315.141 95.0551C315.538 97.9177 316.111 101.017 316.86 104.354C317.823 104.261 318.539 104.162 319.007 104.057C320.061 103.82 321.765 103.192 324.118 102.171C323.531 98.7362 322.999 94.8587 322.521 90.5385C322.016 86.1012 321.711 82.1418 321.606 78.6603C321.564 77.3783 321.912 75.6399 322.649 73.4451C322.81 72.794 323.18 72.2497 323.758 71.8124C324.336 71.3751 325.006 71.071 325.767 70.9001C326.82 70.6635 328.324 70.787 330.278 71.2708C332.29 71.7414 333.947 72.4145 335.251 73.2902C337.513 74.8731 339.512 77.0683 341.25 79.8759C343.045 82.6703 344.357 85.9116 345.186 89.5997C345.593 91.4145 345.857 93.1385 345.978 94.7718C346.125 96.5221 346.587 99.1242 347.362 102.578C348.072 105.739 348.517 108.13 348.696 109.75C349.313 114.962 349.027 119.576 347.838 123.594C347.406 125.229 346.521 126.627 345.183 127.788C343.845 128.95 342.444 129.695 340.98 130.023ZM340.192 126.511C341.304 126.261 342.093 125.53 342.559 124.319C343.416 120.744 343.862 117.662 343.895 115.071C343.987 112.468 343.609 109.14 342.76 105.087C341.811 99.7661 340.942 95.3492 340.154 91.8366L339.218 88.0804C338.312 84.5941 337.006 81.3821 335.301 78.4443C334.785 77.5149 334.006 76.6445 332.962 75.8334C331.965 74.9505 330.925 74.2923 329.844 73.8586C328.834 73.4704 328.037 73.342 327.451 73.4735C326.983 73.5786 326.678 73.8624 326.536 74.3248C326.394 74.7872 326.304 75.4837 326.267 76.4144C326.289 77.332 326.271 78.074 326.213 78.6403C326.163 79.5125 326.205 80.7944 326.339 82.4862C326.438 83.2018 326.496 84.1421 326.511 85.307C326.784 90.9032 327.67 97.0382 329.169 103.712L329.8 106.522L330.459 109.049C330.689 109.797 331.089 111.306 331.66 113.576C332.277 115.774 332.899 117.725 333.528 119.429C334.059 120.97 335.283 123.001 337.202 125.522C338.083 126.431 339.079 126.761 340.192 126.511ZM115.243 274.432C114.801 274.654 114.463 274.791 114.229 274.844C113.526 275.002 112.93 274.674 112.44 273.862C112.048 273.212 111.734 272.36 111.497 271.306L110.225 265.228C110.146 264.876 110.044 264.561 109.92 264.281C109.796 264.002 109.671 263.722 109.547 263.443L99.4485 265.71C100.034 265.579 98.6947 266.187 95.4307 267.535C92.2121 268.811 89.6859 269.747 87.8519 270.344L83.9792 271.582L79.6872 273.007C79.8055 273.534 79.9501 274.178 80.121 274.939C80.3504 275.687 80.5542 276.595 80.7323 277.661L80.8309 278.101C81.0412 279.037 80.9648 279.792 80.6016 280.366C80.2385 280.939 79.852 281.272 79.4422 281.364C79.208 281.417 78.8305 281.378 78.3095 281.249C77.0849 280.725 76.2628 279.803 75.8434 278.483L74.1405 272.131C73.5107 269.875 74.191 268.523 76.1814 268.076C77.2806 267.767 78.093 267.277 78.6186 266.606C79.1443 265.934 79.7213 264.944 80.3496 263.634C80.9648 262.266 81.3489 260.827 81.5017 259.317C81.6999 257.735 81.8032 255.867 81.8114 253.713C81.8387 251.37 81.7328 249.119 81.4937 246.959C81.2546 244.799 80.8703 241.718 80.3408 237.717C79.4873 231.451 78.3638 225.216 76.9704 219.011L75.7783 214.113C75.5285 213.001 75.6467 212.021 76.1329 211.174C76.606 210.268 77.3987 209.69 78.511 209.441C78.8622 209.362 79.1322 209.332 79.321 209.351C82.1191 209.215 84.3802 209.014 86.1042 208.75L86.5432 208.651C87.3043 208.481 87.7105 208.236 87.7619 207.917C88.131 207.096 88.6961 206.6 89.4571 206.429C89.984 206.311 90.4786 206.323 90.941 206.465C91.9565 206.606 92.7684 207.346 93.3767 208.685L96.3096 223.8C98.1369 231.937 99.5333 238.019 100.499 242.045C100.972 244.153 101.754 247.359 102.844 251.665L104.016 256.475C104.121 256.944 104.249 257.376 104.4 257.773C104.55 258.169 104.701 258.566 104.851 258.963C106.048 258.817 106.94 258.678 107.525 258.547C107.994 258.441 108.338 258.333 108.559 258.222C109.808 257.757 111.022 257.823 112.201 258.419C113.426 258.944 114.176 259.82 114.452 261.05C114.807 262.63 115.222 265.028 115.698 268.242C115.882 269.061 116.086 270.245 116.311 271.794C116.47 273.049 116.114 273.929 115.243 274.432ZM86.8176 266.148C90.0302 265.12 92.5469 264.278 94.3677 263.623C96.2339 262.896 98.0379 262.03 99.7798 261.024C98.7745 253.809 97.3648 246.162 95.5506 238.083C93.8679 230.59 91.7282 222.43 89.1314 213.605C87.5962 213.888 84.724 214.379 80.5149 215.078L81.3539 219.225C82.9101 228.346 84.0999 235.151 84.9234 239.639C86.1879 246.366 86.5187 253.179 85.9158 260.079C85.8776 260.456 85.8113 261.393 85.717 262.89C85.6681 264.316 85.3749 265.611 84.8373 266.778L86.8176 266.148ZM130.061 261.511C128.539 261.853 127.023 261.671 125.511 260.965C124.013 260.317 122.67 259.266 121.482 257.811C118.983 254.621 117.055 250.965 115.698 246.842C114.277 242.979 113.153 239.204 112.325 235.515C112.167 234.813 112.065 234.221 112.018 233.739L111.663 232.159C111.598 231.866 111.535 231.726 111.477 231.739L111.122 230.159L109.829 223.992C109.467 222.106 109.031 219.067 108.521 214.878C108.182 212.002 108.244 209.128 108.706 206.257C108.853 204.994 109.183 203.998 109.695 203.268C110.195 202.479 110.854 201.993 111.674 201.809C114.016 201.283 116.222 201.249 118.292 201.706C120.35 202.105 122.193 202.921 123.823 204.154C125.322 205.355 126.725 206.946 128.031 208.928C129.324 210.852 130.415 212.974 131.306 215.295C132.209 217.675 132.97 220.241 133.588 222.992L133.745 223.695C134.153 225.51 134.55 227.142 134.937 228.593L136.149 233.578C139.935 250.439 137.906 259.749 130.061 261.511ZM128.882 257.902C129.936 257.665 130.81 257.038 131.504 256.022C132.185 254.946 132.595 253.624 132.735 252.055C133.176 248.82 133.127 245.449 132.585 241.943C132.208 238.891 131.775 236.282 131.289 234.116C130.697 231.482 129.717 228.074 128.347 223.892C126.984 219.464 126.052 216.137 125.553 213.912L125.198 212.332C124.581 210.133 123.386 208.372 121.613 207.049C119.899 205.712 118.046 205.267 116.056 205.714C114.065 206.161 113.005 207.598 112.873 210.026C112.695 211.972 112.929 214.38 113.573 217.248C113.822 218.36 114.062 219.291 114.292 220.038L114.824 222.409L115.555 226.488C115.714 227.744 115.958 229.104 116.287 230.567C116.997 233.728 117.788 236.841 118.66 239.904C119.88 244.242 121.425 248.384 123.296 252.33C125.205 256.452 127.067 258.309 128.882 257.902ZM154.481 254.275C152.634 254.813 151.545 254.073 151.216 252.056L149.943 245.977C149.712 244.676 149.294 242.679 148.69 239.986L147.23 233.488C146.586 230.62 146.071 228.46 145.683 227.01C145.204 225.15 144.55 222.375 143.722 218.687L141.869 210.433L141.376 208.238C141.021 206.657 140.666 205.353 140.313 204.325C140.017 203.285 139.563 202.218 138.949 201.127C138.726 200.684 138.589 200.346 138.536 200.112C138.313 199.117 138.467 198.16 138.999 197.241C139.589 196.309 140.433 195.689 141.533 195.381C143.1 194.967 144.602 194.538 146.04 194.092C147.535 193.633 148.953 193.1 150.292 192.491C150.767 192.139 151.385 192.154 152.147 192.536C152.896 192.86 153.395 193.301 153.644 193.86C153.866 194.302 153.854 194.797 153.608 195.344C153.349 195.833 152.946 196.231 152.4 196.538C151.25 197.165 148.678 198.173 144.685 199.562L148.765 221.429C151.524 221.117 153.773 221.411 155.513 222.312C157.253 223.213 158.728 225.126 159.938 228.052C161.121 230.308 162.021 232.811 162.639 235.563C163.034 237.319 163.266 239.173 163.335 241.125C163.37 245.115 162.04 248.365 159.345 250.877C159.046 251.19 158.591 251.63 157.981 252.197C157.429 252.752 156.857 253.218 156.266 253.597C155.72 253.904 155.125 254.13 154.481 254.275ZM155.172 249.138C156.264 248.524 157.16 247.585 157.86 246.321C158.56 245.057 158.919 243.777 158.935 242.482C158.95 240.081 158.713 237.797 158.227 235.631C157.714 233.348 156.951 231.182 155.938 229.135C155.271 227.809 154.472 226.85 153.54 226.26C152.653 225.598 151.443 225.409 149.907 225.692L155.172 249.138ZM176.966 249.871C175.508 246.939 174.161 242.722 172.926 237.219L171.346 229.364C170.938 226.996 170.411 224.378 169.767 221.509C169.232 220.769 168.892 220.076 168.747 219.432L168.688 219.169C169.024 217.925 168.751 215.342 167.87 211.42L167.051 207.361C166.82 206.06 166.528 204.619 166.173 203.038C165.397 199.584 164.551 196.915 163.636 195.029C163.628 194.17 163.763 193.402 164.041 192.725C164.306 191.989 164.732 191.555 165.317 191.423L169.181 190.556C170.82 190.188 172.34 190.246 173.74 190.731C175.127 191.158 176.294 191.972 177.24 193.174C178.95 195.311 180.173 198.019 180.909 201.297C181.435 203.639 181.82 205.489 182.064 206.849C182.328 208.573 182.383 210.19 182.231 211.7C182.226 212.501 182.107 213.204 181.874 213.81C181.687 214.344 181.379 215.028 180.951 215.862C180.355 217.041 179.219 218.28 177.543 219.579C176.874 220.159 175.964 220.764 174.814 221.391L176.924 230.787L178.361 236.367L179.148 239.05C180.119 242.276 180.86 245.03 181.373 247.314C181.53 248.016 181.369 248.667 180.889 249.267C180.422 249.925 179.808 250.34 179.047 250.511L176.966 249.871ZM174.093 217.771C177.429 216.468 178.045 211.134 175.941 201.767C175.56 200.069 175.177 198.772 174.791 197.874C174.457 197.211 174.098 196.708 173.713 196.364C173.316 195.961 172.791 195.679 172.14 195.518C171.417 195.311 170.675 195.293 169.914 195.464C169.901 195.406 169.572 195.449 168.928 195.593L170.052 200.599C170.828 204.053 171.547 207.12 172.211 209.799C172.894 212.844 173.371 214.828 173.639 215.751L174.054 217.595L174.093 217.771ZM223.325 239.738C221.627 240.119 220.634 239.666 220.344 238.378C220.279 238.085 220.141 237.47 219.93 236.534C219.72 235.597 219.581 234.706 219.514 233.86C219.275 231.7 218.834 229.185 218.189 226.317C217.571 223.565 216.62 219.874 215.334 215.243C214.625 212.635 213.594 208.593 212.242 203.116L209.572 192.462L208.656 188.794L207.09 182.227C206.879 181.291 207.288 180.646 208.315 180.292C209.356 179.997 210.3 180.092 211.147 180.578C211.994 181.065 212.529 181.805 212.753 182.801C213.081 184.264 213.542 186.59 214.135 189.777L218.939 212.404C219.052 213.179 219.253 214.21 219.542 215.498C219.889 216.772 220.201 218.024 220.477 219.254L221.661 224.523L222.37 227.684C223.082 231.398 223.918 234.439 224.88 236.806C225.181 237.599 225.173 238.247 224.855 238.748C224.596 239.237 224.086 239.567 223.325 239.738ZM202.689 244.372C201.869 244.556 201.111 244.603 200.414 244.513C199.718 244.424 199.294 243.904 199.142 242.954C198.957 241.582 198.67 239.893 198.281 237.89C197.893 235.886 197.613 234.504 197.442 233.743C196.693 230.406 195.992 226.874 195.339 223.146C195.141 221.715 194.7 219.477 194.016 216.433C193.635 214.735 193.152 212.722 192.568 210.394C191.984 208.065 191.531 206.322 191.209 205.164C190.927 204.182 190.606 203.024 190.245 201.691C189.884 200.358 189.519 198.872 189.151 197.232C188.587 195.268 188.18 193.73 187.931 192.618L187.33 190.354C187.264 190.062 187.133 189.476 186.936 188.598C186.725 187.661 186.707 186.897 186.882 186.304C187.115 185.698 187.641 185.303 188.461 185.119C189.222 184.949 189.938 185.126 190.609 185.652C191.268 186.119 191.689 186.762 191.873 187.582C192.018 188.226 192.319 189.295 192.778 190.791C193.5 193.458 194.038 195.582 194.393 197.162C194.827 199.094 195.108 201.03 195.236 202.969C195.198 203.346 195.271 203.945 195.455 204.764C195.613 205.467 195.895 206.449 196.301 207.711C196.809 207.781 197.889 207.938 199.543 208.182C201.183 208.367 202.645 208.715 203.928 209.226C205.198 209.679 206.26 210.301 207.115 211.093C209.828 213.866 211.448 216.423 211.974 218.765C212.789 222.395 213.432 226.493 213.905 231.061C214.204 233.761 213.795 235.913 212.679 237.516C211.563 239.12 209.764 240.692 207.282 242.233C206.632 242.625 205.829 243.021 204.873 243.42C203.917 243.819 203.189 244.136 202.689 244.372ZM203.38 239.235C204.109 239.195 204.649 239.135 205 239.056C206.171 238.793 207.045 238.167 207.622 237.176C209.224 234.725 209.716 232.124 209.098 229.373C208.61 226.654 208.123 224.211 207.637 222.045C206.769 218.181 205.918 215.759 205.083 214.778C204.384 213.582 203.321 212.683 201.894 212.081C200.468 211.479 198.925 211.18 197.265 211.184C197.789 215.432 198.629 220.132 199.786 225.284C200.772 229.675 201.97 234.325 203.38 239.235ZM272.196 232.637C270.382 233.045 269.067 231.434 268.252 227.804L266.989 222.184L265.727 216.564C265.07 213.637 264.004 209.849 262.53 205.199C260.865 199.976 259.809 196.37 259.362 194.38L258.315 188.896C258.077 187.289 257.735 185.49 257.288 183.5C257.225 184.313 257.166 188.57 257.111 196.269C257.004 203.734 256.72 210.685 256.26 217.122C255.805 223.312 255.021 226.532 253.909 226.782C252.797 227.032 251.817 226.913 250.97 226.427C250.168 225.869 249.636 225.005 249.373 223.834C248.795 221.258 246.512 216.021 242.524 208.123C238.595 200.212 235.184 193.783 232.29 188.837L233.991 198.878C235.403 207.355 236.645 214.393 237.718 219.994C238.811 225.406 239.58 229.108 240.027 231.098C240.133 231.567 240.26 231.999 240.411 232.396L240.687 233.625C240.911 234.62 240.87 235.398 240.565 235.958C240.274 236.577 239.572 237.012 238.46 237.261C237.874 237.393 237.266 237.284 236.634 236.934C236.015 236.642 235.646 236.233 235.528 235.706C234.187 229.735 232.615 220.679 230.811 208.539C229.007 196.4 227.435 187.344 226.094 181.373C225.624 180.925 225.324 180.408 225.192 179.823C225.035 179.12 225.238 178.521 225.803 178.025C226.414 177.458 227.187 177.069 228.124 176.858C228.885 176.687 230.908 179.123 234.193 184.166C237.477 189.209 240.927 194.984 244.54 201.49C248.153 207.997 250.601 212.735 251.883 215.707C251.997 214.021 252.048 212.472 252.039 211.06L252.092 208.834C252.125 200.217 252.336 192.391 252.724 185.355C252.929 181.066 253.302 177.661 253.843 175.142C254.345 172.446 255.034 171 255.913 170.803C256.732 170.619 257.517 170.688 258.266 171.012C259.06 171.264 259.536 171.742 259.694 172.444C260.641 176.659 262.236 182.942 264.48 191.293C266.652 199.046 268.224 205.088 269.197 209.42L270.154 214.094L271.023 218.788C271.181 219.49 271.506 220.524 271.997 221.89L272.95 224.904C273.127 225.418 273.248 225.821 273.314 226.114C273.438 226.393 273.507 226.563 273.52 226.621C273.984 227.316 274.255 227.84 274.334 228.191C274.558 229.186 274.462 230.13 274.047 231.023C273.633 231.915 273.016 232.453 272.196 232.637ZM313.085 219.95C311.797 220.24 310.375 220.344 308.82 220.262C307.336 220.227 306.161 220.06 305.294 219.763C300.807 218.126 297.301 211.688 294.777 200.448L294.245 198.077L293.633 195.355L293.16 193.247C292.634 190.905 292.197 188.821 291.848 186.993C291.486 185.106 291.149 183.06 290.838 180.855C290.501 178.532 290.351 176.629 290.386 175.145C290.409 173.603 290.626 171.832 291.038 169.833C291.36 167.978 291.913 166.47 292.698 165.31C293.541 164.136 294.71 163.044 296.205 162.032C297.523 161.059 299.266 160.329 301.432 159.843C302.31 159.646 303.029 159.7 303.59 160.004C304.15 160.309 304.503 160.783 304.647 161.427C304.779 162.012 304.692 162.585 304.388 163.146C304.141 163.693 303.762 164.055 303.248 164.232L299.121 165.159C297.95 165.422 297.09 166.383 296.54 168.044C295.991 169.705 295.803 171.746 295.978 174.166C296.19 178.669 296.598 182.267 297.202 184.96L297.301 185.399L299.018 193.869C299.467 196.412 300.046 199.265 300.756 202.426C301.255 204.65 301.751 206.446 302.242 207.811C303.008 209.853 303.9 211.497 304.918 212.745C305.975 214.168 307.432 215.04 309.287 215.361C310.244 215.515 311.249 215.474 312.303 215.237C312.947 215.092 313.538 214.714 314.077 214.101C314.838 213.93 315.492 213.967 316.04 214.214C316.632 214.388 317.001 214.797 317.146 215.441C317.658 217.724 316.305 219.227 313.085 219.95ZM325.387 217.926C324.919 218.031 324.476 217.977 324.059 217.763C323.642 217.549 323.293 217.228 323.012 216.799C322.927 216.695 322.859 216.526 322.806 216.291C322.635 215.53 322.907 214.824 323.621 214.171C325.103 213.101 326.096 211.771 326.6 210.182C327.149 208.521 327.383 206.685 327.3 204.675C327.065 198.701 326.192 192.348 324.68 185.615C324.115 183.098 323.659 181.202 323.311 179.927C320.679 170.126 318.764 163.238 317.564 159.264L317.485 158.913C317.367 158.386 317.392 157.95 317.56 157.605C317.729 157.26 318.093 156.963 318.652 156.714C322.241 155.17 325.147 154.149 327.372 153.649C328.543 153.386 329.427 153.218 330.026 153.145C331.386 152.901 332.502 153.081 333.376 153.684C334.249 154.288 334.837 155.263 335.139 156.609L336.272 161.243C337.309 165.315 338.058 168.375 338.518 170.424L339.377 174.659C340.771 180.865 342.766 188.657 345.364 198.035C346.558 202.256 347.506 205.518 348.207 207.82C348.502 208.861 348.498 209.661 348.193 210.222C347.947 210.769 347.398 211.2 346.546 211.514C344.641 212.065 343.412 211.387 342.861 209.482C342.656 207.745 342.362 206.027 341.981 204.33C341.6 202.632 341.255 201.233 340.947 200.134L338.611 190.143C337.52 185.284 336.315 180.328 334.995 175.274C333.932 171.085 332.862 167.144 331.787 163.45C330.711 159.756 329.964 157.525 329.546 156.758C329.208 156.896 328.509 157.206 327.449 157.69C326.39 158.174 324.913 158.721 323.021 159.33C323.45 162.063 323.796 164.014 324.059 165.185C324.361 166.532 324.712 167.683 325.111 168.639C325.583 170.193 326.22 172.479 327.02 175.497L327.454 177.429C329.584 186.913 330.936 193.343 331.509 196.719C331.602 197.682 331.708 198.427 331.827 198.954C332.145 201.465 332.331 203.391 332.386 204.732C332.497 207.966 331.422 211.528 329.159 215.418C328.55 216.539 327.351 217.362 325.562 217.886L325.387 217.926ZM370.604 207.495C369.082 207.837 367.565 207.655 366.054 206.949C364.556 206.301 363.213 205.25 362.025 203.795C359.526 200.605 357.598 196.949 356.241 192.826C354.82 188.963 353.696 185.188 352.868 181.5C352.71 180.797 352.608 180.205 352.561 179.724L352.206 178.143C352.14 177.85 352.078 177.71 352.02 177.724L351.665 176.143L350.372 169.976C350.01 168.09 349.574 165.052 349.063 160.862C348.725 157.986 348.787 155.112 349.249 152.241C349.396 150.979 349.726 149.982 350.238 149.252C350.738 148.464 351.397 147.977 352.217 147.793C354.558 147.267 356.765 147.233 358.835 147.691C360.892 148.09 362.736 148.905 364.366 150.138C365.865 151.339 367.268 152.93 368.574 154.912C369.867 156.836 370.958 158.958 371.849 161.279C372.752 163.659 373.513 166.225 374.131 168.977L374.288 169.679C374.696 171.494 375.093 173.126 375.48 174.577L376.692 179.563C380.478 196.423 378.449 205.733 370.604 207.495ZM369.425 203.886C370.479 203.649 371.353 203.022 372.047 202.006C372.728 200.93 373.138 199.608 373.278 198.04C373.719 194.804 373.67 191.433 373.128 187.927C372.75 184.875 372.318 182.267 371.832 180.1C371.24 177.466 370.26 174.058 368.89 169.877C367.527 165.448 366.595 162.121 366.096 159.896L365.741 158.316C365.124 156.117 363.929 154.356 362.156 153.033C360.442 151.696 358.589 151.251 356.599 151.698C354.608 152.145 353.547 153.582 353.416 156.01C353.238 157.956 353.471 160.364 354.116 163.232C354.365 164.345 354.605 165.275 354.834 166.023L355.367 168.394L356.098 172.472C356.257 173.728 356.501 175.088 356.83 176.551C357.54 179.712 358.331 182.825 359.203 185.888C360.423 190.226 361.968 194.368 363.838 198.314C365.748 202.436 367.61 204.293 369.425 203.886ZM394.343 201.334C393.055 201.623 392.14 201.245 391.597 200.198C391.205 199.548 390.865 198.579 390.576 197.291C390.01 194.774 389.431 191.645 388.837 187.904C388.341 184.326 387.784 181.161 387.166 178.41C386.469 175.307 385.512 170.633 384.294 164.388L381.354 150.474C381.235 149.947 380.97 149.177 380.558 148.163L379.802 146.026L379.703 145.587C379.401 144.241 379.382 143.2 379.647 142.464C379.912 141.728 380.601 141.235 381.713 140.985C383.236 140.643 385.003 140.708 387.015 141.178C389.027 141.649 390.594 142.465 391.715 143.628C394.044 146.057 395.682 149.378 396.628 153.593C397.338 156.755 397.673 159.478 397.632 161.762C397.579 163.988 397.112 166.153 396.231 168.257C398.154 169.424 399.648 171.148 400.714 173.43C401.825 175.641 402.782 178.531 403.584 182.102C404.386 185.673 404.468 188.914 403.83 191.825C403.095 195.126 401.506 197.635 399.063 199.352C397.556 200.305 395.982 200.966 394.343 201.334ZM389.6 167.071C392.632 166.329 393.358 162.445 391.781 155.42C390.085 147.868 387.997 144.186 385.518 144.374C385.177 145.865 385.565 149.098 386.682 154.074L389.6 167.071ZM395.62 196.343C397.402 195.513 398.615 194.072 399.262 192.02C399.908 189.969 399.968 187.772 399.442 185.43C398.89 182.972 398.257 180.839 397.544 179.031C396.981 177.62 396.39 176.492 395.77 175.647C395.195 174.731 394.493 173.935 393.665 173.261C392.766 172.54 391.828 172.197 390.852 172.232C391.367 175.621 392.242 180.068 393.478 185.571C393.557 185.922 393.748 187.047 394.052 188.947L394.547 191.972C394.573 192.089 394.622 192.17 394.694 192.216L394.733 192.391L395.62 196.343ZM427.288 194.766C425.766 195.108 424.25 194.926 422.738 194.22C421.24 193.572 419.897 192.521 418.709 191.066C416.21 187.876 414.282 184.22 412.925 180.097C411.504 176.234 410.38 172.459 409.552 168.771C409.394 168.068 409.292 167.476 409.245 166.995L408.89 165.414C408.825 165.121 408.762 164.982 408.704 164.995L408.349 163.414L407.056 157.247C406.694 155.361 406.258 152.323 405.748 148.133C405.409 145.257 405.471 142.384 405.933 139.513C406.08 138.25 406.41 137.253 406.922 136.523C407.422 135.735 408.081 135.248 408.901 135.064C411.243 134.538 413.449 134.504 415.519 134.962C417.577 135.361 419.42 136.177 421.05 137.409C422.549 138.61 423.952 140.201 425.258 142.183C426.551 144.107 427.642 146.229 428.533 148.551C429.436 150.931 430.197 153.496 430.815 156.248L430.972 156.95C431.38 158.765 431.777 160.398 432.164 161.848L433.376 166.834C437.162 183.694 435.133 193.005 427.288 194.766ZM426.109 191.157C427.163 190.92 428.037 190.294 428.731 189.277C429.412 188.201 429.822 186.879 429.962 185.311C430.404 182.075 430.354 178.704 429.812 175.198C429.435 172.146 429.002 169.538 428.516 167.372C427.924 164.737 426.944 161.329 425.574 157.148C424.211 152.719 423.279 149.392 422.78 147.167L422.425 145.587C421.808 143.389 420.613 141.628 418.84 140.304C417.126 138.967 415.273 138.522 413.283 138.969C411.292 139.416 410.232 140.853 410.1 143.281C409.922 145.227 410.156 147.635 410.8 150.503C411.049 151.616 411.289 152.546 411.519 153.294L412.051 155.665L412.782 159.744C412.941 160.999 413.185 162.359 413.514 163.822C414.224 166.984 415.015 170.096 415.887 173.159C417.107 177.497 418.652 181.639 420.523 185.586C422.432 189.707 424.294 191.564 426.109 191.157ZM484.697 184.919C482.883 185.326 481.568 183.715 480.753 180.085L479.491 174.465L478.228 168.845C477.571 165.918 476.505 162.13 475.031 157.48C473.366 152.258 472.31 148.651 471.863 146.661L470.816 141.177C470.578 139.57 470.236 137.771 469.789 135.781C469.726 136.595 469.667 140.851 469.612 148.55C469.505 156.015 469.221 162.966 468.761 169.403C468.306 175.593 467.522 178.813 466.41 179.063C465.298 179.313 464.318 179.195 463.471 178.708C462.669 178.15 462.137 177.286 461.874 176.115C461.296 173.539 459.013 168.302 455.025 160.404C451.096 152.493 447.685 146.064 444.791 141.118L446.492 151.159C447.904 159.636 449.146 166.675 450.219 172.275C451.312 177.688 452.081 181.389 452.528 183.379C452.634 183.848 452.761 184.28 452.912 184.677L453.188 185.906C453.412 186.901 453.371 187.679 453.066 188.24C452.775 188.858 452.073 189.293 450.961 189.543C450.375 189.674 449.767 189.565 449.135 189.215C448.516 188.923 448.147 188.514 448.029 187.987C446.688 182.016 445.116 172.96 443.312 160.821C441.508 148.681 439.936 139.625 438.595 133.654C438.125 133.206 437.825 132.689 437.693 132.104C437.536 131.401 437.739 130.802 438.304 130.306C438.915 129.739 439.689 129.35 440.625 129.139C441.386 128.969 443.409 131.405 446.694 136.447C449.979 141.49 453.428 147.265 457.041 153.771C460.654 160.278 463.102 165.016 464.384 167.988C464.498 166.302 464.549 164.753 464.54 163.341L464.593 161.115C464.626 152.498 464.837 144.672 465.225 137.636C465.43 133.347 465.803 129.943 466.344 127.423C466.846 124.727 467.535 123.281 468.414 123.084C469.233 122.9 470.018 122.97 470.767 123.293C471.561 123.545 472.037 124.023 472.195 124.725C473.142 128.94 474.737 135.223 476.981 143.575C479.153 151.327 480.725 157.37 481.698 161.702L482.655 166.375L483.524 171.069C483.682 171.771 484.007 172.806 484.498 174.171L485.451 177.185C485.628 177.699 485.749 178.102 485.815 178.395C485.939 178.675 486.008 178.844 486.021 178.902C486.485 179.598 486.756 180.121 486.835 180.472C487.059 181.467 486.963 182.411 486.548 183.304C486.134 184.196 485.517 184.734 484.697 184.919ZM114.3 346.223C113.565 346.511 112.882 346.48 112.25 346.13C111.604 345.721 111.183 345.078 110.986 344.2C110.179 341.429 109.467 338.668 108.849 335.916C108.008 332.17 107.261 328.433 106.608 324.705C105.884 320.932 105.325 318.167 104.93 316.411C103.353 312.399 101.467 305.782 99.2731 296.558C98.7867 294.392 98.3631 292.643 98.0021 291.309C95.0165 291.98 92.8373 292.408 91.4645 292.593L90.9377 292.711C90.0595 292.908 89.6964 293.482 89.8482 294.432L91.1801 300.774C91.8637 303.818 92.3656 305.642 92.6859 306.247C92.9607 306.923 93.1244 307.378 93.177 307.613C93.2822 308.081 93.3814 308.797 93.4746 309.76C93.5679 310.722 93.6671 311.438 93.7723 311.906C93.9695 312.785 94.2867 313.513 94.724 314.091C95.0765 314.565 95.3287 315.277 95.4805 316.227C95.6908 317.164 95.8485 317.866 95.9537 318.335C96.4198 320.136 96.9887 322.807 97.6603 326.345C98.1743 329.182 98.5824 331.273 98.8848 332.62C99.266 334.317 99.7584 336.236 100.362 338.376C100.952 340.457 101.375 341.93 101.631 342.795L102.359 345.214C102.628 346.138 102.594 346.945 102.257 347.636C101.965 348.255 101.41 348.656 100.59 348.84C100.297 348.906 99.9038 348.933 99.4091 348.921C98.8428 348.863 98.4258 348.65 98.1582 348.279C97.8905 347.909 97.6551 347.408 97.452 346.778L95.5321 339.46L93.2339 328.815C91.6971 322.519 90.5803 317.82 89.8835 314.717L88.1985 307.624C87.3906 304.3 86.4489 300.791 85.3734 297.097L84.3893 293.536L84.2709 293.009C84.1395 292.424 84.1645 291.988 84.3461 291.701C84.5146 291.356 84.901 291.023 85.5056 290.703C86.6107 290.147 87.6316 289.764 88.5683 289.554C89.0951 289.435 89.4822 289.379 89.7295 289.385C90.1979 289.28 90.9135 289.181 91.8765 289.087C93.1907 288.915 94.2283 288.744 94.9894 288.573C96.1017 288.323 97.0999 287.976 97.984 287.531C98.5885 287.211 99.441 287.174 100.541 287.418C101.629 287.605 102.323 288.094 102.624 288.888C102.925 289.681 103.128 290.312 103.233 290.78C103.339 291.249 103.388 291.606 103.382 291.854C103.306 292.609 103.379 293.484 103.603 294.479C103.721 295.006 103.882 295.585 104.085 296.216C104.288 296.847 104.469 297.513 104.626 298.216C104.758 298.801 104.834 299.276 104.854 299.64C104.914 300.18 105.075 301.036 105.338 302.207C105.772 304.139 106.559 306.821 107.699 310.255L108.495 312.567C108.672 313.081 108.878 313.864 109.115 314.918C109.391 316.147 109.565 317.061 109.638 317.66C109.744 318.128 109.846 318.72 109.945 319.436C110.09 320.08 110.296 320.864 110.565 321.787C110.809 323.147 111.292 325.16 112.014 327.827L112.535 329.739L116.158 343.407C116.303 344.051 116.245 344.617 115.986 345.106C115.772 345.523 115.21 345.895 114.3 346.223ZM131.508 343.65C130.747 343.821 129.985 343.715 129.223 343.333C128.519 342.937 128.053 342.366 127.823 341.618L127.311 339.335L126.916 337.578C126.739 337.065 126.572 336.457 126.414 335.754C126.138 334.525 125.63 332.671 124.889 330.193L123.451 324.613C122.807 321.744 121.935 317.451 120.836 311.733C119.926 306.587 119.083 302.287 118.308 298.833C118.124 298.013 117.76 296.804 117.216 295.204C116.659 293.546 116.295 292.336 116.125 291.575C115.191 287.419 115.954 285.064 118.413 284.512C120.345 284.078 122.655 283.959 125.343 284.155C128.09 284.338 129.581 284.956 129.818 286.01C129.949 286.595 129.811 287.21 129.402 287.856C129.039 288.429 128.539 288.941 127.902 289.391C125.246 289.065 122.89 288.98 120.834 289.134C121.09 289.999 121.402 291.251 121.77 292.89C122.296 295.232 122.74 297.346 123.102 299.232C123.557 302.082 123.943 304.209 124.258 305.614L124.837 306.96L126.222 306.557C126.678 306.393 127.256 306.232 127.959 306.074C130.769 305.443 132.358 305.947 132.726 307.587C132.871 308.231 132.732 308.846 132.31 309.433C131.876 309.961 131.248 310.317 130.429 310.501C129.375 310.737 128.542 310.863 127.931 310.877L125.735 311.37C126.194 312.866 126.752 315.078 127.41 318.005C128.067 320.932 128.629 323.573 129.096 325.928C129.723 329.538 130.233 332.221 130.627 333.978C131.364 337.256 131.79 338.882 131.907 338.856L134.785 338.117C135.768 337.835 136.961 337.536 138.366 337.221C140.591 336.721 141.861 337.174 142.176 338.579C142.36 339.399 142.118 340.099 141.449 340.68C140.851 341.306 140.026 341.737 138.972 341.974L131.508 343.65ZM187.874 341.139C187.432 341.361 187.093 341.499 186.859 341.551C186.157 341.709 185.561 341.382 185.071 340.569C184.679 339.919 184.365 339.068 184.128 338.014L182.855 331.935C182.776 331.584 182.675 331.268 182.55 330.989C182.426 330.709 182.302 330.43 182.178 330.15L172.079 332.418C172.664 332.286 171.325 332.894 168.061 334.242C164.843 335.519 162.316 336.455 160.482 337.051L156.61 338.29L152.318 339.715C152.436 340.242 152.581 340.886 152.751 341.647C152.981 342.395 153.185 343.302 153.363 344.369L153.461 344.808C153.672 345.745 153.595 346.5 153.232 347.073C152.869 347.647 152.482 347.979 152.073 348.071C151.839 348.124 151.461 348.086 150.94 347.957C149.715 347.432 148.893 346.51 148.474 345.19L146.771 338.839C146.141 336.582 146.821 335.23 148.812 334.783C149.911 334.475 150.723 333.985 151.249 333.313C151.775 332.642 152.352 331.651 152.98 330.342C153.595 328.974 153.979 327.535 154.132 326.025C154.33 324.443 154.434 322.575 154.442 320.421C154.469 318.078 154.363 315.826 154.124 313.666C153.885 311.506 153.501 308.425 152.971 304.424C152.118 298.159 150.994 291.923 149.601 285.718L148.409 280.82C148.159 279.708 148.277 278.728 148.763 277.881C149.236 276.975 150.029 276.398 151.141 276.148C151.493 276.069 151.763 276.039 151.951 276.058C154.75 275.922 157.011 275.722 158.735 275.457L159.174 275.359C159.935 275.188 160.341 274.943 160.392 274.624C160.761 273.803 161.327 273.307 162.088 273.136C162.614 273.018 163.109 273.03 163.571 273.172C164.587 273.313 165.399 274.053 166.007 275.392L168.94 290.507C170.767 298.644 172.164 304.726 173.129 308.753C173.603 310.86 174.384 314.067 175.474 318.373L176.647 323.183C176.752 323.651 176.88 324.083 177.03 324.48C177.181 324.877 177.331 325.273 177.482 325.67C178.679 325.524 179.57 325.385 180.156 325.254C180.624 325.149 180.969 325.041 181.19 324.93C182.438 324.465 183.652 324.53 184.831 325.126C186.056 325.651 186.806 326.528 187.082 327.757C187.437 329.338 187.853 331.735 188.328 334.949C188.512 335.769 188.717 336.953 188.942 338.501C189.101 339.757 188.745 340.636 187.874 341.139ZM159.448 332.856C162.661 331.827 165.177 330.985 166.998 330.33C168.864 329.604 170.668 328.737 172.41 327.731C171.405 320.516 169.995 312.869 168.181 304.79C166.498 297.297 164.359 289.138 161.762 280.312C160.227 280.595 157.354 281.087 153.145 281.786L153.984 285.933C155.541 295.053 156.73 301.858 157.554 306.347C158.818 313.073 159.149 319.886 158.546 326.786C158.508 327.163 158.442 328.101 158.348 329.598C158.299 331.023 158.005 332.319 157.468 333.485L159.448 332.856ZM210.377 325.57C209.031 325.872 207.99 325.891 207.254 325.626C206.518 325.361 206.025 324.672 205.775 323.56C205.381 321.803 204.417 318.883 202.885 314.8L202.12 313.035L193.131 313.67C193.082 315.095 193.196 317.929 193.472 322.172C193.765 325.119 193.636 327.146 193.085 328.254C192.794 328.873 192.267 329.268 191.506 329.439C190.804 329.597 190.114 329.536 189.436 329.258C188.746 328.921 188.328 328.431 188.184 327.787L188.261 327.308L188.27 326.937C188.755 311.024 188.349 295.526 187.053 280.444C187.001 280.21 186.945 279.823 186.885 279.283C186.812 278.684 186.686 277.851 186.508 276.784C186.198 274.579 185.985 272.813 185.872 271.485C185.817 270.145 185.951 269.1 186.275 268.351L189.26 267.68C190.08 267.496 190.829 267.543 191.506 267.822C192.17 268.041 192.581 268.503 192.739 269.205C193.738 273.654 195.838 280.132 199.04 288.637C202.235 297.389 204.24 303.58 205.055 307.21C205.134 307.561 205.484 308.436 206.106 309.834C206.701 311.114 207.044 311.96 207.136 312.369C207.228 312.779 207.915 314.47 209.198 317.441C210.355 320.133 211.026 321.888 211.21 322.708L211.23 322.796C211.519 324.084 211.235 325.009 210.377 325.57ZM200.796 310.011C200.423 309.173 200.092 308.109 199.803 306.822C198.619 301.553 196.639 294.926 193.862 286.94L190.933 278.005C191.505 292.327 192.112 303.106 192.752 310.342C193.762 310.73 196.443 310.62 200.796 310.011ZM220.09 323.297C219.979 323.076 219.77 322.692 219.462 322.146C219.214 321.587 219.073 321.096 219.039 320.673C217.632 313.856 216.67 308.753 216.155 305.363C215.937 304.121 215.559 302.299 215.02 299.899C214.047 295.567 212.666 290.373 210.876 284.319C208.842 276.904 207.391 271.265 206.523 267.401C206.326 266.523 206.5 265.654 207.045 264.794C207.589 263.933 208.359 263.391 209.355 263.168C212.691 262.419 215.648 262.031 218.226 262.006C219.449 261.977 220.302 262.216 220.785 262.723C221.254 263.171 221.575 264.052 221.747 265.366C221.046 266.077 220.256 266.531 219.378 266.728C219.085 266.794 218.633 266.834 218.022 266.848C217.468 266.85 216.037 267.048 213.728 267.444L213.552 267.483C212.732 267.667 212.421 268.198 212.618 269.076C214.232 277.631 215.17 282.493 215.433 283.664C216.917 289.726 218.066 294.296 218.88 297.372C218.972 297.782 219.113 298.273 219.303 298.845C219.493 299.417 219.605 299.915 219.638 300.338C220.068 303.07 220.617 305.929 221.288 308.915C222.379 313.774 223.229 317.15 223.839 319.042C224.069 320.343 224.062 321.267 223.815 321.815C223.583 322.42 222.998 322.828 222.061 323.039C221.827 323.091 221.17 323.177 220.09 323.297ZM250.543 317.473C249.021 317.815 247.504 317.633 245.993 316.927C244.495 316.279 243.152 315.228 241.964 313.773C239.464 310.583 237.536 306.926 236.18 302.803C234.759 298.941 233.635 295.166 232.807 291.477C232.649 290.775 232.547 290.183 232.5 289.701L232.145 288.121C232.079 287.828 232.017 287.688 231.959 287.701L231.604 286.121L230.311 279.954C229.949 278.068 229.513 275.029 229.002 270.839C228.664 267.964 228.726 265.09 229.188 262.219C229.335 260.956 229.665 259.96 230.177 259.23C230.677 258.441 231.336 257.955 232.156 257.771C234.497 257.245 236.703 257.211 238.774 257.668C240.831 258.067 242.675 258.883 244.305 260.116C245.804 261.317 247.207 262.908 248.513 264.89C249.806 266.814 250.897 268.936 251.788 271.257C252.691 273.637 253.452 276.203 254.069 278.954L254.227 279.657C254.635 281.472 255.032 283.104 255.419 284.555L256.631 289.54C260.417 306.4 258.388 315.711 250.543 317.473ZM249.364 313.864C250.418 313.627 251.291 313 251.986 311.984C252.666 310.908 253.077 309.586 253.216 308.017C253.658 304.782 253.609 301.411 253.067 297.904C252.689 294.853 252.257 292.244 251.771 290.078C251.179 287.444 250.199 284.036 248.829 279.854C247.466 275.426 246.534 272.099 246.035 269.874L245.68 268.294C245.063 266.095 243.868 264.334 242.095 263.011C240.381 261.674 238.528 261.229 236.538 261.676C234.547 262.123 233.486 263.56 233.355 265.988C233.177 267.934 233.41 270.342 234.055 273.21C234.304 274.322 234.544 275.253 234.773 276L235.306 278.371L236.037 282.45C236.196 283.706 236.44 285.066 236.769 286.529C237.479 289.69 238.27 292.803 239.142 295.866C240.362 300.204 241.907 304.346 243.777 308.292C245.687 312.414 247.549 314.271 249.364 313.864ZM272.486 311.531C272.375 311.31 272.166 310.926 271.859 310.38C271.61 309.821 271.469 309.33 271.436 308.907C270.028 302.09 269.066 296.987 268.551 293.597C268.334 292.355 267.955 290.533 267.416 288.133C266.444 283.801 265.062 278.607 263.272 272.553C261.238 265.138 259.787 259.499 258.92 255.635C258.722 254.757 258.896 253.888 259.441 253.028C259.986 252.167 260.756 251.625 261.751 251.402C265.088 250.653 268.045 250.265 270.622 250.24C271.845 250.211 272.698 250.45 273.181 250.957C273.651 251.405 273.971 252.286 274.144 253.6C273.442 254.311 272.653 254.765 271.775 254.962C271.482 255.028 271.03 255.068 270.418 255.082C269.865 255.084 268.433 255.282 266.124 255.678L265.948 255.717C265.129 255.901 264.818 256.432 265.015 257.31C266.628 265.865 267.566 270.727 267.829 271.898C269.314 277.96 270.463 282.529 271.277 285.606C271.369 286.016 271.51 286.507 271.7 287.079C271.89 287.651 272.001 288.149 272.035 288.572C272.464 291.304 273.014 294.163 273.684 297.149C274.775 302.008 275.626 305.384 276.235 307.276C276.466 308.577 276.458 309.501 276.212 310.048C275.979 310.654 275.394 311.062 274.457 311.273C274.223 311.325 273.566 311.411 272.486 311.531ZM302.94 305.707C301.417 306.049 299.901 305.867 298.389 305.161C296.891 304.513 295.548 303.462 294.36 302.007C291.861 298.817 289.933 295.16 288.576 291.037C287.156 287.175 286.031 283.4 285.203 279.711C285.045 279.009 284.943 278.417 284.896 277.935L284.541 276.355C284.476 276.062 284.414 275.922 284.355 275.935L284 274.355L282.708 268.188C282.345 266.302 281.909 263.263 281.399 259.073C281.06 256.198 281.122 253.324 281.584 250.453C281.731 249.19 282.061 248.194 282.574 247.464C283.073 246.675 283.732 246.189 284.552 246.005C286.894 245.479 289.1 245.445 291.17 245.902C293.228 246.301 295.071 247.117 296.701 248.35C298.2 249.551 299.603 251.142 300.909 253.124C302.202 255.048 303.294 257.17 304.184 259.491C305.087 261.871 305.848 264.437 306.466 267.188L306.623 267.891C307.031 269.706 307.428 271.338 307.816 272.789L309.027 277.774C312.813 294.634 310.784 303.945 302.94 305.707ZM301.76 302.098C302.814 301.861 303.688 301.234 304.382 300.218C305.063 299.142 305.473 297.82 305.613 296.251C306.055 293.016 306.005 289.645 305.463 286.138C305.086 283.087 304.654 280.478 304.167 278.312C303.576 275.678 302.595 272.27 301.226 268.088C299.862 263.66 298.931 260.333 298.431 258.108L298.076 256.528C297.459 254.329 296.265 252.568 294.491 251.245C292.777 249.908 290.924 249.463 288.934 249.91C286.944 250.357 285.883 251.794 285.751 254.222C285.574 256.168 285.807 258.576 286.451 261.444C286.701 262.556 286.94 263.487 287.17 264.234L287.702 266.605L288.434 270.684C288.593 271.94 288.836 273.3 289.165 274.763C289.875 277.924 290.666 281.037 291.538 284.1C292.759 288.438 294.304 292.58 296.174 296.526C298.083 300.648 299.945 302.505 301.76 302.098ZM326.678 299.546C325.39 299.835 324.475 299.457 323.933 298.41C323.541 297.76 323.2 296.791 322.911 295.503C322.346 292.986 321.766 289.857 321.172 286.116C320.676 282.538 320.119 279.373 319.501 276.622C318.804 273.519 317.847 268.845 316.629 262.6L313.689 248.686C313.571 248.159 313.305 247.389 312.893 246.374L312.137 244.238L312.038 243.799C311.736 242.453 311.717 241.411 311.982 240.675C312.248 239.939 312.936 239.447 314.049 239.197C315.571 238.855 317.338 238.919 319.35 239.39C321.362 239.861 322.929 240.677 324.051 241.84C326.379 244.268 328.017 247.59 328.964 251.805C329.673 254.967 330.008 257.689 329.968 259.974C329.914 262.2 329.447 264.365 328.567 266.469C330.489 267.636 331.983 269.36 333.049 271.642C334.16 273.852 335.117 276.743 335.919 280.314C336.721 283.885 336.803 287.126 336.165 290.036C335.43 293.338 333.842 295.847 331.398 297.564C329.891 298.517 328.317 299.178 326.678 299.546ZM321.936 265.283C324.967 264.54 325.694 260.657 324.116 253.632C322.42 246.08 320.333 242.398 317.854 242.585C317.512 244.077 317.9 247.31 319.017 252.286L321.936 265.283ZM327.956 294.555C329.737 293.724 330.951 292.283 331.597 290.232C332.243 288.181 332.303 285.984 331.778 283.642C331.225 281.184 330.593 279.05 329.879 277.243C329.316 275.832 328.725 274.704 328.105 273.859C327.53 272.943 326.829 272.147 326.001 271.472C325.101 270.752 324.163 270.409 323.187 270.444C323.702 273.833 324.578 278.28 325.813 283.782C325.892 284.134 326.083 285.259 326.387 287.159L326.882 290.184C326.908 290.301 326.957 290.382 327.029 290.428L327.068 290.603L327.956 294.555ZM350.34 279.566C349.754 279.698 349.034 279.091 348.178 277.746C347.309 276.342 346.54 274.147 345.869 271.162C345.633 270.108 345.244 268.104 344.704 265.151C344.335 262.958 343.854 260.545 343.263 257.911L339.853 243.549L336.444 229.187C336.233 228.25 336.436 227.374 337.053 226.559C337.656 225.686 338.426 225.144 339.363 224.934C339.948 224.802 340.492 224.896 340.994 225.213C341.495 225.531 341.819 226.012 341.963 226.656C343.12 231.808 344.398 238.869 345.798 247.84C347.349 257.762 348.598 264.83 349.545 269.045C350.242 272.147 350.689 274.415 350.888 275.846C351.131 277.205 351.189 278.146 351.06 278.667C350.989 279.174 350.749 279.474 350.34 279.566ZM352.131 294.937C351.428 295.095 350.683 294.924 349.894 294.425C349.164 293.912 348.694 293.188 348.484 292.251C348.247 291.197 348.395 290.211 348.926 289.292C349.445 288.315 350.201 287.715 351.197 287.491C352.25 287.254 353.191 287.474 354.019 288.149C354.893 288.752 355.467 289.668 355.744 290.898C356.204 292.947 354.999 294.293 352.131 294.937Z" fill="#0E2EB6"/>
</svg>
