<svg width="397" height="97" fill="none" xmlns="http://www.w3.org/2000/svg"><path d="M397 77c0 11.046-8.954 20-20 20H0V20C0 8.954 8.954 0 20 0h357c11.046 0 20 8.954 20 20v57z" fill="#0120A1"/><path d="M57.224 74.792c-1.152 0-2.197-.384-3.136-1.152-.939-.768-1.75-1.813-2.432-3.136-1.237-2.304-2.155-5.461-2.752-9.472-.427-2.773-.747-5.973-.96-9.6l-.064-3.392v-3.456a106.66 106.66 0 01-.064-4.032c0-2.56.107-4.821.32-6.784.17-2.048.597-4.075 1.28-6.08.683-1.75 1.664-2.987 2.944-3.712a5.633 5.633 0 012.304-.512c2.261 0 4.053.896 5.376 2.688a16.596 16.596 0 012.88 6.72c.683 2.987 1.067 5.845 1.152 8.576.17 3.03.256 5.888.256 8.576v3.648c0 .725-.107 2.09-.32 4.096-.17 1.579-.256 2.923-.256 4.032v.256c-.256 1.195-.384 2.603-.384 4.224 0 1.195-.256 2.432-.768 3.712-.512 1.28-1.237 2.368-2.176 3.264-.939 1.024-2.005 1.536-3.2 1.536zm.128-3.52c.853 0 1.579-.79 2.176-2.368.512-1.408.875-3.115 1.088-5.12.256-2.048.47-4.352.64-6.912.085-1.11.128-2.539.128-4.288l-.064-5.888c-.085-2.304-.341-5.184-.768-8.64-.341-2.944-.981-5.547-1.92-7.808-.427-1.067-.96-1.899-1.6-2.496-.64-.597-1.323-.896-2.048-.896-1.067 0-1.856.832-2.368 2.496-.64 1.75-1.067 3.67-1.28 5.76a70.653 70.653 0 00-.448 6.464l-.064 2.112a35.977 35.977 0 00-.064 2.432v.256c0 2.859.299 6.379.896 10.56.683 5.675 1.685 9.707 3.008 12.096.853 1.493 1.75 2.24 2.688 2.24zm19.038 2.176c-.64 0-1.152-.299-1.536-.896-.341-.64-.512-1.408-.512-2.304 0-1.408.085-3.136.256-5.184l.128-1.664.128-3.392c0-1.493-.15-4.821-.448-9.984-.299-5.163-.448-8.49-.448-9.984v-.704c.043-.384.064-.96.064-1.728.043-.853.064-1.899.064-3.136 0-3.115-.213-5.099-.64-5.952-.256 0-.81.064-1.664.192l-1.792.128c-.555 0-1.045-.15-1.472-.448-.427-.341-.64-.768-.64-1.28s.512-.96 1.536-1.344c1.493-.512 4.032-.875 7.616-1.088 1.45-.085 2.325-.128 2.624-.128a2.2 2.2 0 011.408.512c.427.341.64.768.64 1.28s-.192.939-.576 1.28c-.341.299-.79.448-1.344.448l-1.152-.064a9.349 9.349 0 00-1.152-.064h-.64c.299 2.901.448 5.525.448 7.872l-.064 4.096a121.668 121.668 0 00-.064 4.16c0 2.048.085 4.501.256 7.36.213 3.541.32 5.995.32 7.36 0 1.621.085 3.541.256 5.76.17 2.261.256 4.181.256 5.76 0 2.09-.619 3.136-1.856 3.136zm24.622.192c-.683 0-1.152-.128-1.408-.384-.213-.256-.363-.747-.448-1.472l-.576-12.096.064-1.792.064-5.952c0-6.187-.021-10.837-.064-13.952-.043-1.024-.064-3.35-.064-6.976l.064-2.56c0-.47-.085-.747-.256-.832-.17-.128-.64-.235-1.408-.32-.853-.085-1.472-.128-1.856-.128a8.33 8.33 0 00-3.392.704c-.256.597-.405 1.835-.448 3.712a312.07 312.07 0 00-.064 6.912c-.043.64-.021 3.435.064 8.384v5.184c0 .81.085 1.984.256 3.52.17 1.792.256 3.157.256 4.096 0 .597-.043 1.365-.128 2.304l-.064 1.984.32 7.296c0 .597-.17 1.045-.512 1.344-.341.299-.81.427-1.408.384-1.195 0-1.792-.576-1.792-1.728.128-4.48.192-8.981.192-13.504V54.76c-.085-3.328-.17-5.803-.256-7.424-.085-1.28-.17-3.115-.256-5.504-.128-3.37-.277-8.32-.448-14.848 0-.725.15-1.259.448-1.6.341-.384.853-.597 1.536-.64 4.437-.085 7.787-.128 10.048-.128.811 0 1.472.256 1.984.768.555.512.747 1.13.576 1.856-.171 1.024-.256 2.197-.256 3.52 0 .981.021 1.728.064 2.24v1.408c.043.555.043 1.195 0 1.92a79.397 79.397 0 00-.064 3.52c-.085 3.072-.192 5.248-.32 6.528.043.981.085 2.56.128 4.736.085 2.133.171 3.648.256 4.544-.128.81-.192 1.643-.192 2.496 0 .981.128 2.496.384 4.544.171 1.493.277 2.667.32 3.52l.064 1.536c.085 1.365.128 2.368.128 3.008l-.064 1.408c.043.981-.448 1.472-1.472 1.472zm11.754-.32c-.469 0-.853-.192-1.152-.576-.256-.427-.384-.939-.384-1.536l.128-10.752c.128-5.205.192-9.237.192-12.096 0-9.941-.555-17.557-1.664-22.848.64-.981 1.451-1.472 2.432-1.472 1.579 0 3.008.363 4.288 1.088a9.047 9.047 0 013.264 2.816c1.664 2.475 2.496 5.248 2.496 8.32 0 3.2-.683 6.059-2.048 8.576-1.365 2.517-3.349 4.48-5.952 5.888l.128 6.464.128 3.392c.043.725.064 1.77.064 3.136.128 2.859.192 5.184.192 6.976 0 .81-.171 1.45-.512 1.92-.341.47-.875.704-1.6.704zm1.472-25.664c1.664-1.579 2.88-3.221 3.648-4.928.811-1.75 1.216-3.712 1.216-5.888v-.064c0-.981-.107-2.219-.32-3.712a4.943 4.943 0 00-.704-1.536c-.341-.512-.533-.81-.576-.896-.299-.427-1.088-1.088-2.368-1.984l-1.664-1.216c0 2.176.128 5.547.384 10.112l.384 10.112zM141.7 73c-.683 0-1.195-.128-1.536-.384-.299-.256-.448-.683-.448-1.28v-8.384c-.555-.384-1.6-.725-3.136-1.024a33.964 33.964 0 00-4.352-.576c-.47.896-.811 1.984-1.024 3.264l-.256 1.28c-.043.299-.171.96-.384 1.984a24.317 24.317 0 01-.704 2.688c-.256.725-.512 1.301-.768 1.728-1.622 0-2.56-.427-2.816-1.28.469-.683 1.002-2.688 1.6-6.016l2.112-11.712c.938-5.547 1.792-10.283 2.56-14.208.81-3.925 1.664-7.21 2.56-9.856.981-2.944 1.92-4.416 2.816-4.416.896 0 1.578.17 2.048.512 0 1.707.405 5.824 1.216 12.352.853 6.4 1.28 10.773 1.28 13.12 0 2.261.234 5.504.704 9.728.426 4.31.64 7.744.64 10.304 0 1.45-.704 2.176-2.112 2.176zm-3.328-13.76c.341 0 .768-.064 1.28-.192-.128-1.877-.342-4.203-.64-6.976-.982-9.643-1.472-15.552-1.472-17.728v-.512c-.427.427-1.024 2.368-1.792 5.824a234.298 234.298 0 00-2.048 11.008c-.64 3.925-.982 6.528-1.024 7.808 1.792.512 3.69.768 5.696.768zm16.039 14.272c-1.963 0-2.944-.533-2.944-1.6l.128-7.872.128-7.872c0-2.859-.064-7.19-.192-12.992-.128-5.76-.192-10.09-.192-12.992V29.8c0-1.11.106-2.133.32-3.072.256-1.152.938-1.728 2.048-1.728 2.986 0 5.354.96 7.104 2.88 1.749 1.92 2.624 4.459 2.624 7.616 0 1.92-.512 3.925-1.536 6.016-1.024 2.09-2.24 3.648-3.648 4.672 2.474 1.664 4.288 3.819 5.44 6.464 1.194 2.603 1.792 5.483 1.792 8.64 0 1.493-.512 3.35-1.536 5.568-1.238 2.645-2.923 4.544-5.056 5.696-1.28.64-2.688.96-4.224.96h-.256zm.64-28.288c1.109-.256 2.048-1.173 2.816-2.752.64-1.195 1.237-2.645 1.792-4.352.128-.47.341-1.067.64-1.792v-2.24c0-1.28-.47-2.517-1.408-3.712-.939-1.195-2.006-1.792-3.2-1.792-.598 0-.896.661-.896 1.984 0 2.816.042 5.333.128 7.552l.128 7.104zm.256 24.96c2.09-.299 3.754-1.259 4.992-2.88 1.237-1.621 1.856-3.563 1.856-5.824 0-1.963-.171-3.755-.512-5.376-.299-1.664-.704-2.923-1.216-3.776-.47-.81-.939-1.493-1.408-2.048-.47-.555-.875-.917-1.216-1.088l-.512-.192h-2.304c.213 4.907.32 11.968.32 21.184zm18.717 3.456c-.64 0-1.216-.277-1.728-.832-.512-.555-.747-1.173-.704-1.856.128-2.176.192-4.395.192-6.656 0-1.963-.043-4.95-.128-8.96-.043-1.835-.192-4.587-.448-8.256a1143.1 1143.1 0 00-.192-3.136c-.086-1.408-.15-2.645-.192-3.712-.043-.725-.064-1.813-.064-3.264l.064-6.528c0-.384-.043-.917-.128-1.6l-.064-1.472c0-.683.17-1.216.512-1.6.384-.384.874-.576 1.472-.576 1.237 0 1.941.576 2.112 1.728.17 1.28.256 2.24.256 2.88 0 .768-.064 1.536-.192 2.304-.214 1.579-.32 3.008-.32 4.288l.064 1.92c.17 3.925.256 7.53.256 10.816v7.616c0 1.323.042 3.307.128 5.952l.384.064.768-2.496c1.28-4.31 2.496-8.235 3.648-11.776.597-1.664 1.237-4.245 1.92-7.744.298-1.536.576-2.773.832-3.712l3.2-11.52c.298-.555.661-.96 1.088-1.216.426-.299.853-.427 1.28-.384.512.128 1.002.49 1.472 1.088.469.555.682 1.11.64 1.664a46.092 46.092 0 01-.384 4.672c-.384 5.333-.598 8.683-.64 10.048-.171 5.717-.256 10.005-.256 12.864 0 1.365.106 3.52.32 6.464.213 2.901.341 4.821.384 5.76l.256 3.2c.042.896-.171 1.6-.64 2.112-.47.512-1.088.768-1.856.768-.47 0-.875-.15-1.216-.448-.342-.341-.534-.79-.576-1.344v-.576l.064-12.864v-2.304c-.086-2.219-.171-5.632-.256-10.24v-6.848c-.043-.043-.15-.064-.32-.064-.256.043-.64 1.024-1.152 2.944a216.65 216.65 0 00-1.344 5.696 237.204 237.204 0 01-.832 3.584c-.384 1.835-.619 2.88-.704 3.136-1.195 4.053-2.155 7.445-2.88 10.176a87.093 87.093 0 00-1.792 8.192c-.256 1.365-1.024 2.048-2.304 2.048zm28.991-.192c-.64 0-1.152-.299-1.536-.896-.341-.64-.512-1.408-.512-2.304 0-1.408.085-3.136.256-5.184l.128-1.664.128-3.392c0-1.493-.149-4.821-.448-9.984-.299-5.163-.448-8.49-.448-9.984v-.704c.043-.384.064-.96.064-1.728.043-.853.064-1.899.064-3.136 0-3.115-.213-5.099-.64-5.952-.256 0-.811.064-1.664.192l-1.792.128c-.555 0-1.045-.15-1.472-.448-.427-.341-.64-.768-.64-1.28s.512-.96 1.536-1.344c1.493-.512 4.032-.875 7.616-1.088 1.451-.085 2.325-.128 2.624-.128a2.2 2.2 0 011.408.512c.427.341.64.768.64 1.28s-.192.939-.576 1.28c-.341.299-.789.448-1.344.448l-1.152-.064a9.342 9.342 0 00-1.152-.064h-.64c.299 2.901.448 5.525.448 7.872l-.064 4.096a120.902 120.902 0 00-.064 4.16c0 2.048.085 4.501.256 7.36.213 3.541.32 5.995.32 7.36 0 1.621.085 3.541.256 5.76.171 2.261.256 4.181.256 5.76 0 2.09-.619 3.136-1.856 3.136zM217.333 73c-.725.043-1.408-.235-2.048-.832-.597-.597-.896-1.28-.896-2.048v-2.112c0-3.03.021-5.227.064-6.592v-2.624c.043-.896.043-1.557 0-1.984-.213-1.28-.32-2.859-.32-4.736l.064-3.648c.043-1.152.021-2.88-.064-5.184l-.064-1.792V28.712c-.043-1.152.043-2.048.256-2.688.256-.683.704-1.024 1.344-1.024.683 0 1.152.277 1.408.832.256.512.384 1.237.384 2.176l-.064 1.984-.704 11.264.064 4.224c1.493-.043 2.944.363 4.352 1.216 2.517 1.195 4.352 2.901 5.504 5.12a14.564 14.564 0 011.728 6.912c0 1.408-.149 2.859-.448 4.352-.299 1.493-.704 2.816-1.216 3.968-.853 1.877-2.091 3.307-3.712 4.288-1.579.981-3.456 1.536-5.632 1.664zm.832-3.2c1.152 0 2.155-.427 3.008-1.28 1.28-1.323 2.261-2.901 2.944-4.736a15.864 15.864 0 001.088-5.76c0-2.219-.427-4.139-1.28-5.76-.811-1.621-2.24-2.923-4.288-3.904-.683-.341-1.323-.512-1.92-.512-.299 0-.64.064-1.024.192l1.152 16.832.32 4.928zm36.184 4.992c-1.152 0-2.197-.384-3.136-1.152-.939-.768-1.749-1.813-2.432-3.136-1.237-2.304-2.155-5.461-2.752-9.472-.427-2.773-.747-5.973-.96-9.6l-.064-3.392v-3.456a106.66 106.66 0 01-.064-4.032c0-2.56.107-4.821.32-6.784a25.335 25.335 0 011.28-6.08c.683-1.75 1.664-2.987 2.944-3.712a5.633 5.633 0 012.304-.512c2.261 0 4.053.896 5.376 2.688a16.587 16.587 0 012.88 6.72c.683 2.987 1.067 5.845 1.152 8.576.171 3.03.256 5.888.256 8.576v3.648c0 .725-.107 2.09-.32 4.096-.171 1.579-.256 2.923-.256 4.032v.256c-.256 1.195-.384 2.603-.384 4.224 0 1.195-.256 2.432-.768 3.712-.512 1.28-1.237 2.368-2.176 3.264-.939 1.024-2.005 1.536-3.2 1.536zm.128-3.52c.853 0 1.579-.79 2.176-2.368.512-1.408.875-3.115 1.088-5.12.256-2.048.469-4.352.64-6.912.085-1.11.128-2.539.128-4.288l-.064-5.888c-.085-2.304-.341-5.184-.768-8.64-.341-2.944-.981-5.547-1.92-7.808-.427-1.067-.96-1.899-1.6-2.496-.64-.597-1.323-.896-2.048-.896-1.067 0-1.856.832-2.368 2.496-.64 1.75-1.067 3.67-1.28 5.76a70.76 70.76 0 00-.448 6.464l-.064 2.112a35.778 35.778 0 00-.064 2.432v.256c0 2.859.299 6.379.896 10.56.683 5.675 1.685 9.707 3.008 12.096.853 1.493 1.749 2.24 2.688 2.24zm19.038 2.176c-.64 0-1.152-.299-1.536-.896-.341-.64-.512-1.408-.512-2.304 0-1.408.085-3.136.256-5.184l.128-1.664.128-3.392c0-1.493-.149-4.821-.448-9.984-.299-5.163-.448-8.49-.448-9.984v-.704c.043-.384.064-.96.064-1.728.043-.853.064-1.899.064-3.136 0-3.115-.213-5.099-.64-5.952-.256 0-.811.064-1.664.192l-1.792.128c-.555 0-1.045-.15-1.472-.448-.427-.341-.64-.768-.64-1.28s.512-.96 1.536-1.344c1.493-.512 4.032-.875 7.616-1.088 1.451-.085 2.325-.128 2.624-.128a2.2 2.2 0 011.408.512c.427.341.64.768.64 1.28s-.192.939-.576 1.28c-.341.299-.789.448-1.344.448l-1.152-.064a9.342 9.342 0 00-1.152-.064h-.64c.299 2.901.448 5.525.448 7.872l-.064 4.096a120.902 120.902 0 00-.064 4.16c0 2.048.085 4.501.256 7.36.213 3.541.32 5.995.32 7.36 0 1.621.085 3.541.256 5.76.171 2.261.256 4.181.256 5.76 0 2.09-.619 3.136-1.856 3.136zm17.71.064c-1.493-.17-2.56-.939-3.2-2.304-.256-.512-.427-.896-.512-1.152-.427-.853-.747-1.6-.96-2.24a6.242 6.242 0 01-.32-1.984l.064-.704c.043-.47.171-.875.384-1.216.213-.341.491-.555.832-.64.469-.085.939.043 1.408.384.512.299.832.683.96 1.152.171.427.341 1.024.512 1.792a21.471 21.471 0 001.024 3.328c.256.555.683.832 1.28.832.171 0 .427-.043.768-.128 1.536-.64 2.581-1.6 3.136-2.88 1.024-2.475 1.536-4.864 1.536-7.168 0-.896-.107-1.941-.32-3.136-.043-.427-.085-.832-.128-1.216l-.128-1.28c-.213-1.45-.704-2.603-1.472-3.456-.768-.853-1.877-1.472-3.328-1.856-.128-.043-.469-.107-1.024-.192-.555-.128-1.024-.341-1.408-.64a1.663 1.663 0 01-.512-1.216c-.085-1.195.875-2.005 2.88-2.432 1.109-.299 2.005-.96 2.688-1.984 1.621-1.493 2.432-3.67 2.432-6.528 0-1.707-.277-3.456-.832-5.248-.256-.981-.832-1.728-1.728-2.24a5.376 5.376 0 00-2.88-.832c-1.451 0-2.667.619-3.648 1.856-.171.213-.469.661-.896 1.344-.725 1.195-1.237 1.899-1.536 2.112-.341.341-.683.512-1.024.512-.512 0-.917-.128-1.216-.384a1.81 1.81 0 01-.448-.96c-.043-.17-.064-.427-.064-.768 0-1.408.405-2.688 1.216-3.84a9.481 9.481 0 013.2-2.752c1.323-.683 2.624-1.024 3.904-1.024 1.493 0 3.051.405 4.672 1.216 2.261 1.11 3.648 2.88 4.16 5.312a18.23 18.23 0 01.448 4.032c0 1.877-.277 3.797-.832 5.76-.512 1.963-1.621 3.84-3.328 5.632l-1.28.576c1.408.299 2.667 1.323 3.776 3.072 1.109 1.75 1.664 3.499 1.664 5.248 0 .725.064 1.45.192 2.176.085.768.128 1.301.128 1.6.043.427.064 1.045.064 1.856 0 2.432-.341 4.672-1.024 6.72-1.28 4.053-3.712 6.08-7.296 6.08-.597 0-1.259-.064-1.984-.192zm35.631-3.136c.085.427.128.725.128.896 0 .47-.107.875-.32 1.216-.214.299-.512.47-.896.512-.768.043-1.344-.085-1.728-.384-.342-.299-.534-.875-.576-1.728L323.4 68.2c0-1.152-.043-2.923-.128-5.312-.086-2.987-.171-5.227-.256-6.72l-.32-9.92c-.086-4.139-.171-7.275-.256-9.408l-.128-3.84v-6.784c.042-.512.17-.96.384-1.344.256-.384.597-.576 1.024-.576.341 0 .661.085.96.256.512.256.832.619.96 1.088.128.427.17.96.128 1.6v8.384a809.632 809.632 0 00-.256 11.136c.042.043.085.576.128 1.6.042 1.024.085 2.816.128 5.376.256 3.2.405 5.525.448 6.976.17 5.29.384 8.512.64 9.664zm-8.768-19.712c.469.896.853 2.283 1.152 4.16.298 1.877.448 3.477.448 4.8 0 1.92-.47 4.032-1.408 6.336-.896 2.304-2.091 4.032-3.584 5.184-.854.597-1.558 1.003-2.112 1.216-.512.17-1.28.32-2.304.448a5.989 5.989 0 01-.96.064c-.683 0-1.238-.107-1.664-.32-.384-.256-.619-.576-.704-.96 0-2.219.064-4.31.192-6.272a127.6 127.6 0 00.256-7.616c0-3.115-.107-6.464-.32-10.048a294.672 294.672 0 01-.256-4.8 232.532 232.532 0 00-.128-4.288l-.064-2.944c0-1.92.042-4.843.128-8.768.042-.597.277-1.067.704-1.408.469-.341 1.024-.47 1.664-.384.597.085 1.066.363 1.408.832.384.427.512.917.384 1.472-.427 1.792-.64 4.267-.64 7.424 0 1.11-.022 1.941-.064 2.496a23.659 23.659 0 00-.064 1.92c0 .725-.022 1.45-.064 2.176l-.064 3.968a5.503 5.503 0 011.024-.128c1.322 0 2.624.555 3.904 1.664a12.084 12.084 0 013.136 3.776zm-3.136 16.768c.597-1.365 1.045-2.667 1.344-3.904.341-1.237.512-2.624.512-4.16 0-2.73-.747-5.547-2.24-8.448-1.11-2.133-2.56-3.072-4.352-2.816l.192 12.544c.085.853.128 2.453.128 4.8 0 .981-.022 1.557-.064 1.728-.086.427-.128.725-.128.896 0 .555.128 1.088.384 1.6a73.22 73.22 0 001.472-.448 13.778 13.778 0 001.728-.768c.469-.299.81-.64 1.024-1.024zm23.084 6.08c-1.963 0-2.944-.533-2.944-1.6l.128-7.872.128-7.872c0-2.859-.064-7.19-.192-12.992-.128-5.76-.192-10.09-.192-12.992V29.8c0-1.11.106-2.133.32-3.072.256-1.152.938-1.728 2.048-1.728 2.986 0 5.354.96 7.104 2.88 1.749 1.92 2.624 4.459 2.624 7.616 0 1.92-.512 3.925-1.536 6.016-1.024 2.09-2.24 3.648-3.648 4.672 2.474 1.664 4.288 3.819 5.44 6.464 1.194 2.603 1.792 5.483 1.792 8.64 0 1.493-.512 3.35-1.536 5.568-1.238 2.645-2.923 4.544-5.056 5.696-1.28.64-2.688.96-4.224.96h-.256zm.64-28.288c1.109-.256 2.048-1.173 2.816-2.752.64-1.195 1.237-2.645 1.792-4.352.128-.47.341-1.067.64-1.792v-2.24c0-1.28-.47-2.517-1.408-3.712-.939-1.195-2.006-1.792-3.2-1.792-.598 0-.896.661-.896 1.984 0 2.816.042 5.333.128 7.552l.128 7.104zm.256 24.96c2.09-.299 3.754-1.259 4.992-2.88 1.237-1.621 1.856-3.563 1.856-5.824 0-1.963-.171-3.755-.512-5.376-.299-1.664-.704-2.923-1.216-3.776-.47-.81-.939-1.493-1.408-2.048-.47-.555-.875-.917-1.216-1.088l-.512-.192h-2.304c.213 4.907.32 11.968.32 21.184z" fill="#fff"/></svg>