<svg width="397" height="97" viewBox="0 0 397 97" fill="none" xmlns="http://www.w3.org/2000/svg">
<path d="M397 77C397 88.0457 388.046 97 377 97H0V20C0 8.95431 8.95431 0 20 0H377C388.046 0 397 8.95431 397 20V77Z" fill="#0120A1"/>
<path d="M57.224 74.792C56.072 74.792 55.0267 74.408 54.088 73.64C53.1493 72.872 52.3387 71.8267 51.656 70.504C50.4187 68.2 49.5013 65.0427 48.904 61.032C48.4773 58.2587 48.1573 55.0587 47.944 51.432L47.88 48.04V44.584C47.8373 43.4747 47.816 42.1307 47.816 40.552C47.816 37.992 47.9227 35.7307 48.136 33.768C48.3067 31.72 48.7333 29.6933 49.416 27.688C50.0987 25.9387 51.08 24.7013 52.36 23.976C53.128 23.6347 53.896 23.464 54.664 23.464C56.9253 23.464 58.7173 24.36 60.04 26.152C61.4907 28.1573 62.4507 30.3973 62.92 32.872C63.6027 35.8587 63.9867 38.7173 64.072 41.448C64.2427 44.4773 64.328 47.336 64.328 50.024V53.672C64.328 54.3973 64.2213 55.7627 64.008 57.768C63.8373 59.3467 63.752 60.6907 63.752 61.8V62.056C63.496 63.2507 63.368 64.6587 63.368 66.28C63.368 67.4747 63.112 68.712 62.6 69.992C62.088 71.272 61.3627 72.36 60.424 73.256C59.4853 74.28 58.4187 74.792 57.224 74.792ZM57.352 71.272C58.2053 71.272 58.9307 70.4827 59.528 68.904C60.04 67.496 60.4027 65.7893 60.616 63.784C60.872 61.736 61.0853 59.432 61.256 56.872C61.3413 55.7627 61.384 54.3333 61.384 52.584L61.32 46.696C61.2347 44.392 60.9787 41.512 60.552 38.056C60.2107 35.112 59.5707 32.5093 58.632 30.248C58.2053 29.1813 57.672 28.3493 57.032 27.752C56.392 27.1547 55.7093 26.856 54.984 26.856C53.9173 26.856 53.128 27.688 52.616 29.352C51.976 31.1013 51.5493 33.0213 51.336 35.112C51.08 37.3733 50.9307 39.528 50.888 41.576L50.824 43.688C50.7813 44.2853 50.76 45.096 50.76 46.12V46.376C50.76 49.2347 51.0587 52.7547 51.656 56.936C52.3387 62.6107 53.3413 66.6427 54.664 69.032C55.5173 70.5253 56.4133 71.272 57.352 71.272ZM76.39 73.448C75.75 73.448 75.238 73.1493 74.854 72.552C74.5127 71.912 74.342 71.144 74.342 70.248C74.342 68.84 74.4273 67.112 74.598 65.064L74.726 63.4L74.854 60.008C74.854 58.5147 74.7047 55.1867 74.406 50.024C74.1073 44.8613 73.958 41.5333 73.958 40.04C73.958 39.912 73.958 39.6773 73.958 39.336C74.0007 38.952 74.022 38.376 74.022 37.608C74.0647 36.7547 74.086 35.7093 74.086 34.472C74.086 31.3573 73.8727 29.3733 73.446 28.52C73.19 28.52 72.6353 28.584 71.782 28.712L69.99 28.84C69.4353 28.84 68.9447 28.6907 68.518 28.392C68.0913 28.0507 67.878 27.624 67.878 27.112C67.878 26.6 68.39 26.152 69.414 25.768C70.9073 25.256 73.446 24.8933 77.03 24.68C78.4807 24.5947 79.3553 24.552 79.654 24.552C80.166 24.552 80.6353 24.7227 81.062 25.064C81.4887 25.4053 81.702 25.832 81.702 26.344C81.702 26.856 81.51 27.2827 81.126 27.624C80.7847 27.9227 80.3367 28.072 79.782 28.072L78.63 28.008C78.2887 27.9653 77.9047 27.944 77.478 27.944H76.838C77.1367 30.8453 77.286 33.4693 77.286 35.816L77.222 39.912C77.1793 41.1493 77.158 42.536 77.158 44.072C77.158 46.12 77.2433 48.5733 77.414 51.432C77.6273 54.9733 77.734 57.4267 77.734 58.792C77.734 60.4133 77.8193 62.3333 77.99 64.552C78.1607 66.8133 78.246 68.7333 78.246 70.312C78.246 72.4027 77.6273 73.448 76.39 73.448ZM101.012 73.64C100.329 73.64 99.86 73.512 99.604 73.256C99.3907 73 99.2413 72.5093 99.156 71.784L98.58 59.688L98.644 57.896L98.708 51.944C98.708 45.7573 98.6867 41.1067 98.644 37.992C98.6013 36.968 98.58 34.6427 98.58 31.016L98.644 28.456C98.644 27.9867 98.5587 27.7093 98.388 27.624C98.2173 27.496 97.748 27.3893 96.98 27.304C96.1267 27.2187 95.508 27.176 95.124 27.176C93.9293 27.176 92.7987 27.4107 91.732 27.88C91.476 28.4773 91.3267 29.7147 91.284 31.592C91.2413 33.4693 91.22 35.7733 91.22 38.504C91.1773 39.144 91.1987 41.9387 91.284 46.888V52.072C91.284 52.8827 91.3693 54.056 91.54 55.592C91.7107 57.384 91.796 58.7493 91.796 59.688C91.796 60.2853 91.7533 61.0533 91.668 61.992L91.604 63.976L91.924 71.272C91.924 71.8693 91.7533 72.3173 91.412 72.616C91.0707 72.9147 90.6013 73.0427 90.004 73C88.8093 73 88.212 72.424 88.212 71.272C88.34 66.792 88.404 62.2907 88.404 57.768V54.76C88.3187 51.432 88.2333 48.9573 88.148 47.336C88.0627 46.056 87.9773 44.2213 87.892 41.832C87.764 38.4613 87.6147 33.512 87.444 26.984C87.444 26.2587 87.5933 25.7253 87.892 25.384C88.2333 25 88.7453 24.7867 89.428 24.744C93.8653 24.6587 97.2147 24.616 99.476 24.616C100.287 24.616 100.948 24.872 101.46 25.384C102.015 25.896 102.207 26.5147 102.036 27.24C101.865 28.264 101.78 29.4373 101.78 30.76C101.78 31.7413 101.801 32.488 101.844 33C101.844 33.384 101.844 33.8533 101.844 34.408C101.887 34.9627 101.887 35.6027 101.844 36.328C101.801 37.2667 101.78 38.44 101.78 39.848C101.695 42.92 101.588 45.096 101.46 46.376C101.503 47.3573 101.545 48.936 101.588 51.112C101.673 53.2453 101.759 54.76 101.844 55.656C101.716 56.4667 101.652 57.2987 101.652 58.152C101.652 59.1333 101.78 60.648 102.036 62.696C102.207 64.1893 102.313 65.3627 102.356 66.216L102.42 67.752C102.505 69.1173 102.548 70.12 102.548 70.76L102.484 72.168C102.527 73.1493 102.036 73.64 101.012 73.64ZM112.766 73.32C112.297 73.32 111.913 73.128 111.614 72.744C111.358 72.3173 111.23 71.8053 111.23 71.208L111.358 60.456C111.486 55.2507 111.55 51.2187 111.55 48.36C111.55 38.4187 110.995 30.8027 109.886 25.512C110.526 24.5307 111.337 24.04 112.318 24.04C113.897 24.04 115.326 24.4027 116.606 25.128C117.929 25.8107 119.017 26.7493 119.87 27.944C121.534 30.4187 122.366 33.192 122.366 36.264C122.366 39.464 121.683 42.3227 120.318 44.84C118.953 47.3573 116.969 49.32 114.366 50.728L114.494 57.192L114.622 60.584C114.665 61.3093 114.686 62.3547 114.686 63.72C114.814 66.5787 114.878 68.904 114.878 70.696C114.878 71.5067 114.707 72.1467 114.366 72.616C114.025 73.0853 113.491 73.32 112.766 73.32ZM114.238 47.656C115.902 46.0773 117.118 44.4347 117.886 42.728C118.697 40.9787 119.102 39.016 119.102 36.84V36.776C119.102 35.7947 118.995 34.5573 118.782 33.064C118.654 32.552 118.419 32.04 118.078 31.528C117.737 31.016 117.545 30.7173 117.502 30.632C117.203 30.2053 116.414 29.544 115.134 28.648L113.47 27.432C113.47 29.608 113.598 32.9787 113.854 37.544L114.238 47.656ZM141.7 73C141.017 73 140.505 72.872 140.164 72.616C139.865 72.36 139.716 71.9333 139.716 71.336V62.952C139.161 62.568 138.116 62.2267 136.58 61.928C135.044 61.6293 133.593 61.4373 132.228 61.352C131.758 62.248 131.417 63.336 131.204 64.616L130.948 65.896C130.905 66.1947 130.777 66.856 130.564 67.88C130.35 68.904 130.116 69.8 129.86 70.568C129.604 71.2933 129.348 71.8693 129.092 72.296C127.47 72.296 126.532 71.8693 126.276 71.016C126.745 70.3333 127.278 68.328 127.876 65L129.988 53.288C130.926 47.7413 131.78 43.0053 132.548 39.08C133.358 35.1547 134.212 31.8693 135.108 29.224C136.089 26.28 137.028 24.808 137.924 24.808C138.82 24.808 139.502 24.9787 139.972 25.32C139.972 27.0267 140.377 31.144 141.188 37.672C142.041 44.072 142.468 48.4453 142.468 50.792C142.468 53.0533 142.702 56.296 143.172 60.52C143.598 64.8293 143.812 68.264 143.812 70.824C143.812 72.2747 143.108 73 141.7 73ZM138.372 59.24C138.713 59.24 139.14 59.176 139.652 59.048C139.524 57.1707 139.31 54.8453 139.012 52.072C138.03 42.4293 137.54 36.52 137.54 34.344V33.832C137.113 34.2587 136.516 36.2 135.748 39.656C135.022 43.0693 134.34 46.7387 133.7 50.664C133.06 54.5893 132.718 57.192 132.676 58.472C134.468 58.984 136.366 59.24 138.372 59.24ZM154.411 73.512C152.448 73.512 151.467 72.9787 151.467 71.912L151.595 64.04L151.723 56.168C151.723 53.3093 151.659 48.9787 151.531 43.176C151.403 37.416 151.339 33.0853 151.339 30.184V29.8C151.339 28.6907 151.445 27.6667 151.659 26.728C151.915 25.576 152.597 25 153.707 25C156.693 25 159.061 25.96 160.811 27.88C162.56 29.8 163.435 32.3387 163.435 35.496C163.435 37.416 162.923 39.4213 161.899 41.512C160.875 43.6027 159.659 45.16 158.251 46.184C160.725 47.848 162.539 50.0027 163.691 52.648C164.885 55.2507 165.483 58.1307 165.483 61.288C165.483 62.7813 164.971 64.6373 163.947 66.856C162.709 69.5013 161.024 71.4 158.891 72.552C157.611 73.192 156.203 73.512 154.667 73.512H154.411ZM155.051 45.224C156.16 44.968 157.099 44.0507 157.867 42.472C158.507 41.2773 159.104 39.8267 159.659 38.12C159.787 37.6507 160 37.0533 160.299 36.328V34.088C160.299 32.808 159.829 31.5707 158.891 30.376C157.952 29.1813 156.885 28.584 155.691 28.584C155.093 28.584 154.795 29.2453 154.795 30.568C154.795 33.384 154.837 35.9013 154.923 38.12L155.051 45.224ZM155.307 70.184C157.397 69.8853 159.061 68.9253 160.299 67.304C161.536 65.6827 162.155 63.7413 162.155 61.48C162.155 59.5173 161.984 57.7253 161.643 56.104C161.344 54.44 160.939 53.1813 160.427 52.328C159.957 51.5173 159.488 50.8347 159.019 50.28C158.549 49.7253 158.144 49.3627 157.803 49.192L157.291 49H154.987C155.2 53.9067 155.307 60.968 155.307 70.184ZM174.024 73.64C173.384 73.64 172.808 73.3627 172.296 72.808C171.784 72.2533 171.549 71.6347 171.592 70.952C171.72 68.776 171.784 66.5573 171.784 64.296C171.784 62.3333 171.741 59.3467 171.656 55.336C171.613 53.5013 171.464 50.7493 171.208 47.08C171.165 46.3547 171.101 45.3093 171.016 43.944C170.93 42.536 170.866 41.2987 170.824 40.232C170.781 39.5067 170.76 38.4187 170.76 36.968L170.824 30.44C170.824 30.056 170.781 29.5227 170.696 28.84L170.632 27.368C170.632 26.6853 170.802 26.152 171.144 25.768C171.528 25.384 172.018 25.192 172.616 25.192C173.853 25.192 174.557 25.768 174.728 26.92C174.898 28.2 174.984 29.16 174.984 29.8C174.984 30.568 174.92 31.336 174.792 32.104C174.578 33.6827 174.472 35.112 174.472 36.392L174.536 38.312C174.706 42.2373 174.792 45.8427 174.792 49.128V56.744C174.792 58.0667 174.834 60.0507 174.92 62.696L175.304 62.76L176.072 60.264C177.352 55.9547 178.568 52.0293 179.72 48.488C180.317 46.824 180.957 44.2427 181.64 40.744C181.938 39.208 182.216 37.9707 182.472 37.032L185.672 25.512C185.97 24.9573 186.333 24.552 186.76 24.296C187.186 23.9973 187.613 23.8693 188.04 23.912C188.552 24.04 189.042 24.4027 189.512 25C189.981 25.5547 190.194 26.1093 190.152 26.664C190.109 28.1573 189.981 29.7147 189.768 31.336C189.384 36.6693 189.17 40.0187 189.128 41.384C188.957 47.1013 188.872 51.3893 188.872 54.248C188.872 55.6133 188.978 57.768 189.192 60.712C189.405 63.6133 189.533 65.5333 189.576 66.472L189.832 69.672C189.874 70.568 189.661 71.272 189.192 71.784C188.722 72.296 188.104 72.552 187.336 72.552C186.866 72.552 186.461 72.4027 186.12 72.104C185.778 71.7627 185.586 71.3147 185.544 70.76V70.184L185.608 57.32V55.016C185.522 52.7973 185.437 49.384 185.352 44.776V42.152V37.928C185.309 37.8853 185.202 37.864 185.032 37.864C184.776 37.9067 184.392 38.888 183.88 40.808C183.41 42.6853 182.962 44.584 182.536 46.504C182.109 48.3813 181.832 49.576 181.704 50.088C181.32 51.9227 181.085 52.968 181 53.224C179.805 57.2773 178.845 60.6693 178.12 63.4C177.394 66.088 176.797 68.8187 176.328 71.592C176.072 72.9573 175.304 73.64 174.024 73.64ZM203.015 73.448C202.375 73.448 201.863 73.1493 201.479 72.552C201.138 71.912 200.967 71.144 200.967 70.248C200.967 68.84 201.052 67.112 201.223 65.064L201.351 63.4L201.479 60.008C201.479 58.5147 201.33 55.1867 201.031 50.024C200.732 44.8613 200.583 41.5333 200.583 40.04C200.583 39.912 200.583 39.6773 200.583 39.336C200.626 38.952 200.647 38.376 200.647 37.608C200.69 36.7547 200.711 35.7093 200.711 34.472C200.711 31.3573 200.498 29.3733 200.071 28.52C199.815 28.52 199.26 28.584 198.407 28.712L196.615 28.84C196.06 28.84 195.57 28.6907 195.143 28.392C194.716 28.0507 194.503 27.624 194.503 27.112C194.503 26.6 195.015 26.152 196.039 25.768C197.532 25.256 200.071 24.8933 203.655 24.68C205.106 24.5947 205.98 24.552 206.279 24.552C206.791 24.552 207.26 24.7227 207.687 25.064C208.114 25.4053 208.327 25.832 208.327 26.344C208.327 26.856 208.135 27.2827 207.751 27.624C207.41 27.9227 206.962 28.072 206.407 28.072L205.255 28.008C204.914 27.9653 204.53 27.944 204.103 27.944H203.463C203.762 30.8453 203.911 33.4693 203.911 35.816L203.847 39.912C203.804 41.1493 203.783 42.536 203.783 44.072C203.783 46.12 203.868 48.5733 204.039 51.432C204.252 54.9733 204.359 57.4267 204.359 58.792C204.359 60.4133 204.444 62.3333 204.615 64.552C204.786 66.8133 204.871 68.7333 204.871 70.312C204.871 72.4027 204.252 73.448 203.015 73.448ZM217.333 73C216.608 73.0427 215.925 72.7653 215.285 72.168C214.688 71.5707 214.389 70.888 214.389 70.12V68.008C214.389 64.9787 214.41 62.7813 214.453 61.416C214.453 60.52 214.453 59.6453 214.453 58.792C214.496 57.896 214.496 57.2347 214.453 56.808C214.24 55.528 214.133 53.9493 214.133 52.072L214.197 48.424C214.24 47.272 214.218 45.544 214.133 43.24L214.069 41.448V28.712C214.026 27.56 214.112 26.664 214.325 26.024C214.581 25.3413 215.029 25 215.669 25C216.352 25 216.821 25.2773 217.077 25.832C217.333 26.344 217.461 27.0693 217.461 28.008L217.397 29.992L216.693 41.256L216.757 45.48C218.25 45.4373 219.701 45.8427 221.109 46.696C223.626 47.8907 225.461 49.5973 226.613 51.816C227.765 53.992 228.341 56.296 228.341 58.728C228.341 60.136 228.192 61.5867 227.893 63.08C227.594 64.5733 227.189 65.896 226.677 67.048C225.824 68.9253 224.586 70.3547 222.965 71.336C221.386 72.3173 219.509 72.872 217.333 73ZM218.165 69.8C219.317 69.8 220.32 69.3733 221.173 68.52C222.453 67.1973 223.434 65.6187 224.117 63.784C224.842 61.9067 225.205 59.9867 225.205 58.024C225.205 55.8053 224.778 53.8853 223.925 52.264C223.114 50.6427 221.685 49.3413 219.637 48.36C218.954 48.0187 218.314 47.848 217.717 47.848C217.418 47.848 217.077 47.912 216.693 48.04L217.845 64.872L218.165 69.8ZM254.349 74.792C253.197 74.792 252.152 74.408 251.213 73.64C250.274 72.872 249.464 71.8267 248.781 70.504C247.544 68.2 246.626 65.0427 246.029 61.032C245.602 58.2587 245.282 55.0587 245.069 51.432L245.005 48.04V44.584C244.962 43.4747 244.941 42.1307 244.941 40.552C244.941 37.992 245.048 35.7307 245.261 33.768C245.432 31.72 245.858 29.6933 246.541 27.688C247.224 25.9387 248.205 24.7013 249.485 23.976C250.253 23.6347 251.021 23.464 251.789 23.464C254.05 23.464 255.842 24.36 257.165 26.152C258.616 28.1573 259.576 30.3973 260.045 32.872C260.728 35.8587 261.112 38.7173 261.197 41.448C261.368 44.4773 261.453 47.336 261.453 50.024V53.672C261.453 54.3973 261.346 55.7627 261.133 57.768C260.962 59.3467 260.877 60.6907 260.877 61.8V62.056C260.621 63.2507 260.493 64.6587 260.493 66.28C260.493 67.4747 260.237 68.712 259.725 69.992C259.213 71.272 258.488 72.36 257.549 73.256C256.61 74.28 255.544 74.792 254.349 74.792ZM254.477 71.272C255.33 71.272 256.056 70.4827 256.653 68.904C257.165 67.496 257.528 65.7893 257.741 63.784C257.997 61.736 258.21 59.432 258.381 56.872C258.466 55.7627 258.509 54.3333 258.509 52.584L258.445 46.696C258.36 44.392 258.104 41.512 257.677 38.056C257.336 35.112 256.696 32.5093 255.757 30.248C255.33 29.1813 254.797 28.3493 254.157 27.752C253.517 27.1547 252.834 26.856 252.109 26.856C251.042 26.856 250.253 27.688 249.741 29.352C249.101 31.1013 248.674 33.0213 248.461 35.112C248.205 37.3733 248.056 39.528 248.013 41.576L247.949 43.688C247.906 44.2853 247.885 45.096 247.885 46.12V46.376C247.885 49.2347 248.184 52.7547 248.781 56.936C249.464 62.6107 250.466 66.6427 251.789 69.032C252.642 70.5253 253.538 71.272 254.477 71.272ZM273.515 73.448C272.875 73.448 272.363 73.1493 271.979 72.552C271.638 71.912 271.467 71.144 271.467 70.248C271.467 68.84 271.552 67.112 271.723 65.064L271.851 63.4L271.979 60.008C271.979 58.5147 271.83 55.1867 271.531 50.024C271.232 44.8613 271.083 41.5333 271.083 40.04C271.083 39.912 271.083 39.6773 271.083 39.336C271.126 38.952 271.147 38.376 271.147 37.608C271.19 36.7547 271.211 35.7093 271.211 34.472C271.211 31.3573 270.998 29.3733 270.571 28.52C270.315 28.52 269.76 28.584 268.907 28.712L267.115 28.84C266.56 28.84 266.07 28.6907 265.643 28.392C265.216 28.0507 265.003 27.624 265.003 27.112C265.003 26.6 265.515 26.152 266.539 25.768C268.032 25.256 270.571 24.8933 274.155 24.68C275.606 24.5947 276.48 24.552 276.779 24.552C277.291 24.552 277.76 24.7227 278.187 25.064C278.614 25.4053 278.827 25.832 278.827 26.344C278.827 26.856 278.635 27.2827 278.251 27.624C277.91 27.9227 277.462 28.072 276.907 28.072L275.755 28.008C275.414 27.9653 275.03 27.944 274.603 27.944H273.963C274.262 30.8453 274.411 33.4693 274.411 35.816L274.347 39.912C274.304 41.1493 274.283 42.536 274.283 44.072C274.283 46.12 274.368 48.5733 274.539 51.432C274.752 54.9733 274.859 57.4267 274.859 58.792C274.859 60.4133 274.944 62.3333 275.115 64.552C275.286 66.8133 275.371 68.7333 275.371 70.312C275.371 72.4027 274.752 73.448 273.515 73.448ZM291.225 73.512C289.732 73.3413 288.665 72.5733 288.025 71.208C287.769 70.696 287.598 70.312 287.513 70.056C287.086 69.2027 286.766 68.456 286.553 67.816C286.34 67.176 286.233 66.5147 286.233 65.832L286.297 65.128C286.34 64.6587 286.468 64.2533 286.681 63.912C286.894 63.5707 287.172 63.3573 287.513 63.272C287.982 63.1867 288.452 63.3147 288.921 63.656C289.433 63.9547 289.753 64.3387 289.881 64.808C290.052 65.2347 290.222 65.832 290.393 66.6C290.649 67.752 290.99 68.8613 291.417 69.928C291.673 70.4827 292.1 70.76 292.697 70.76C292.868 70.76 293.124 70.7173 293.465 70.632C295.001 69.992 296.046 69.032 296.601 67.752C297.625 65.2773 298.137 62.888 298.137 60.584C298.137 59.688 298.03 58.6427 297.817 57.448C297.774 57.0213 297.732 56.616 297.689 56.232C297.646 55.8053 297.604 55.3787 297.561 54.952C297.348 53.5013 296.857 52.3493 296.089 51.496C295.321 50.6427 294.212 50.024 292.761 49.64C292.633 49.5973 292.292 49.5333 291.737 49.448C291.182 49.32 290.713 49.1067 290.329 48.808C289.988 48.4667 289.817 48.0613 289.817 47.592C289.732 46.3973 290.692 45.5867 292.697 45.16C293.806 44.8613 294.702 44.2 295.385 43.176C297.006 41.6827 297.817 39.5067 297.817 36.648C297.817 34.9413 297.54 33.192 296.985 31.4C296.729 30.4187 296.153 29.672 295.257 29.16C294.361 28.6053 293.401 28.328 292.377 28.328C290.926 28.328 289.71 28.9467 288.729 30.184C288.558 30.3973 288.26 30.8453 287.833 31.528C287.108 32.7227 286.596 33.4267 286.297 33.64C285.956 33.9813 285.614 34.152 285.273 34.152C284.761 34.152 284.356 34.024 284.057 33.768C283.801 33.4693 283.652 33.1493 283.609 32.808C283.566 32.6373 283.545 32.3813 283.545 32.04C283.545 30.632 283.95 29.352 284.761 28.2C285.614 27.048 286.681 26.1307 287.961 25.448C289.284 24.7653 290.585 24.424 291.865 24.424C293.358 24.424 294.916 24.8293 296.537 25.64C298.798 26.7493 300.185 28.52 300.697 30.952C300.996 32.2747 301.145 33.6187 301.145 34.984C301.145 36.8613 300.868 38.7813 300.313 40.744C299.801 42.7067 298.692 44.584 296.985 46.376L295.705 46.952C297.113 47.2507 298.372 48.2747 299.481 50.024C300.59 51.7733 301.145 53.5227 301.145 55.272C301.145 55.9973 301.209 56.7227 301.337 57.448C301.422 58.216 301.465 58.7493 301.465 59.048C301.508 59.4747 301.529 60.0933 301.529 60.904C301.529 63.336 301.188 65.576 300.505 67.624C299.225 71.6773 296.793 73.704 293.209 73.704C292.612 73.704 291.95 73.64 291.225 73.512ZM326.856 70.376C326.941 70.8027 326.984 71.1013 326.984 71.272C326.984 71.7413 326.877 72.1467 326.664 72.488C326.45 72.7867 326.152 72.9573 325.768 73C325 73.0427 324.424 72.9147 324.04 72.616C323.698 72.3173 323.506 71.7413 323.464 70.888L323.4 68.2C323.4 67.048 323.357 65.2773 323.272 62.888C323.186 59.9013 323.101 57.6613 323.016 56.168L322.696 46.248C322.61 42.1093 322.525 38.9733 322.44 36.84L322.312 33V28.52V26.216C322.354 25.704 322.482 25.256 322.696 24.872C322.952 24.488 323.293 24.296 323.72 24.296C324.061 24.296 324.381 24.3813 324.68 24.552C325.192 24.808 325.512 25.1707 325.64 25.64C325.768 26.0667 325.81 26.6 325.768 27.24V35.624C325.682 38.2693 325.597 41.9813 325.512 46.76C325.554 46.8027 325.597 47.336 325.64 48.36C325.682 49.384 325.725 51.176 325.768 53.736C326.024 56.936 326.173 59.2613 326.216 60.712C326.386 66.0027 326.6 69.224 326.856 70.376ZM318.088 50.664C318.557 51.56 318.941 52.9467 319.24 54.824C319.538 56.7013 319.688 58.3013 319.688 59.624C319.688 61.544 319.218 63.656 318.28 65.96C317.384 68.264 316.189 69.992 314.696 71.144C313.842 71.7413 313.138 72.1467 312.584 72.36C312.072 72.5307 311.304 72.68 310.28 72.808C310.024 72.8507 309.704 72.872 309.32 72.872C308.637 72.872 308.082 72.7653 307.656 72.552C307.272 72.296 307.037 71.976 306.952 71.592C306.952 69.3733 307.016 67.2827 307.144 65.32C307.314 62.504 307.4 59.9653 307.4 57.704C307.4 54.5893 307.293 51.24 307.08 47.656C306.994 46.2907 306.909 44.6907 306.824 42.856C306.781 40.9787 306.738 39.5493 306.696 38.568L306.632 35.624C306.632 33.704 306.674 30.7813 306.76 26.856C306.802 26.2587 307.037 25.7893 307.464 25.448C307.933 25.1067 308.488 24.9787 309.128 25.064C309.725 25.1493 310.194 25.4267 310.536 25.896C310.92 26.3227 311.048 26.8133 310.92 27.368C310.493 29.16 310.28 31.6347 310.28 34.792C310.28 35.9013 310.258 36.7333 310.216 37.288C310.173 37.8 310.152 38.44 310.152 39.208C310.152 39.9333 310.13 40.6587 310.088 41.384L310.024 45.352C310.45 45.2667 310.792 45.224 311.048 45.224C312.37 45.224 313.672 45.7787 314.952 46.888C316.274 47.9547 317.32 49.2133 318.088 50.664ZM314.952 67.432C315.549 66.0667 315.997 64.7653 316.296 63.528C316.637 62.2907 316.808 60.904 316.808 59.368C316.808 56.6373 316.061 53.8213 314.568 50.92C313.458 48.7867 312.008 47.848 310.216 48.104L310.408 60.648C310.493 61.5013 310.536 63.1013 310.536 65.448C310.536 66.4293 310.514 67.0053 310.472 67.176C310.386 67.6027 310.344 67.9013 310.344 68.072C310.344 68.6267 310.472 69.16 310.728 69.672C311.026 69.5867 311.517 69.4373 312.2 69.224C312.882 68.968 313.458 68.712 313.928 68.456C314.397 68.1573 314.738 67.816 314.952 67.432ZM338.036 73.512C336.073 73.512 335.092 72.9787 335.092 71.912L335.22 64.04L335.348 56.168C335.348 53.3093 335.284 48.9787 335.156 43.176C335.028 37.416 334.964 33.0853 334.964 30.184V29.8C334.964 28.6907 335.07 27.6667 335.284 26.728C335.54 25.576 336.222 25 337.332 25C340.318 25 342.686 25.96 344.436 27.88C346.185 29.8 347.06 32.3387 347.06 35.496C347.06 37.416 346.548 39.4213 345.524 41.512C344.5 43.6027 343.284 45.16 341.876 46.184C344.35 47.848 346.164 50.0027 347.316 52.648C348.51 55.2507 349.108 58.1307 349.108 61.288C349.108 62.7813 348.596 64.6373 347.572 66.856C346.334 69.5013 344.649 71.4 342.516 72.552C341.236 73.192 339.828 73.512 338.292 73.512H338.036ZM338.676 45.224C339.785 44.968 340.724 44.0507 341.492 42.472C342.132 41.2773 342.729 39.8267 343.284 38.12C343.412 37.6507 343.625 37.0533 343.924 36.328V34.088C343.924 32.808 343.454 31.5707 342.516 30.376C341.577 29.1813 340.51 28.584 339.316 28.584C338.718 28.584 338.42 29.2453 338.42 30.568C338.42 33.384 338.462 35.9013 338.548 38.12L338.676 45.224ZM338.932 70.184C341.022 69.8853 342.686 68.9253 343.924 67.304C345.161 65.6827 345.78 63.7413 345.78 61.48C345.78 59.5173 345.609 57.7253 345.268 56.104C344.969 54.44 344.564 53.1813 344.052 52.328C343.582 51.5173 343.113 50.8347 342.644 50.28C342.174 49.7253 341.769 49.3627 341.428 49.192L340.916 49H338.612C338.825 53.9067 338.932 60.968 338.932 70.184Z" fill="white"/>
</svg>
