<svg width="397" height="97" fill="none" xmlns="http://www.w3.org/2000/svg"><path d="M397 77c0 11.046-8.954 20-20 20H0V20C0 8.954 8.954 0 20 0h357c11.046 0 20 8.954 20 20v57z" fill="#0E2EB6"/><path d="M106.512 73.64c-.683 0-1.152-.128-1.408-.384-.213-.256-.363-.747-.448-1.472l-.576-12.096.064-1.792.064-5.952c0-6.187-.021-10.837-.064-13.952-.043-1.024-.064-3.35-.064-6.976l.064-2.56c0-.47-.085-.747-.256-.832-.171-.128-.64-.235-1.408-.32-.853-.085-1.472-.128-1.856-.128a8.33 8.33 0 00-3.392.704c-.256.597-.405 1.835-.448 3.712a312.07 312.07 0 00-.064 6.912c-.043.64-.021 3.435.064 8.384v5.184c0 .81.085 1.984.256 3.52.17 1.792.256 3.157.256 4.096 0 .597-.043 1.365-.128 2.304l-.064 1.984.32 7.296c0 .597-.17 1.045-.512 1.344-.341.299-.81.427-1.408.384-1.195 0-1.792-.576-1.792-1.728.128-4.48.192-8.981.192-13.504V54.76c-.085-3.328-.17-5.803-.256-7.424-.085-1.28-.17-3.115-.256-5.504-.128-3.37-.277-8.32-.448-14.848 0-.725.15-1.259.448-1.6.341-.384.853-.597 1.536-.64 4.437-.085 7.787-.128 10.048-.128.811 0 1.472.256 1.984.768.555.512.747 1.13.576 1.856-.171 1.024-.256 2.197-.256 3.52 0 .981.021 1.728.064 2.24v1.408c.043.555.043 1.195 0 1.92a79.397 79.397 0 00-.064 3.52c-.085 3.072-.192 5.248-.32 6.528.043.981.085 2.56.128 4.736.085 2.133.171 3.648.256 4.544-.128.81-.192 1.643-.192 2.496 0 .981.128 2.496.384 4.544.171 1.493.277 2.667.32 3.52l.064 1.536c.085 1.365.128 2.368.128 3.008l-.064 1.408c.043.981-.448 1.472-1.472 1.472zm17.962 1.152c-1.152 0-2.197-.384-3.136-1.152-.939-.768-1.749-1.813-2.432-3.136-1.237-2.304-2.155-5.461-2.752-9.472-.427-2.773-.747-5.973-.96-9.6l-.064-3.392v-3.456a106.66 106.66 0 01-.064-4.032c0-2.56.107-4.821.32-6.784a25.335 25.335 0 011.28-6.08c.683-1.75 1.664-2.987 2.944-3.712a5.633 5.633 0 012.304-.512c2.261 0 4.053.896 5.376 2.688a16.587 16.587 0 012.88 6.72c.683 2.987 1.067 5.845 1.152 8.576.171 3.03.256 5.888.256 8.576v3.648c0 .725-.107 2.09-.32 4.096-.171 1.579-.256 2.923-.256 4.032v.256c-.256 1.195-.384 2.603-.384 4.224 0 1.195-.256 2.432-.768 3.712-.512 1.28-1.237 2.368-2.176 3.264-.939 1.024-2.005 1.536-3.2 1.536zm.128-3.52c.853 0 1.579-.79 2.176-2.368.512-1.408.875-3.115 1.088-5.12.256-2.048.469-4.352.64-6.912.085-1.11.128-2.539.128-4.288l-.064-5.888c-.085-2.304-.341-5.184-.768-8.64-.341-2.944-.981-5.547-1.92-7.808-.427-1.067-.96-1.899-1.6-2.496-.64-.597-1.323-.896-2.048-.896-1.067 0-1.856.832-2.368 2.496-.64 1.75-1.067 3.67-1.28 5.76a70.76 70.76 0 00-.448 6.464l-.064 2.112a35.778 35.778 0 00-.064 2.432v.256c0 2.859.299 6.379.896 10.56.683 5.675 1.685 9.707 3.008 12.096.853 1.493 1.749 2.24 2.688 2.24zm19.998 2.24c-1.493-.17-2.56-.939-3.2-2.304-.256-.512-.427-.896-.512-1.152-.427-.853-.747-1.6-.96-2.24a6.242 6.242 0 01-.32-1.984l.064-.704c.043-.47.171-.875.384-1.216.213-.341.491-.555.832-.64.469-.085.939.043 1.408.384.512.299.832.683.96 1.152.171.427.341 1.024.512 1.792a21.471 21.471 0 001.024 3.328c.256.555.683.832 1.28.832.171 0 .427-.043.768-.128 1.536-.64 2.581-1.6 3.136-2.88 1.024-2.475 1.536-4.864 1.536-7.168 0-.896-.107-1.941-.32-3.136-.043-.427-.085-.832-.128-1.216l-.128-1.28c-.213-1.45-.704-2.603-1.472-3.456-.768-.853-1.877-1.472-3.328-1.856-.128-.043-.469-.107-1.024-.192-.555-.128-1.024-.341-1.408-.64a1.663 1.663 0 01-.512-1.216c-.085-1.195.875-2.005 2.88-2.432 1.109-.299 2.005-.96 2.688-1.984 1.621-1.493 2.432-3.67 2.432-6.528 0-1.707-.277-3.456-.832-5.248-.256-.981-.832-1.728-1.728-2.24a5.376 5.376 0 00-2.88-.832c-1.451 0-2.667.619-3.648 1.856-.171.213-.469.661-.896 1.344-.725 1.195-1.237 1.899-1.536 2.112-.341.341-.683.512-1.024.512-.512 0-.917-.128-1.216-.384a1.81 1.81 0 01-.448-.96c-.043-.17-.064-.427-.064-.768 0-1.408.405-2.688 1.216-3.84a9.481 9.481 0 013.2-2.752c1.323-.683 2.624-1.024 3.904-1.024 1.493 0 3.051.405 4.672 1.216 2.261 1.11 3.648 2.88 4.16 5.312a18.23 18.23 0 01.448 4.032c0 1.877-.277 3.797-.832 5.76-.512 1.963-1.621 3.84-3.328 5.632l-1.28.576c1.408.299 2.667 1.323 3.776 3.072 1.109 1.75 1.664 3.499 1.664 5.248 0 .725.064 1.45.192 2.176.085.768.128 1.301.128 1.6.043.427.064 1.045.064 1.856 0 2.432-.341 4.672-1.024 6.72-1.28 4.053-3.712 6.08-7.296 6.08-.597 0-1.259-.064-1.984-.192zm35.247 6.144c-.384 0-.768-.213-1.152-.64a1.957 1.957 0 01-.512-1.344c0-.725.128-2.752.384-6.08a10.667 10.667 0 00-2.816-.384c-.896 0-2.155.107-3.776.32l-1.536.192c-3.115.341-5.568.576-7.36.704-.171 0-1.302.064-3.392.192v1.856c.042.81.042 1.472 0 1.984-.043.555-.214 1.003-.513 1.344-.255.341-.575.512-.959.512-.214 0-.491-.085-.832-.256-.342-.299-.705-.875-1.089-1.728-.085-.256-.128-1.173-.128-2.752l-.064-1.728c-.042-.341.128-.704.512-1.088.384-.427.918-.661 1.601-.704 1.92-.128 3.157-1.216 3.712-3.264.298-.981.576-2.155.832-3.52.256-1.408.426-2.645.512-3.712.597-5.632.896-9.941.896-12.928 0-1.024-.043-2.517-.128-4.48-.086-1.365-.128-2.368-.128-3.008 0-1.792-.022-3.136-.064-4.032 0-3.627-.043-5.93-.128-6.912-.086-.853.064-1.557.448-2.112.384-.597.981-.939 1.792-1.024 2.048-.213 3.285-.32 3.712-.32.896 0 1.685.107 2.368.32.298.085.554.128.768.128.256 0 .448.021.576.064.81.085 1.365.256 1.664.512.341.256.512.875.512 1.856l-.064 4.416c0 .981.021 1.707.064 2.176.128 4.65.362 11.819.704 21.504l.064 1.728c.085 2.176.192 4.395.32 6.656.128 2.219.298 3.776.512 4.672 1.578 0 2.773.107 3.584.32.853.213 1.28.747 1.28 1.6 0 .213-.022.384-.064.512a116.51 116.51 0 00-.384 2.816 40.644 40.644 0 00-.256 2.624c-.043.213-.064.619-.064 1.216s-.107 1.045-.32 1.344c-.171.299-.534.448-1.088.448zm-15.36-10.112c1.877-.17 3.413-.277 4.608-.32l4.544-.32c.085-.939.128-1.621.128-2.048 0-.597-.043-1.621-.128-3.072 0-.299-.043-.79-.129-1.472a30.47 30.47 0 01-.063-1.856l-.448-10.176v-6.336l-.768-14.72c0-.683-.064-1.216-.192-1.6-.47-.213-1.238-.32-2.304-.32-.939 0-1.835.064-2.688.192v14.912c-.128 5.803-.342 10.944-.64 15.424a52.7 52.7 0 01-.832 6.528c-.384 2.261-.747 3.99-1.088 5.184zm23.092 3.776c-.47 0-.854-.192-1.152-.576-.256-.427-.384-.939-.384-1.536l.128-10.752c.128-5.205.192-9.237.192-12.096 0-9.941-.555-17.557-1.664-22.848.64-.981 1.45-1.472 2.432-1.472 1.578 0 3.008.363 4.288 1.088a9.064 9.064 0 013.264 2.816c1.664 2.475 2.496 5.248 2.496 8.32 0 3.2-.683 6.059-2.048 8.576-1.366 2.517-3.35 4.48-5.952 5.888l.128 6.464.128 3.392c.042.725.064 1.77.064 3.136.128 2.859.192 5.184.192 6.976 0 .81-.171 1.45-.512 1.92-.342.47-.875.704-1.6.704zm1.472-25.664c1.664-1.579 2.88-3.221 3.648-4.928.81-1.75 1.216-3.712 1.216-5.888v-.064c0-.981-.107-2.219-.32-3.712a4.943 4.943 0 00-.704-1.536c-.342-.512-.534-.81-.576-.896-.299-.427-1.088-1.088-2.368-1.984l-1.664-1.216c0 2.176.128 5.547.384 10.112l.384 10.112zM216.512 73c-.683 0-1.195-.128-1.536-.384-.299-.256-.448-.683-.448-1.28v-8.384c-.555-.384-1.6-.725-3.136-1.024a33.964 33.964 0 00-4.352-.576c-.469.896-.811 1.984-1.024 3.264l-.256 1.28c-.043.299-.171.96-.384 1.984a24.097 24.097 0 01-.704 2.688c-.256.725-.512 1.301-.768 1.728-1.621 0-2.56-.427-2.816-1.28.469-.683 1.003-2.688 1.6-6.016l2.112-11.712c.939-5.547 1.792-10.283 2.56-14.208.811-3.925 1.664-7.21 2.56-9.856.981-2.944 1.92-4.416 2.816-4.416.896 0 1.579.17 2.048.512 0 1.707.405 5.824 1.216 12.352.853 6.4 1.28 10.773 1.28 13.12 0 2.261.235 5.504.704 9.728.427 4.31.64 7.744.64 10.304 0 1.45-.704 2.176-2.112 2.176zm-3.328-13.76c.341 0 .768-.064 1.28-.192a183.259 183.259 0 00-.64-6.976c-.981-9.643-1.472-15.552-1.472-17.728v-.512c-.427.427-1.024 2.368-1.792 5.824a235.598 235.598 0 00-2.048 11.008c-.64 3.925-.981 6.528-1.024 7.808 1.792.512 3.691.768 5.696.768zm16.039 14.272c-1.963 0-2.944-.533-2.944-1.6l.128-7.872.128-7.872c0-2.859-.064-7.19-.192-12.992-.128-5.76-.192-10.09-.192-12.992V29.8c0-1.11.107-2.133.32-3.072.256-1.152.939-1.728 2.048-1.728 2.987 0 5.355.96 7.104 2.88 1.749 1.92 2.624 4.459 2.624 7.616 0 1.92-.512 3.925-1.536 6.016-1.024 2.09-2.24 3.648-3.648 4.672 2.475 1.664 4.288 3.819 5.44 6.464 1.195 2.603 1.792 5.483 1.792 8.64 0 1.493-.512 3.35-1.536 5.568-1.237 2.645-2.923 4.544-5.056 5.696-1.28.64-2.688.96-4.224.96h-.256zm.64-28.288c1.109-.256 2.048-1.173 2.816-2.752.64-1.195 1.237-2.645 1.792-4.352.128-.47.341-1.067.64-1.792v-2.24c0-1.28-.469-2.517-1.408-3.712-.939-1.195-2.005-1.792-3.2-1.792-.597 0-.896.661-.896 1.984 0 2.816.043 5.333.128 7.552l.128 7.104zm.256 24.96c2.091-.299 3.755-1.259 4.992-2.88s1.856-3.563 1.856-5.824c0-1.963-.171-3.755-.512-5.376-.299-1.664-.704-2.923-1.216-3.776-.469-.81-.939-1.493-1.408-2.048-.469-.555-.875-.917-1.216-1.088l-.512-.192h-2.304c.213 4.907.32 11.968.32 21.184zm18.717 3.456c-.64 0-1.216-.277-1.728-.832-.512-.555-.747-1.173-.704-1.856.128-2.176.192-4.395.192-6.656 0-1.963-.043-4.95-.128-8.96-.043-1.835-.192-4.587-.448-8.256a1143.1 1143.1 0 00-.192-3.136 188.505 188.505 0 01-.192-3.712c-.043-.725-.064-1.813-.064-3.264l.064-6.528c0-.384-.043-.917-.128-1.6l-.064-1.472c0-.683.171-1.216.512-1.6.384-.384.875-.576 1.472-.576 1.237 0 1.941.576 2.112 1.728.171 1.28.256 2.24.256 2.88 0 .768-.064 1.536-.192 2.304-.213 1.579-.32 3.008-.32 4.288l.064 1.92c.171 3.925.256 7.53.256 10.816v7.616c0 1.323.043 3.307.128 5.952l.384.064.768-2.496c1.28-4.31 2.496-8.235 3.648-11.776.597-1.664 1.237-4.245 1.92-7.744.299-1.536.576-2.773.832-3.712l3.2-11.52c.299-.555.661-.96 1.088-1.216.427-.299.853-.427 1.28-.384.512.128 1.003.49 1.472 1.088.469.555.683 1.11.64 1.664a46.092 46.092 0 01-.384 4.672c-.384 5.333-.597 8.683-.64 10.048-.171 5.717-.256 10.005-.256 12.864 0 1.365.107 3.52.32 6.464.213 2.901.341 4.821.384 5.76l.256 3.2c.043.896-.171 1.6-.64 2.112s-1.088.768-1.856.768c-.469 0-.875-.15-1.216-.448-.341-.341-.533-.79-.576-1.344v-.576l.064-12.864v-2.304c-.085-2.219-.171-5.632-.256-10.24v-6.848c-.043-.043-.149-.064-.32-.064-.256.043-.64 1.024-1.152 2.944a225.265 225.265 0 00-1.344 5.696 237.204 237.204 0 01-.832 3.584c-.384 1.835-.619 2.88-.704 3.136-1.195 4.053-2.155 7.445-2.88 10.176a87.41 87.41 0 00-1.792 8.192c-.256 1.365-1.024 2.048-2.304 2.048zm28.992-.192c-.64 0-1.152-.299-1.536-.896-.342-.64-.512-1.408-.512-2.304 0-1.408.085-3.136.256-5.184l.128-1.664.128-3.392c0-1.493-.15-4.821-.448-9.984-.299-5.163-.448-8.49-.448-9.984v-.704c.042-.384.064-.96.064-1.728.042-.853.064-1.899.064-3.136 0-3.115-.214-5.099-.64-5.952-.256 0-.811.064-1.664.192l-1.792.128a2.5 2.5 0 01-1.472-.448c-.427-.341-.64-.768-.64-1.28s.512-.96 1.536-1.344c1.493-.512 4.032-.875 7.616-1.088 1.45-.085 2.325-.128 2.624-.128a2.2 2.2 0 011.408.512c.426.341.64.768.64 1.28s-.192.939-.576 1.28c-.342.299-.79.448-1.344.448l-1.152-.064a9.365 9.365 0 00-1.152-.064h-.64c.298 2.901.448 5.525.448 7.872l-.064 4.096a120.72 120.72 0 00-.065 4.16c0 2.048.086 4.501.257 7.36.213 3.541.32 5.995.32 7.36 0 1.621.085 3.541.256 5.76.17 2.261.256 4.181.256 5.76 0 2.09-.619 3.136-1.856 3.136zM292.146 73c-.726.043-1.408-.235-2.048-.832-.598-.597-.896-1.28-.896-2.048v-2.112c0-3.03.021-5.227.064-6.592v-2.624c.042-.896.042-1.557 0-1.984-.214-1.28-.32-2.859-.32-4.736l.064-3.648c.042-1.152.021-2.88-.064-5.184l-.064-1.792V28.712c-.043-1.152.042-2.048.256-2.688.256-.683.704-1.024 1.344-1.024.682 0 1.152.277 1.408.832.256.512.384 1.237.384 2.176l-.064 1.984-.704 11.264.064 4.224c1.493-.043 2.944.363 4.352 1.216 2.517 1.195 4.352 2.901 5.504 5.12a14.564 14.564 0 011.728 6.912c0 1.408-.15 2.859-.448 4.352-.299 1.493-.704 2.816-1.216 3.968-.854 1.877-2.091 3.307-3.712 4.288-1.579.981-3.456 1.536-5.632 1.664zm.832-3.2c1.152 0 2.154-.427 3.008-1.28 1.28-1.323 2.261-2.901 2.944-4.736a15.864 15.864 0 001.088-5.76c0-2.219-.427-4.139-1.28-5.76-.811-1.621-2.24-2.923-4.288-3.904-.683-.341-1.323-.512-1.92-.512-.299 0-.64.064-1.024.192l1.152 16.832.32 4.928z" fill="#fff"/></svg>