<svg width="283" height="137" fill="none" xmlns="http://www.w3.org/2000/svg"><path d="M272.642 15.752H10.831C5.275 15.752.76 20.27.76 25.832v81.328c0 5.561 4.514 10.079 10.07 10.079h19.445c1.736 8.341 3.472 19.116 3.472 19.116l17.709-19.116h221.185c5.556 0 10.07-4.518 10.07-10.079V25.831c.347-5.56-4.167-10.079-10.07-10.079z" fill="#C4C4C4"/><path d="M18.612 23.17c.32-.762.615-1.578.882-2.448a12.86 12.86 0 00.4-2.447c0-.762-.133-1.469-.4-2.121-.267-.599-.748-1.088-1.443-1.469a11.668 11.668 0 01-3.528-2.937C13.508 10.606 13 9.192 13 7.506c0-1.034.187-2.013.561-2.937a7.438 7.438 0 011.604-2.448A7.018 7.018 0 0117.49.571 7.393 7.393 0 0120.376 0c2.031 0 3.741.734 5.131 2.203 1.39 1.468 2.138 3.236 2.245 5.303.16 2.175-.107 4.188-.802 6.037-.748 1.903-1.603 3.562-2.565 4.976-1.016 1.415-2.005 2.557-2.967 3.427-.962.924-1.63 1.523-2.004 1.795a3.914 3.914 0 01-.401-.245l-.24-.245c-.054-.054-.107-.081-.16-.081zm18.44 0c.32-.762.615-1.578.882-2.448a12.94 12.94 0 00.4-2.447c0-.762-.133-1.469-.4-2.121-.267-.599-.748-1.088-1.443-1.469a11.667 11.667 0 01-3.528-2.937c-1.015-1.142-1.523-2.556-1.523-4.242 0-1.034.187-2.013.561-2.937a7.44 7.44 0 011.604-2.448A7.018 7.018 0 0135.93.571 7.393 7.393 0 0138.816 0c2.031 0 3.741.734 5.131 2.203 1.39 1.468 2.138 3.236 2.245 5.303.16 2.175-.107 4.188-.802 6.037-.748 1.903-1.603 3.562-2.565 4.976-1.016 1.415-2.005 2.557-2.967 3.427-.962.924-1.63 1.523-2.004 1.795a3.914 3.914 0 01-.401-.245l-.24-.245c-.054-.054-.108-.081-.16-.081z" fill="#0E2EB6"/></svg>