<svg width="429" height="517" viewBox="0 0 429 517" fill="none" xmlns="http://www.w3.org/2000/svg">
<path d="M214.307 517C95.9483 517 -6.10352e-05 425.388 -6.10352e-05 312.379C-6.10352e-05 199.371 95.9483 107.759 214.307 107.759C332.665 107.759 428.614 199.371 428.614 312.379C428.614 425.388 332.665 517 214.307 517Z" fill="#E0E0E0"/>
<path d="M237.917 11.5759C260.083 12.8621 268.757 35.6923 271.327 40.8372C273.897 45.982 274.218 51.7699 274.86 57.5579C275.503 63.3458 276.145 69.1338 279.037 74.2786C283.855 81.9959 294.135 86.1761 297.027 94.858C300.239 104.826 292.208 115.116 294.135 125.405C295.42 130.872 299.275 135.374 300.56 140.84C302.167 146.306 300.56 152.416 297.669 157.561C290.28 170.101 275.503 176.211 261.047 176.854C246.59 177.497 232.455 172.995 218.963 168.815" fill="#263238"/>
<path d="M140.579 40.1941C142.827 45.0173 140.579 50.4837 137.366 54.3423C133.832 58.201 129.335 60.7734 125.48 63.9889C121.625 67.2044 117.77 71.3847 117.449 76.5295C117.127 81.3528 119.376 85.8545 118.734 90.6778C117.127 102.575 97.8524 106.434 96.8886 118.331C96.2461 126.37 104.599 133.766 102.029 141.483C101.065 144.377 98.8162 146.628 97.2099 149.522C91.7487 158.525 95.6036 171.066 103.314 178.14C111.345 185.214 122.267 187.787 132.547 188.108C141.542 188.43 151.501 187.143 156.641 179.748C161.46 173.317 160.496 164.313 159.532 156.274C155.035 118.653 155.677 80.3881 156.641 42.4449" fill="#263238"/>
<path d="M232.134 214.797C231.813 194.861 232.134 174.281 232.134 174.281C232.134 174.281 257.513 169.78 262.331 136.338C267.15 104.505 259.119 36.0139 259.119 36.0139C222.175 21.544 180.734 27.0104 155.034 56.9148L158.889 217.691C159.21 236.341 175.915 250.811 195.833 250.168C216.072 249.525 232.134 233.447 232.134 214.797Z" fill="#FFBE9D"/>
<path d="M252.051 88.4269C252.051 90.6777 250.445 92.607 247.875 92.9286C245.626 92.9286 243.699 91.3208 243.378 89.07C243.378 86.8191 244.984 84.8898 247.554 84.5682C250.124 84.5682 252.051 86.176 252.051 88.4269Z" fill="#263238"/>
<path d="M259.119 85.2113C258.476 85.8544 255.264 83.282 250.766 83.6036C242.093 84.8898 242.414 86.176 242.414 85.5329C242.093 85.2113 242.735 84.2466 244.02 83.282C245.305 82.3173 247.875 81.0311 250.766 81.0311C253.658 81.0311 255.906 81.9958 257.513 82.9605C258.798 83.9251 259.44 84.8898 259.119 85.2113Z" fill="#263238"/>
<path d="M205.149 90.0347C205.149 92.2855 203.543 94.2148 200.973 94.5364C198.724 94.5364 196.797 92.9286 196.475 90.6778C196.475 88.4269 198.082 86.4976 200.652 86.1761C203.222 85.8545 205.149 87.7838 205.149 90.0347Z" fill="#263238"/>
<path d="M211.253 86.8191C210.61 87.4622 207.398 84.8898 202.9 85.2113C198.403 85.2113 194.869 87.4622 194.548 87.1407C194.227 86.8191 194.869 85.8544 196.154 84.8898C197.439 83.9251 200.009 82.6389 202.9 82.6389C205.792 82.6389 208.04 83.6036 209.647 84.5682C210.932 85.5329 211.574 86.4976 211.253 86.8191Z" fill="#263238"/>
<path d="M228.279 119.939C228.279 119.617 231.17 119.296 235.668 118.653C236.953 118.653 237.916 118.331 238.238 117.367C238.559 116.402 237.916 115.116 237.274 113.829C235.989 110.935 235.025 108.042 233.74 104.826C228.921 92.2855 225.066 81.6742 225.709 81.6742C226.351 81.3527 230.528 91.6423 235.668 104.183C236.953 107.398 237.916 110.292 239.201 113.186C239.523 114.473 240.486 116.08 239.844 117.688C239.523 118.653 238.559 119.296 237.916 119.296C237.274 119.617 236.631 119.617 235.989 119.617C231.17 119.939 228.279 119.939 228.279 119.939Z" fill="#263238"/>
<path d="M232.135 173.96C232.135 173.96 209.647 175.568 187.481 162.706C187.481 162.706 198.403 185.536 231.813 181.999L232.135 173.96Z" fill="#EB996E"/>
<path d="M226.352 130.872C224.746 128.621 221.854 127.656 218.963 127.978C217.036 128.299 215.108 129.264 213.823 130.872C212.538 132.479 212.538 134.73 213.502 136.338C214.787 137.946 217.357 138.589 219.606 137.946C221.854 137.303 223.782 135.695 225.388 134.409C226.03 134.087 226.352 133.444 226.673 133.123C226.994 132.158 226.994 131.515 226.352 130.872Z" fill="#EB996E"/>
<path d="M214.787 123.155C215.429 123.155 215.751 127.978 219.927 131.515C224.103 135.052 229.564 134.409 229.564 135.052C229.564 135.374 228.279 136.017 226.03 136.017C223.782 136.017 220.569 135.374 217.999 133.444C215.429 131.193 214.144 128.299 214.144 126.37C213.823 124.441 214.466 123.155 214.787 123.155Z" fill="#263238"/>
<path d="M169.491 33.1199C181.698 50.4837 213.823 68.4906 236.953 72.3493C234.383 68.8122 220.248 60.1303 217.357 56.5932C227.958 64.3105 242.736 74.9217 256.549 75.5648C258.156 75.5648 260.083 75.5648 261.368 74.9217C263.296 73.957 263.617 71.7061 263.938 69.7768C264.902 61.738 264.259 47.5897 262.974 39.5509C261.689 31.5121 257.834 23.4733 251.088 18.0069C242.093 11.2543 229.564 9.325 217.357 9.00345C207.398 8.68189 196.797 9.32499 187.802 12.8621C178.486 16.3991 170.776 23.7948 169.491 32.1552" fill="#263238"/>
<path d="M134.475 110.936C132.868 102.254 131.583 94.2148 131.262 88.7484C130.298 71.7062 135.117 8.36031 194.227 13.1836L196.476 31.1905C196.476 31.1905 205.471 92.9286 167.242 93.2501C167.242 93.2501 164.993 111.579 147.646 129.586C148.288 129.586 138.008 129.264 134.475 110.936Z" fill="#263238"/>
<path d="M167.563 93.2502C164.029 92.6071 160.175 92.6071 156.962 94.2148C153.428 95.501 150.537 98.0735 149.252 101.289C147.967 104.505 147.967 108.363 149.252 111.9C150.537 115.437 152.786 118.331 155.356 120.904C157.283 122.833 159.211 124.441 161.781 125.084C164.351 125.727 167.242 125.405 169.169 123.798" fill="#FFBE9D"/>
<path d="M165.957 115.116C166.279 115.116 164.994 117.367 161.46 116.724C159.854 116.402 158.247 115.116 157.284 113.186C156.32 111.579 155.677 109.649 155.356 107.398C155.035 105.148 155.677 102.897 156.641 100.967C157.926 99.3597 159.532 98.0735 161.139 98.0735C164.351 98.0735 165.636 100.324 165.315 100.324C164.994 100.646 163.709 99.3597 161.46 100.003C159.211 100.324 157.284 103.218 157.926 107.077C158.247 110.614 159.854 114.151 161.781 114.794C164.351 115.759 165.636 114.794 165.957 115.116Z" fill="#EB996E"/>
<path d="M161.139 26.6888C156.641 29.2612 151.18 29.9043 146.04 28.6181C140.9 27.3319 136.402 23.7948 133.832 19.2931C132.226 16.3991 131.262 12.8621 131.905 9.64654C133.19 5.1448 137.366 2.25084 141.864 0.964633C148.289 -0.643129 155.677 0.964613 160.496 5.46635C165.315 9.96808 167.564 17.3638 165.315 23.7948C163.066 30.2259 156.641 34.7276 149.895 34.4061" fill="#263238"/>
<path d="M155.677 122.512C158.89 124.762 162.424 127.335 164.994 130.55C167.564 133.766 169.491 137.624 168.848 141.805C168.527 144.056 167.885 146.306 168.206 148.557C168.527 151.773 171.097 154.024 173.025 156.596C177.201 163.349 175.595 172.995 170.133 178.783C164.672 184.571 156.32 187.465 148.289 187.787C143.47 187.787 138.651 187.144 134.796 184.571C129.335 180.712 127.086 173.317 127.086 166.564" fill="#263238"/>
<path d="M151.822 39.8725C151.501 39.8725 152.786 42.445 155.356 45.982C157.926 49.5191 161.781 54.0208 166.599 58.5225C171.739 62.7027 176.879 65.9183 180.734 67.8476C184.589 69.7769 187.159 70.42 187.159 70.42C187.48 69.7769 177.522 65.9183 167.563 57.2364C157.925 48.5544 152.143 39.5509 151.822 39.8725Z" fill="#455A64"/>
<path d="M145.719 39.551C145.397 39.551 145.719 42.7665 146.682 47.5898C147.967 52.4131 150.216 59.1657 154.071 65.9183C158.247 72.6709 162.745 77.8157 166.6 81.0312C170.455 84.2468 173.025 85.8545 173.346 85.8545C173.667 85.533 163.387 78.1373 155.356 64.9536C147.646 52.0915 146.04 39.2295 145.719 39.551Z" fill="#455A64"/>
<path d="M273.897 66.2399C273.254 66.2399 272.612 71.7062 271.006 78.4588C269.078 84.8899 266.829 90.0347 267.15 90.3563C267.472 90.6779 270.684 85.8546 272.612 79.102C274.539 72.0278 274.539 66.2399 273.897 66.2399Z" fill="#455A64"/>
<path d="M132.226 180.069C132.226 179.748 130.619 181.677 127.407 181.677C125.801 181.677 123.552 181.356 121.625 179.748C119.697 178.462 118.091 176.211 117.448 173.317C116.806 170.423 116.806 167.207 117.448 163.67C118.091 160.133 119.376 156.596 120.661 152.737C121.946 148.879 122.91 144.377 121.946 139.875C121.303 135.052 118.091 131.193 116.806 127.013C115.2 122.833 115.842 118.01 117.77 114.473C119.697 110.614 122.91 107.72 126.443 106.434C128.371 105.791 130.298 104.826 131.905 103.861C133.511 102.897 135.438 101.611 136.402 100.003C138.329 96.4657 138.329 92.9286 138.329 90.0347C138.329 86.8191 138.008 84.2467 138.651 81.9958C139.293 79.745 139.936 77.8157 141.221 76.5295C143.469 73.957 145.718 73.957 145.397 73.957C145.397 73.957 144.754 73.957 144.112 73.957C143.148 74.2786 141.863 74.9217 140.578 76.2079C139.293 77.4941 138.33 79.4234 137.687 81.9958C137.045 84.5683 137.044 87.4623 137.044 90.3562C137.044 93.2502 137.044 96.7873 135.117 99.6812C133.19 102.575 129.656 103.861 125.801 105.469C121.946 106.755 118.091 109.971 116.163 114.151C114.236 118.331 113.272 123.476 115.2 127.978C116.806 132.48 119.697 136.338 120.34 140.518C120.982 144.699 120.018 148.879 119.055 152.737C117.77 156.596 116.485 160.455 115.842 163.992C115.2 167.529 115.2 171.066 116.163 174.281C117.127 177.497 118.733 179.748 120.982 181.356C123.231 182.642 125.48 183.285 127.086 182.963C129.013 182.963 130.298 182.32 130.941 181.677C132.226 180.391 132.226 180.069 132.226 180.069Z" fill="#455A64"/>
<path d="M155.677 177.818C155.677 177.818 155.356 178.783 153.75 179.426C152.465 180.069 149.252 180.069 147.646 177.818C146.04 175.246 146.04 171.387 148.289 167.85C150.216 164.313 153.75 160.776 154.713 155.31C155.356 152.737 154.714 149.843 152.786 147.914C151.18 145.985 149.252 144.699 148.289 143.091C145.719 139.875 145.719 136.017 146.04 132.801C146.361 129.586 147.325 127.335 147.967 125.405C148.61 123.798 148.931 122.833 148.61 122.833C148.61 122.833 147.967 123.798 147.325 125.405C146.682 127.013 145.397 129.586 145.076 132.801C144.434 136.017 144.434 140.518 147.325 144.055C148.61 145.985 150.537 147.271 151.822 148.879C153.107 150.487 153.75 152.737 153.107 154.988C152.465 159.49 148.931 163.027 147.004 167.207C145.076 171.066 144.755 175.889 147.004 178.783C147.967 180.391 149.895 181.034 151.18 181.034C152.465 181.034 153.75 181.034 154.713 180.391C155.677 179.105 155.677 177.818 155.677 177.818Z" fill="#455A64"/>
<path d="M281.607 169.458C281.607 169.458 282.57 168.493 284.177 166.886C285.783 164.956 288.032 162.384 289.638 158.525C290.602 156.596 290.923 154.024 290.923 151.451C290.923 148.879 289.959 145.985 288.032 143.734C286.104 141.483 283.213 140.197 281.285 137.946C279.358 135.695 279.358 132.801 280 129.586C280.643 126.692 282.249 123.798 283.534 121.225C284.819 118.653 286.104 115.759 286.747 112.865C287.389 109.971 286.747 106.755 285.14 104.826C283.534 102.575 281.928 101.289 280.322 99.6812C277.109 97.1088 275.182 94.2148 274.86 91.964C274.539 89.7131 275.182 88.4269 274.86 88.4269C274.86 88.4269 274.539 88.7484 274.218 89.3915C273.897 90.0347 273.897 90.9993 273.897 92.2855C274.218 94.8579 276.145 98.0734 279.358 100.967C280.964 102.575 282.57 103.861 283.855 106.112C285.14 108.042 285.783 110.614 285.14 113.186C284.819 115.759 283.534 118.331 281.928 121.225C280.643 123.798 279.037 126.692 278.073 130.229C277.43 133.444 277.43 137.303 279.679 139.875C281.928 142.448 284.819 143.412 286.425 145.663C288.032 147.593 288.995 150.165 288.995 152.416C288.995 154.667 288.674 156.918 288.032 158.847C286.425 162.705 284.498 165.278 282.892 167.207C282.249 168.172 281.285 169.458 281.607 169.458Z" fill="#455A64"/>
<path d="M147.646 30.869C147.967 31.1906 150.216 26.0457 155.356 22.5087C160.496 18.65 165.636 17.6854 165.636 17.3638C165.636 17.0423 159.854 17.0423 154.392 21.2224C148.61 25.0811 147.004 30.869 147.646 30.869Z" fill="#E8505B"/>
<path d="M142.827 0C142.506 0 141.542 1.2862 140.578 3.53707C139.615 6.10949 139.293 9.64658 140.257 13.8268C141.221 17.6854 143.791 20.9009 145.718 22.5087C147.646 24.1164 149.252 24.7595 149.252 24.438C149.252 24.1164 147.967 23.4733 146.361 21.544C144.755 19.6147 142.827 17.0423 141.542 13.5052C140.578 9.96811 140.9 6.43106 141.221 4.18019C142.506 1.60777 143.148 0 142.827 0Z" fill="#455A64"/>
<path opacity="0.3" d="M306.022 395.51C306.022 395.51 226.352 471.396 178.807 457.569C131.262 443.742 117.449 408.05 117.449 408.05L116.164 395.188L120.982 391.972L303.773 377.181L306.022 395.51Z" fill="black"/>
<path d="M353.245 324.446L337.825 284.896L282.57 319.623L331.721 395.51C331.721 395.51 351.639 369.464 353.245 324.446Z" fill="#EB996E"/>
<path d="M290.923 215.44C265.223 201.935 232.134 198.076 232.134 198.076C222.497 217.37 191.978 219.942 173.667 206.758L158.247 196.147C158.247 196.147 155.998 196.147 151.822 196.469C115.521 199.684 85.6448 226.694 78.2561 262.708C75.6861 275.57 73.4373 290.683 74.4011 304.51C76.3286 339.238 112.63 342.453 112.63 342.453C112.63 342.453 114.557 377.181 116.806 405.156C118.733 426.057 129.335 441.813 148.61 450.495C162.745 456.926 170.776 460.142 189.087 463.035C235.668 470.431 280.322 452.746 309.877 421.234C304.415 387.792 298.954 344.383 299.597 342.453C299.597 342.132 299.597 341.81 299.597 341.81L335.577 309.655L356.136 292.613C355.815 292.934 311.162 226.373 290.923 215.44Z" fill="#E8505B"/>
<path d="M246.269 236.984C246.269 237.306 249.482 234.412 255.264 234.412C258.156 234.412 261.689 235.376 264.581 237.627C265.866 238.914 267.151 240.521 268.757 242.129C270.042 243.737 271.969 245.666 274.539 245.988C277.109 246.631 279.679 245.345 281.286 244.058C283.213 242.772 284.819 241.486 286.426 240.521C289.638 238.592 293.172 238.914 295.742 239.557C298.312 240.521 300.239 242.129 301.203 243.415C302.167 244.701 302.488 245.666 302.809 245.345C302.809 245.345 302.809 244.38 301.846 242.772C300.882 241.486 299.276 239.557 296.384 238.27C293.493 236.984 289.317 236.663 285.783 238.914C283.856 239.878 282.249 241.164 280.643 242.129C279.037 243.094 277.109 244.058 275.182 243.737C273.254 243.415 271.648 241.808 270.363 240.521C269.078 238.914 267.793 237.306 265.866 236.02C262.653 233.447 258.798 232.804 255.586 232.804C252.373 232.804 250.124 233.769 248.839 234.733C246.912 236.02 246.269 236.984 246.269 236.984Z" fill="#FAFAFA"/>
<path d="M209.647 284.896C209.968 285.217 211.896 281.68 217.357 279.751C219.927 278.786 223.461 278.464 226.995 279.751C228.601 280.394 230.528 281.68 232.135 282.645C234.062 283.609 236.311 284.896 238.881 284.574C241.451 284.252 243.378 282.323 244.663 280.715C245.948 279.108 247.233 277.178 248.518 275.892C250.767 272.998 254.301 272.033 257.192 272.033C260.083 272.033 262.332 272.998 263.617 273.963C264.902 274.927 265.544 275.57 265.866 275.57C265.866 275.57 265.544 274.606 264.259 273.641C262.974 272.677 260.726 271.39 257.513 271.069C254.622 270.747 250.446 271.712 247.555 274.927C246.27 276.535 244.985 278.143 243.7 279.751C242.415 281.358 240.808 282.645 238.881 282.966C236.953 283.288 235.026 282.323 233.098 281.358C231.171 280.394 229.565 279.108 227.637 278.464C223.782 277.178 219.927 277.5 217.036 278.786C214.145 279.751 212.217 281.68 211.253 282.966C209.968 283.931 209.647 284.896 209.647 284.896Z" fill="#FAFAFA"/>
<path d="M128.371 214.797C128.371 215.119 131.905 213.189 137.687 214.154C140.579 214.797 143.791 216.405 146.04 219.299C147.325 220.585 147.967 222.514 149.252 224.444C150.216 226.373 151.822 228.302 154.071 229.589C156.641 230.553 159.211 229.91 161.139 229.267C163.066 228.624 164.994 227.659 166.921 227.016C170.455 225.73 173.989 226.695 176.237 228.302C178.807 229.91 180.092 231.839 180.735 233.126C181.377 234.412 181.698 235.376 181.698 235.376C181.698 235.376 181.698 234.412 181.377 232.804C180.735 231.196 179.45 228.945 176.88 227.338C174.31 225.73 170.455 224.444 166.279 225.73C164.351 226.373 162.424 227.338 160.496 227.981C158.569 228.624 156.641 228.945 154.714 228.302C152.786 227.659 151.501 225.73 150.537 224.122C149.574 222.193 148.61 220.264 147.325 218.656C144.755 215.44 140.9 213.832 138.009 213.511C135.117 212.868 132.547 213.511 130.941 213.832C129.014 214.154 128.371 214.476 128.371 214.797Z" fill="#FAFAFA"/>
<path d="M165.957 267.532C166.278 267.853 167.563 264.959 171.739 263.351C173.667 262.708 176.558 262.387 179.128 263.03C180.413 263.351 181.698 264.316 183.304 264.959C184.911 265.602 186.517 266.567 188.766 266.245C190.693 265.924 192.299 264.316 193.263 263.03C194.227 261.744 195.191 260.136 195.833 259.171C197.439 256.92 200.009 255.956 202.258 255.956C206.756 255.956 208.683 258.207 209.004 258.207C209.004 258.207 208.683 257.564 207.719 256.599C206.756 255.956 204.828 254.991 202.258 254.991C200.009 254.991 196.797 255.956 194.548 258.528C193.584 259.814 192.621 261.101 191.657 262.387C190.693 263.673 189.729 264.638 188.123 264.959C185.232 265.602 182.341 262.708 179.449 262.065C176.237 261.101 173.346 261.744 171.097 262.708C166.921 264.316 165.636 267.532 165.957 267.532Z" fill="#FAFAFA"/>
<path d="M248.518 311.906C248.84 312.227 250.125 309.334 254.301 307.726C256.228 307.083 259.12 306.761 261.69 307.404C262.975 307.726 264.26 308.69 265.866 309.334C267.472 309.977 269.078 310.941 271.327 310.62C273.254 310.298 274.861 308.69 275.824 307.404C276.788 306.118 277.752 304.51 278.394 303.546C280.001 301.295 282.571 300.33 284.819 300.33C289.317 300.33 291.244 302.581 291.566 302.581C291.566 302.581 291.244 301.938 290.281 300.973C289.317 300.33 287.389 299.365 284.819 299.365C282.571 299.365 279.358 300.33 277.109 302.902C276.146 304.189 275.182 305.475 274.218 306.761C273.255 308.047 272.291 309.012 270.684 309.334C267.793 309.977 264.902 307.083 262.011 306.44C258.798 305.475 255.907 306.118 253.658 307.083C249.482 308.69 248.518 311.906 248.518 311.906Z" fill="#FAFAFA"/>
<path d="M171.418 312.871C171.418 313.192 173.667 310.941 178.165 310.941C180.413 310.941 182.983 311.263 185.232 313.192C186.196 314.157 187.481 315.121 188.444 316.408C189.729 317.694 191.014 318.98 193.263 319.302C195.512 319.623 197.118 318.659 198.724 317.694C200.009 316.729 201.294 315.765 202.579 314.8C204.828 313.192 207.719 313.192 209.647 313.835C213.823 315.121 215.108 318.337 215.108 318.015C215.108 318.015 215.108 317.372 214.466 316.086C213.823 315.121 212.217 313.514 209.968 312.549C207.719 311.584 204.507 311.584 201.616 313.192C200.331 314.157 199.046 315.121 197.761 316.086C196.476 317.051 195.191 317.694 193.584 317.372C190.693 317.051 188.766 313.514 186.196 311.584C183.626 309.655 180.413 309.333 178.165 309.333C173.025 310.298 171.097 312.871 171.418 312.871Z" fill="#FAFAFA"/>
<path d="M196.797 348.241C196.797 348.563 199.046 346.312 203.543 346.312C205.792 346.312 208.362 346.634 210.611 348.563C211.574 349.527 212.859 350.492 213.823 351.778C215.108 353.065 216.393 354.351 218.642 354.672C220.891 354.994 222.497 354.029 224.103 353.065C225.388 352.1 226.673 351.135 227.958 350.171C230.207 348.563 233.098 348.563 235.026 349.206C239.202 350.492 240.487 353.708 240.487 353.386C240.487 353.386 240.487 352.743 239.844 351.457C239.202 350.492 237.596 348.884 235.347 347.92C233.098 346.955 229.886 346.955 226.994 348.563C225.709 349.527 224.424 350.492 223.139 351.457C221.854 352.422 220.569 353.065 218.963 352.743C216.072 352.421 214.144 348.884 211.574 346.955C209.004 345.026 205.792 344.704 203.543 344.704C198.724 345.347 196.797 348.241 196.797 348.241Z" fill="#FAFAFA"/>
<path d="M250.767 435.704C251.088 436.025 252.373 433.131 256.549 431.523C258.477 430.88 261.368 430.559 263.938 431.523C265.223 431.845 266.508 432.81 268.114 433.453C269.721 434.096 271.327 435.06 273.576 434.739C275.503 434.417 277.109 432.81 278.073 431.523C279.037 430.237 280.001 428.951 280.643 427.665C282.249 425.414 284.819 424.449 287.068 424.449C291.565 424.449 293.493 427.022 293.814 426.7C293.814 426.7 293.493 426.057 292.529 425.092C291.565 424.128 289.638 423.485 287.389 423.163C285.14 423.163 281.928 423.806 279.679 426.379C278.716 427.665 277.752 428.951 276.788 430.237C275.824 431.523 274.539 432.488 273.254 432.81C270.363 433.131 267.472 430.559 264.581 429.594C261.368 428.629 258.477 429.273 256.228 430.237C251.731 432.81 250.767 436.025 250.767 435.704Z" fill="#FAFAFA"/>
<path d="M187.802 454.354C187.802 454.675 190.051 452.424 194.548 452.103C196.797 452.103 199.367 452.424 201.616 454.032C202.579 454.997 203.864 455.961 204.828 457.248C206.113 458.534 207.398 459.82 209.647 460.142C211.896 460.463 213.502 459.499 214.787 458.534C216.072 457.569 217.357 456.605 218.642 455.64C220.89 454.032 223.782 454.032 225.709 454.675C229.885 455.961 231.17 458.855 231.492 458.855C231.492 458.855 231.492 458.212 230.528 456.926C229.885 455.961 228.279 454.354 226.03 453.711C223.782 452.746 220.569 452.746 217.678 454.675C216.393 455.64 215.108 456.605 213.823 457.569C212.538 458.534 211.253 459.177 209.647 458.855C206.756 458.534 204.828 454.997 202.258 453.389C199.688 451.46 196.476 451.138 194.227 451.46C189.408 451.781 187.481 454.354 187.802 454.354Z" fill="#FAFAFA"/>
<path d="M395.65 188.43C393.723 190.681 323.048 285.217 323.048 285.217L333.007 291.005L405.609 197.755L395.65 188.43Z" fill="#263238"/>
<path d="M120.019 255.956C120.019 255.956 186.196 370.428 190.693 372.358C199.367 376.538 301.203 288.433 310.841 280.072C312.126 278.143 315.017 274.606 320.478 266.889C320.478 266.889 328.509 230.232 337.183 233.126C345.857 236.019 332.364 251.776 338.147 265.602C343.608 279.429 369.308 246.309 370.272 243.415L376.697 234.733C376.697 234.733 383.443 254.348 383.122 262.387C381.515 288.754 356.779 319.623 356.779 319.623C356.779 319.623 256.228 445.993 179.771 450.173C157.926 451.46 115.842 388.114 89.8212 341.489C74.08 313.192 81.4688 284.574 107.49 265.602L120.019 255.956Z" fill="#FFBE9D"/>
<path d="M370.593 267.532C370.914 267.532 373.484 263.673 376.375 258.207C378.945 252.74 380.551 248.239 380.23 248.239C379.909 248.239 377.981 252.74 375.411 257.885C372.52 263.03 370.271 267.21 370.593 267.532Z" fill="#EB996E"/>
<path d="M123.231 224.122C125.801 225.73 187.481 340.202 187.481 340.202L108.132 402.262C108.132 402.262 87.5723 351.457 76.6498 309.977C73.7586 298.722 75.3648 268.818 79.541 257.242C85.3235 240.843 94.3185 245.023 107.811 235.376L123.231 224.122Z" fill="#E8505B"/>
<g opacity="0.7">
<path d="M97.2099 224.122C97.2099 224.122 97.8524 223.801 99.4586 222.836C101.065 222.193 103.314 221.228 106.526 221.228C109.739 221.228 113.272 222.836 116.806 225.408C120.34 227.981 123.874 231.839 127.086 236.663C130.299 241.164 133.19 246.952 136.724 252.74C139.936 258.528 143.47 264.959 147.325 271.39C154.713 284.574 163.066 299.044 171.74 314.157C176.88 323.482 182.02 332.164 186.838 340.524L187.16 339.559C165.636 356.602 147.004 371.393 133.511 382.004C127.086 387.149 121.625 391.329 118.091 394.545C116.485 395.831 114.879 397.117 113.915 398.082C112.951 398.725 112.63 399.368 112.63 399.368C112.63 399.368 113.272 399.047 114.236 398.403C115.2 397.439 116.806 396.474 118.412 395.188C122.267 392.294 127.729 388.114 134.154 382.969C147.646 372.358 166.6 357.888 188.123 340.846L188.766 340.524L188.445 339.881C183.626 331.521 178.486 322.517 173.346 313.514C164.672 298.401 156.32 283.931 148.931 271.069C145.076 264.638 141.542 258.207 138.33 252.419C134.796 246.631 131.905 241.164 128.692 236.341C125.159 231.839 121.625 227.981 118.091 225.087C114.236 222.514 110.381 220.907 107.169 220.907C103.956 220.907 101.386 221.871 100.101 222.836C99.4586 223.157 98.8161 223.801 98.4949 223.801C97.2099 224.122 97.2099 224.122 97.2099 224.122Z" fill="black"/>
</g>
<path d="M120.661 331.521C120.982 331.842 122.267 328.948 126.443 327.34C128.371 326.697 131.262 326.376 133.832 327.019C135.117 327.34 136.402 328.305 138.008 328.948C139.615 329.591 141.221 330.556 143.47 330.234C145.397 329.913 147.003 328.305 147.967 327.019C148.931 325.733 149.895 324.125 150.537 323.16C152.143 320.909 154.713 319.945 156.962 319.945C161.46 319.945 163.387 322.196 163.708 322.196C163.708 322.196 163.387 321.552 162.423 320.588C161.46 319.945 159.532 318.98 156.962 318.98C154.713 318.98 151.501 319.945 149.252 322.517C148.288 323.803 147.325 325.09 146.361 326.376C145.397 327.662 144.433 328.627 142.827 328.948C139.936 329.591 137.045 326.697 134.153 326.054C130.941 325.09 128.05 325.733 125.801 326.697C121.625 328.305 120.661 331.521 120.661 331.521Z" fill="#FAFAFA"/>
<path d="M84.6812 316.729C85.0024 316.729 85.6449 313.835 89.1786 311.263C90.7849 309.977 93.3549 309.012 96.2461 309.012C97.5311 309.012 99.1374 309.655 100.744 309.977C102.35 310.298 104.277 310.62 106.205 309.655C108.132 308.69 109.096 306.761 109.739 305.153C110.381 303.546 110.702 301.938 111.345 300.652C112.309 298.079 114.557 296.471 116.806 295.828C120.982 294.542 123.874 296.471 123.874 296.15C123.874 296.15 123.552 295.507 122.267 295.185C120.982 294.542 119.055 294.221 116.806 294.864C114.557 295.507 111.666 297.115 110.381 300.33C109.739 301.938 109.417 303.224 108.775 304.832C108.132 306.44 107.49 307.726 106.205 308.369C103.635 309.655 100.101 307.726 96.8886 307.726C93.6761 307.726 90.7849 309.012 89.1786 310.62C84.3599 313.514 84.3599 316.729 84.6812 316.729Z" fill="#FAFAFA"/>
<path d="M82.7534 269.461C83.0747 269.461 83.7172 266.567 87.2509 263.995C88.8571 262.708 91.4272 261.744 94.3184 261.744C95.6034 261.744 97.2096 262.387 98.8159 262.708C100.422 263.03 102.35 263.352 104.277 262.387C106.205 261.422 107.168 259.493 107.811 257.885C108.453 256.277 108.775 254.67 109.417 253.383C110.381 250.811 112.63 249.203 114.878 248.56C119.055 247.274 121.946 249.203 121.946 248.882C121.946 248.882 121.625 248.239 120.34 247.917C119.055 247.274 117.127 246.952 114.878 247.595C112.63 248.239 109.738 249.846 108.453 253.062C107.811 254.67 107.49 255.956 106.847 257.564C106.205 259.171 105.562 260.458 104.277 261.101C101.707 262.387 98.1734 260.458 94.9609 260.458C91.7484 260.458 88.8571 261.744 87.2509 263.352C82.7534 266.245 82.4322 269.461 82.7534 269.461Z" fill="#FAFAFA"/>
<path d="M100.101 378.146C100.422 378.146 101.065 375.252 104.599 372.679C106.205 371.393 108.775 370.428 111.666 370.428C112.951 370.428 114.557 371.072 116.163 371.393C117.77 371.715 119.697 372.036 121.625 371.072C123.552 370.107 124.516 368.178 125.158 366.57C125.801 364.962 126.122 363.354 126.765 362.068C127.728 359.496 129.977 357.888 132.226 357.245C136.402 355.959 139.293 357.888 139.293 357.566C139.293 357.566 138.972 356.923 137.687 356.602C136.402 355.959 134.475 355.637 132.226 356.28C129.977 356.923 127.086 358.531 125.801 361.747C125.158 363.354 124.837 364.64 124.195 366.248C123.552 367.856 122.91 369.142 121.625 369.785C119.055 371.072 115.521 369.142 112.309 369.142C109.096 369.142 106.205 370.428 104.599 372.036C100.101 374.93 100.101 378.146 100.101 378.146Z" fill="#FAFAFA"/>
</svg>
