<svg width="655" height="452" fill="none" xmlns="http://www.w3.org/2000/svg"><path d="M44.44 363.343L29.85 63.945s-.876-25.975 14.821-28.52c15.697-2.544 588.972-24.28 588.972-24.28s17.358 2.247 17.981 24.4c.623 22.152-18.3 328.52-18.3 328.52s1.488 24.532-21.079 24.256c-22.567-.277-450.315 3.621-450.315 3.621l.474 59.017-52.758-58.531-45.106.298s-19.861.225-20.1-29.383z" fill="#0120A2"/><path d="M59.5 363.946L6.87 126.389s-4.254-20.663 7.957-24.846C27.038 97.36 469.775 5.938 469.775 5.938S483.971 5.36 487.5 23c3.529 17.64 61.548 249.709 61.548 249.709S553.594 292.134 535.5 295c-18.094 2.866-378.083 75.757-378.083 75.757l8.453 47.155-50.22-39.614-36.049 6.408s-15.86 2.897-20.101-20.76z" fill="#fff"/><path d="M65.986 191.868c-2.693.604-4.203.175-4.532-1.289l-2.25-10.84-2.25-10.84c-.88-3.923-2.303-9.845-4.266-17.767-1.95-7.864-3.373-13.786-4.267-17.767l-.118-.527c-.342-1.522-.51-2.96-.507-4.314-.004-1.659.755-2.66 2.277-3.002 4.098-.92 7.643-.332 10.635 1.763 2.992 2.095 4.974 5.309 5.947 9.641.591 2.635.507 5.544-.254 8.728-.76 3.184-1.95 5.696-3.566 7.534 3.908 1.521 7.06 3.919 9.456 7.193 2.441 3.203 4.148 6.971 5.12 11.303.46 2.049.33 4.753-.391 8.113-.883 4.011-2.61 7.135-5.182 9.373-1.56 1.273-3.393 2.146-5.5 2.619l-.352.079zm-7.837-39.011c1.443-.693 2.448-2.241 3.015-4.644.51-1.836.883-4.01 1.118-6.523.031-.683.14-1.569.326-2.656l-.69-3.073c-.394-1.757-1.42-3.31-3.075-4.66-1.656-1.35-3.304-1.841-4.943-1.473-.82.185-1.026 1.184-.618 2.999a279.2 279.2 0 002.502 10.322l2.365 9.708zm8.041 34.168c2.777-1.054 4.764-2.883 5.963-5.489 1.198-2.606 1.448-5.46.752-8.563-.605-2.693-1.391-5.099-2.36-7.219-.922-2.191-1.866-3.793-2.831-4.806-.894-.968-1.748-1.76-2.563-2.376-.815-.617-1.483-.989-2.004-1.118l-.761-.106-3.162.71c1.805 6.666 4.127 16.322 6.966 28.967zm35.255-2.566c-1.288.289-2.71.393-4.265.312-1.484-.036-2.659-.203-3.525-.5-4.488-1.637-7.993-8.075-10.517-19.315l-.533-2.371-.611-2.722-.474-2.108a200.296 200.296 0 01-1.312-6.254 126.024 126.024 0 01-1.01-6.138c-.336-2.323-.487-4.226-.451-5.71.022-1.542.24-3.313.652-5.312.321-1.855.874-3.363 1.66-4.523.843-1.174 2.012-2.266 3.506-3.278 1.32-.973 3.062-1.702 5.228-2.189.878-.197 1.597-.143 2.157.161.56.305.913.779 1.058 1.423.131.586.045 1.159-.26 1.719-.246.547-.626.909-1.14 1.086l-4.127.927c-1.17.263-2.03 1.225-2.58 2.885-.55 1.661-.737 3.702-.563 6.122.212 4.503.62 8.101 1.225 10.794l.099.439 1.717 8.47a189.75 189.75 0 001.737 8.557c.5 2.225.995 4.02 1.486 5.385.766 2.042 1.658 3.687 2.676 4.934 1.058 1.423 2.514 2.295 4.37 2.616.957.154 1.962.113 3.016-.124.644-.144 1.235-.523 1.774-1.136.761-.171 1.415-.133 1.962.113.593.174.961.583 1.106 1.227.513 2.283-.841 3.787-4.061 4.51zm29.499-8.008c-.734.288-1.418.257-2.05-.093-.645-.409-1.066-1.052-1.263-1.93a137.052 137.052 0 01-2.137-8.283 238.69 238.69 0 01-2.241-11.212c-.724-3.773-1.284-6.538-1.678-8.294-1.577-4.012-3.463-10.629-5.657-19.853-.487-2.166-.91-3.915-1.271-5.249-2.986.671-5.165 1.099-6.538 1.284l-.527.118c-.878.197-1.241.771-1.089 1.721l1.332 6.342c.683 3.044 1.185 4.869 1.505 5.473.275.676.439 1.131.492 1.366.105.468.204 1.184.297 2.147.093.963.193 1.678.298 2.147.197.878.514 1.606.952 2.184.352.474.604 1.186.756 2.136l.473 2.108c.466 1.801 1.035 4.472 1.707 8.01.514 2.837.922 4.928 1.224 6.275.382 1.697.874 3.616 1.477 5.756a485.173 485.173 0 001.27 4.419l.727 2.42c.269.923.235 1.73-.102 2.421-.291.619-.847 1.02-1.666 1.204-.293.066-.687.093-1.181.081-.567-.057-.984-.271-1.251-.642-.268-.37-.503-.871-.706-1.501l-1.92-7.318-2.298-10.645c-1.537-6.296-2.654-10.995-3.351-14.098l-1.685-7.093a244.296 244.296 0 00-2.825-10.527l-.984-3.561-.118-.527c-.132-.585-.107-1.021.075-1.308.168-.345.555-.678 1.159-.998 1.105-.556 2.126-.939 3.063-1.149.527-.119.914-.175 1.161-.169.468-.105 1.184-.204 2.147-.298 1.314-.172 2.352-.343 3.113-.514 1.112-.25 2.11-.597 2.995-1.042.604-.32 1.457-.357 2.557-.113 1.087.187 1.781.677 2.082 1.47.302.793.505 1.424.61 1.892.105.469.155.826.149 1.074-.077.755-.003 1.63.22 2.625.119.527.279 1.106.483 1.737.203.631.383 1.297.541 2 .131.585.207 1.06.228 1.424.059.54.221 1.396.484 2.567.433 1.932 1.22 4.614 2.36 8.048l.796 2.312c.177.514.384 1.297.62 2.351.277 1.229.451 2.143.524 2.742.105.468.207 1.06.307 1.776.144.644.351 1.428.62 2.351.244 1.36.726 3.373 1.448 6.04l.522 1.912 3.623 13.668c.144.644.087 1.21-.172 1.699-.214.417-.776.789-1.687 1.117zm23.562-3.446c-1.522.341-3.039.159-4.551-.547-1.498-.647-2.841-1.698-4.029-3.154-2.499-3.189-4.427-6.846-5.783-10.969-1.421-3.862-2.546-7.638-3.374-11.326a14.928 14.928 0 01-.307-1.776l-.355-1.58c-.065-.293-.127-.433-.186-.42l-.355-1.58-1.292-6.167c-.363-1.887-.799-4.925-1.309-9.115a31.05 31.05 0 01.186-8.62c.146-1.263.476-2.259.989-2.989.499-.789 1.158-1.275 1.978-1.459 2.342-.526 4.548-.56 6.618-.103 2.058.399 3.901 1.215 5.531 2.448 1.5 1.201 2.902 2.792 4.208 4.774 1.293 1.923 2.385 4.046 3.275 6.367.903 2.38 1.664 4.946 2.282 7.697l.158.703c.407 1.814.804 3.447 1.192 4.897l1.211 4.986c3.787 16.86 1.757 26.171-6.087 27.933zm-1.18-3.61c1.054-.236 1.928-.863 2.622-1.88.681-1.075 1.091-2.397 1.231-3.966.442-3.235.392-6.606-.15-10.113-.377-3.051-.809-5.66-1.296-7.826-.591-2.634-1.572-6.042-2.941-10.224-1.364-4.429-2.295-7.755-2.795-9.98l-.355-1.581c-.616-2.198-1.811-3.959-3.584-5.283-1.715-1.336-3.567-1.781-5.558-1.334-1.99.447-3.051 1.884-3.182 4.312-.178 1.946.055 4.353.699 7.222.25 1.112.489 2.042.719 2.79l.532 2.371.732 4.079c.159 1.256.402 2.615.731 4.079.71 3.161 1.501 6.273 2.373 9.337a78.827 78.827 0 004.636 12.426c1.909 4.122 3.771 5.979 5.586 5.571zm58.589-6.238c-1.815.408-3.13-1.204-3.945-4.833l-1.262-5.62-1.262-5.62c-.658-2.927-1.724-6.716-3.198-11.366-1.665-5.222-2.721-8.828-3.168-10.819l-1.047-5.483a74.577 74.577 0 00-1.027-5.397c-.063.814-.122 5.07-.176 12.769-.107 7.465-.391 14.416-.852 20.854-.455 6.19-1.238 9.41-2.351 9.659-1.112.25-2.092.132-2.939-.354-.802-.558-1.334-1.422-1.597-2.593-.578-2.576-2.861-7.813-6.849-15.711-3.928-7.912-7.34-14.341-10.234-19.287l1.701 10.041c1.412 8.477 2.654 15.516 3.728 21.117 1.092 5.412 1.862 9.113 2.309 11.104.105.468.233.901.383 1.297l.276 1.23c.224.995.183 1.773-.121 2.333-.292.619-.994 1.053-2.106 1.303-.585.132-1.194.022-1.826-.328-.619-.291-.988-.7-1.106-1.227-1.341-5.972-2.913-15.027-4.717-27.167-1.804-12.14-3.376-21.195-4.717-27.167-.469-.448-.77-.964-.901-1.55-.158-.702.046-1.301.611-1.797.61-.568 1.384-.957 2.32-1.167.761-.171 2.784 2.265 6.069 7.308 3.285 5.043 6.734 10.817 10.347 17.324 3.613 6.506 6.061 11.245 7.343 14.216.114-1.686.166-3.235.156-4.647l.054-2.226c.033-8.616.243-16.442.631-23.478.205-4.29.578-7.694 1.119-10.214.502-2.695 1.192-4.141 2.07-4.339a3.728 3.728 0 012.353.21c.794.252 1.271.729 1.428 1.432.947 4.215 2.542 10.498 4.787 18.849 2.171 7.753 3.743 13.795 4.716 18.127l.957 4.674.87 4.693c.157.703.482 1.737.973 3.103l.954 3.014c.176.514.298.917.363 1.21.125.279.193.448.207.507.463.695.734 1.218.813 1.57.224.995.128 1.939-.286 2.831-.415.893-1.032 1.431-1.851 1.615zm15.579-8.48c-.813-.063-1.335-.468-1.564-1.216l-.296-1.318c-.669-2.432-1.614-6.094-2.836-10.985-1.194-4.221-2.076-7.467-2.647-9.737-.978-3.531-2.386-8.842-4.224-15.931a277.08 277.08 0 01-1.319-5.054 203.863 203.863 0 01-1.192-4.898c-.203-.631-.436-1.532-.699-2.702-.303-1.347-.468-2.355-.495-3.026-.173-1.867.631-2.94 2.414-3.217 1.639-.368 2.727.372 3.265 2.219l.237 1.054 4.881 22.148 2.347 10.45 1.183 5.269c.184.819.459 1.772.826 2.858.354 1.028.613 1.769.776 2.224a30.472 30.472 0 01.242-5.496c.295-1.973.484-3.184.568-3.633.405-2.305.661-4.176.768-5.615.393-4.823.966-10.763 1.718-17.819.166-1.452.325-3.209.476-5.273.463-5.33.823-8.794 1.08-10.389.211-1.523.805-2.579 1.779-3.166.488-.294.995-.5 1.522-.619.82-.184 1.728-.111 2.724.219l.947 4.215c.986 4.39 2.092 8.908 3.319 13.552.282.982.647 2.468 1.094 4.458l.572 2.547c.118.527.247 1.236.385 2.127.197.878.457 1.896.778 3.054l5.588 23.65c.197.878.209 1.89.036 3.036a2.483 2.483 0 01-.622 1.339c-.357.326-.77.542-1.238.647-1.639.368-2.63-.209-2.972-1.731a49.244 49.244 0 01-.88-5.152c-.382-2.251-.705-3.962-.968-5.133-2.72-11.565-4.812-20.196-6.276-25.894-.197-.878-.636-2.286-1.317-4.224l-.974-3.102c-.395.704-.602 1.15-.622 1.339l-.438 4.618c-.253 3.254-.479 5.673-.677 7.255l-2.868 22.966-1.526 11.688c-.192 1.335-.757 2.107-1.694 2.318-.175.039-.569.066-1.181.08zm51.275-11.329c-1.991.447-4.07-4.16-6.24-13.819l-1.036-5.025-.819-4.059-.059-.264-.197-.878a14.234 14.234 0 00-.287-1.688c-.027-.117-.147-.244-.362-.38s-.336-.263-.362-.38l-.02-.088c-.266.183-.78.36-1.541.531-.761.171-1.724.264-2.889.28-.365.02-1.334.084-2.909.192l2.268 10.098c.342 1.522.969 3.903 1.88 7.142.899 3.18 1.526 5.561 1.881 7.141.197.878.134 1.692-.19 2.441-.324.749-.866 1.209-1.627 1.38-1.112.25-2.146-.656-3.101-2.716-.968-2.12-1.853-4.965-2.654-8.536l-1.422-7.152a217.985 217.985 0 00-1.332-6.343l-.335-1.493-.276-1.229c-.211-.937-.378-1.545-.502-1.824l-.099-.439-.88-5.153c-.5-2.224-1.33-5.512-2.492-9.863-1.161-4.352-1.992-7.64-2.492-9.864a2.76 2.76 0 01.289-2.002 2.308 2.308 0 011.579-1.185c1.873-.42 3.204 1.126 3.993 4.638l2.269 10.928a317.455 317.455 0 002.29 11.016c.944.096 2.557-.113 4.84-.625l3.249-.73a3.4 3.4 0 00-.061-1.093c-.631-2.81-1.74-6.927-3.327-12.351-1.566-5.06-2.711-9.2-3.434-12.42-.145-.644-.029-1.223.347-1.738a2.756 2.756 0 011.687-1.117c.409-.091 1.028-.077 1.854.045l.87.174c1.866 8.313 4.65 19.341 8.351 33.084l5.78 22.039c.184.82.006 1.536-.532 2.149-.481.6-1.131.992-1.95 1.176zm31.092-6.152c-1.346.302-2.387.321-3.123.056-.736-.266-1.229-.954-1.479-2.067-.394-1.756-1.358-4.676-2.89-8.759l-.765-1.766-8.989.635c-.049 1.426.065 4.26.341 8.502.293 2.948.164 4.975-.387 6.083-.291.619-.818 1.014-1.579 1.185a3.387 3.387 0 01-2.07-.181c-.69-.337-1.108-.828-1.252-1.472l.077-.478.009-.371c.485-15.913.079-31.411-1.217-46.493a12.321 12.321 0 01-.168-1.162 61.448 61.448 0 00-.377-2.498c-.311-2.205-.523-3.972-.636-5.3-.055-1.34.079-2.384.403-3.133l2.985-.671c.82-.184 1.568-.137 2.246.141.664.22 1.075.681 1.233 1.384.999 4.45 3.099 10.926 6.301 19.432 3.195 8.752 5.2 14.943 6.015 18.573.079.351.429 1.226 1.051 2.623.595 1.281.938 2.126 1.03 2.536.092.41.779 2.101 2.061 5.072 1.158 2.692 1.829 4.447 2.013 5.267l.02.088c.289 1.288.005 2.212-.853 2.774zm-9.582-15.559c-.372-.838-.703-1.902-.993-3.19-1.183-5.269-3.163-11.896-5.94-19.881l-2.929-8.936c.572 14.323 1.179 25.102 1.819 32.337 1.01.389 3.691.279 8.043-.33zm40.701 8.386c-1.405.316-2.85.179-4.335-.41-1.485-.589-2.821-1.611-4.009-3.066a17.19 17.19 0 01-2.498-4.143c-.603-1.587-1.255-3.531-1.956-5.833l-3.216-10.624-7.552 1.696 1.933 8.606.788 3.512 3.304 10.604c.341.969.352 1.704.034 2.206-.259.489-.945.858-2.057 1.108-.82.184-1.431.198-1.835.043-.404-.155-.737-.542-.999-1.16-.327-.91-.708-2.331-1.141-4.263l-1.587-6.654c-1.432-5.828-2.483-10.235-3.153-13.22-.539-2.401-.911-4.193-1.115-5.377l-1.155-5.552c-.315-1.405-.926-3.85-1.832-7.337l-1.527-6.39c-.158-.703-.336-1.77-.534-3.2l-.603-3.094c-.17-.761-.136-1.292.104-1.591.299-.314.917-.575 1.853-.786.937-.21 1.764-.088 2.481.366.762.382 1.177.996 1.243 1.842a23.19 23.19 0 00.526 3.572c.276 1.23.515 2.16.719 2.79l.738 2.878a100.1 100.1 0 011.542 8.51c.397 2.862.97 5.961 1.719 9.298.963-.093 1.679-.192 2.147-.297 1.054-.237 2.758-.865 5.111-1.886-.587-3.435-1.119-7.312-1.597-11.633-.505-4.437-.81-8.396-.915-11.878-.042-1.282.306-3.02 1.043-5.215.161-.651.531-1.195 1.109-1.633a5.157 5.157 0 012.009-.912c1.053-.237 2.557-.113 4.511.37 2.012.471 3.669 1.145 4.973 2.02 2.262 1.583 4.261 3.778 5.999 6.586 1.795 2.794 3.107 6.036 3.936 9.724.407 1.815.671 3.538.792 5.172.147 1.75.609 4.352 1.384 7.806.71 3.161 1.155 5.552 1.334 7.172.617 5.212.331 9.826-.858 13.844-.432 1.635-1.317 3.033-2.655 4.194-1.338 1.162-2.739 1.907-4.203 2.235zm-.788-3.512c1.112-.25 1.901-.981 2.367-2.192.857-3.575 1.303-6.657 1.336-9.248.092-2.603-.286-5.931-1.135-9.984-.949-5.32-1.818-9.738-2.606-13.25l-.936-3.757c-.906-3.486-2.212-6.698-3.917-9.636-.516-.93-1.295-1.8-2.339-2.61-.997-.883-2.037-1.542-3.118-1.975-1.01-.389-1.807-.517-2.393-.385-.468.105-.773.388-.915.85-.142.463-.232 1.16-.269 2.09.022.918.004 1.66-.054 2.226-.05.873-.008 2.154.126 3.846.099.716.157 1.656.172 2.821.273 5.596 1.159 11.731 2.658 18.405l.631 2.81.659 2.527c.23.748.63 2.257 1.201 4.527.617 2.198 1.239 4.149 1.868 5.853.531 1.541 1.755 3.572 3.674 6.093.881.909 1.877 1.239 2.99.989zM115.243 274.432c-.442.222-.78.359-1.014.412-.703.158-1.299-.17-1.789-.982-.392-.65-.706-1.502-.943-2.556l-1.272-6.078a5.087 5.087 0 00-.305-.947l-.373-.838-10.099 2.267c.586-.131-.753.477-4.017 1.825-3.219 1.276-5.745 2.212-7.58 2.809l-3.872 1.238-4.292 1.425.434 1.932c.23.748.433 1.656.611 2.722l.099.44c.21.936.134 1.691-.23 2.265-.362.573-.749.906-1.159.998-.234.053-.611.014-1.132-.115-1.225-.524-2.047-1.446-2.467-2.766l-1.703-6.352c-.63-2.256.051-3.608 2.041-4.055 1.1-.309 1.912-.799 2.438-1.47.525-.672 1.102-1.662 1.73-2.972.616-1.368 1-2.807 1.153-4.317.198-1.582.301-3.45.31-5.604a55.506 55.506 0 00-.318-6.754c-.24-2.16-.624-5.241-1.153-9.242a222.221 222.221 0 00-3.37-18.706l-1.193-4.898c-.25-1.112-.131-2.092.355-2.939.473-.906 1.266-1.484 2.378-1.733.351-.079.621-.109.81-.09 2.798-.136 5.06-.337 6.783-.601l.44-.099c.76-.17 1.166-.415 1.218-.734.369-.821.934-1.317 1.695-1.488a2.855 2.855 0 011.484.036c1.016.141 1.827.881 2.436 2.22L96.31 223.8c1.827 8.137 3.223 14.219 4.189 18.245.473 2.108 1.255 5.314 2.345 9.62l1.172 4.81c.105.469.233.901.384 1.298l.451 1.19c1.197-.146 2.089-.285 2.674-.416.469-.106.813-.214 1.034-.325 1.249-.465 2.463-.399 3.642.197 1.225.525 1.975 1.401 2.251 2.631.355 1.58.77 3.978 1.246 7.192.184.819.388 2.003.613 3.552.159 1.255-.197 2.135-1.068 2.638zm-28.425-8.284c3.212-1.028 5.729-1.87 7.55-2.525a39.411 39.411 0 005.412-2.599c-1.005-7.215-2.415-14.862-4.23-22.941-1.682-7.493-3.822-15.653-6.419-24.478-1.535.283-4.407.774-8.616 1.473l.839 4.147c1.556 9.121 2.746 15.926 3.57 20.414a74.856 74.856 0 01.992 20.44 103.81 103.81 0 00-.199 2.811c-.049 1.426-.342 2.721-.88 3.888l1.98-.63zm43.243-4.637c-1.522.342-3.038.16-4.55-.546-1.498-.648-2.841-1.699-4.029-3.154-2.499-3.19-4.427-6.846-5.784-10.969-1.421-3.863-2.545-7.638-3.373-11.327a14.928 14.928 0 01-.307-1.776l-.355-1.58c-.065-.293-.128-.433-.186-.42l-.355-1.58-1.293-6.167c-.362-1.886-.798-4.925-1.308-9.114a31.096 31.096 0 01.185-8.621c.147-1.263.477-2.259.989-2.989.5-.789 1.159-1.275 1.979-1.459 2.342-.526 4.548-.56 6.618-.103 2.058.399 3.901 1.215 5.531 2.448 1.499 1.201 2.902 2.792 4.208 4.774 1.293 1.924 2.384 4.046 3.275 6.367.903 2.38 1.664 4.946 2.282 7.697l.157.703c.408 1.815.805 3.447 1.192 4.898l1.212 4.985c3.786 16.861 1.757 26.171-6.088 27.933zm-1.179-3.609c1.054-.237 1.928-.864 2.622-1.88.681-1.076 1.091-2.398 1.231-3.967.441-3.235.392-6.606-.15-10.112-.377-3.052-.81-5.661-1.296-7.827-.592-2.634-1.572-6.042-2.942-10.224-1.363-4.428-2.295-7.755-2.794-9.98l-.355-1.58c-.617-2.199-1.812-3.96-3.585-5.283-1.714-1.337-3.567-1.782-5.557-1.335-1.991.447-3.051 1.884-3.183 4.312-.178 1.946.056 4.354.7 7.222a37.75 37.75 0 00.719 2.79l.532 2.371.731 4.079c.159 1.256.403 2.616.732 4.079.71 3.161 1.501 6.274 2.373 9.337a78.63 78.63 0 004.636 12.426c1.909 4.122 3.771 5.979 5.586 5.572zm25.599-3.627c-1.847.538-2.936-.202-3.265-2.219l-1.273-6.079c-.231-1.301-.649-3.298-1.253-5.991l-1.46-6.498c-.644-2.868-1.159-5.028-1.547-6.478-.479-1.86-1.133-4.635-1.961-8.323l-1.853-8.254-.493-2.195c-.355-1.581-.71-2.885-1.063-3.913-.296-1.04-.75-2.107-1.364-3.198-.223-.443-.36-.781-.413-1.015-.223-.995-.069-1.952.463-2.871.59-.932 1.434-1.552 2.534-1.86 1.567-.414 3.069-.843 4.507-1.289a35.252 35.252 0 004.252-1.601c.475-.352 1.093-.337 1.855.045.749.324 1.248.765 1.497 1.324.222.442.21.937-.036 1.484-.259.489-.662.887-1.208 1.194-1.15.627-3.722 1.635-7.715 3.024l4.08 21.867c2.759-.312 5.008-.018 6.748.883 1.74.901 3.215 2.814 4.425 5.74 1.183 2.256 2.083 4.759 2.701 7.511.395 1.756.627 3.61.696 5.562.035 3.99-1.295 7.24-3.99 9.752a34.7 34.7 0 01-1.364 1.32 10.17 10.17 0 01-1.715 1.4 6.56 6.56 0 01-1.785.678zm.691-5.137c1.092-.614 1.988-1.553 2.688-2.817.7-1.264 1.059-2.544 1.075-3.839.015-2.401-.222-4.685-.708-6.851a28.851 28.851 0 00-2.289-6.496c-.667-1.326-1.466-2.285-2.398-2.875-.887-.662-2.097-.851-3.633-.568l5.265 23.446zm21.794.733c-1.458-2.932-2.805-7.149-4.04-12.652l-1.58-7.855a160.945 160.945 0 00-1.579-7.855c-.535-.74-.875-1.433-1.02-2.077l-.059-.263c.336-1.244.063-3.827-.818-7.749l-.819-4.059a98.352 98.352 0 00-.878-4.323c-.776-3.454-1.622-6.123-2.537-8.009-.008-.859.127-1.627.405-2.304.265-.736.691-1.17 1.276-1.302l3.864-.867c1.639-.368 3.159-.31 4.559.175 1.387.427 2.554 1.241 3.5 2.443 1.71 2.137 2.933 4.845 3.669 8.123.526 2.342.911 4.192 1.155 5.552.264 1.724.319 3.341.167 4.851-.005.801-.124 1.504-.357 2.11-.187.534-.495 1.218-.923 2.052-.596 1.179-1.732 2.418-3.408 3.717-.669.58-1.579 1.185-2.729 1.812l2.11 9.396 1.437 5.58.787 2.683c.971 3.226 1.712 5.98 2.225 8.264.157.702-.004 1.353-.484 1.953-.467.658-1.081 1.073-1.842 1.244l-2.081-.64zm-2.873-32.1c3.336-1.303 3.952-6.637 1.848-16.004-.381-1.698-.764-2.995-1.15-3.893-.334-.663-.693-1.166-1.078-1.51-.397-.403-.922-.685-1.573-.846a4.433 4.433 0 00-2.226-.054c-.013-.058-.342-.015-.986.129l1.124 5.006a435.93 435.93 0 002.159 9.2c.683 3.045 1.16 5.029 1.428 5.952l.415 1.844.039.176zm49.232 21.967c-1.698.381-2.691-.072-2.981-1.36l-.414-1.844a19.18 19.18 0 01-.416-2.674c-.239-2.16-.68-4.675-1.325-7.543-.618-2.752-1.569-6.443-2.855-11.074-.709-2.608-1.74-6.65-3.092-12.127l-2.67-10.654-.916-3.668-1.566-6.567c-.211-.936.198-1.581 1.225-1.935 1.041-.295 1.985-.2 2.832.286.847.487 1.382 1.227 1.606 2.223.328 1.463.789 3.789 1.382 6.976l4.804 22.627c.113.775.314 1.806.603 3.094.347 1.274.659 2.526.935 3.756l1.184 5.269.709 3.161c.712 3.714 1.548 6.755 2.51 9.122.301.793.293 1.441-.025 1.942-.259.489-.769.819-1.53.99zm-20.636 4.634c-.82.184-1.578.231-2.275.141-.696-.089-1.12-.609-1.272-1.559-.185-1.372-.472-3.061-.861-5.064a167.76 167.76 0 00-.839-4.147 228.378 228.378 0 01-2.103-10.597c-.198-1.431-.639-3.669-1.323-6.713a252.904 252.904 0 00-1.448-6.039 231.268 231.268 0 00-1.359-5.23c-.282-.982-.603-2.14-.964-3.473a105.654 105.654 0 01-1.094-4.459c-.564-1.964-.971-3.502-1.22-4.614l-.601-2.264-.394-1.756c-.211-.937-.229-1.701-.054-2.294.233-.606.759-1.001 1.579-1.185.761-.17 1.477.007 2.148.533.659.467 1.08 1.11 1.264 1.93.145.644.446 1.713.905 3.209.722 2.667 1.26 4.791 1.615 6.371.434 1.932.715 3.868.843 5.807-.038.377.035.976.219 1.795.158.703.44 1.685.846 2.947.508.07 1.588.227 3.242.471 1.64.185 3.102.533 4.385 1.044 1.27.453 2.332 1.075 3.187 1.867 2.713 2.773 4.333 5.33 4.859 7.672.815 3.63 1.458 7.728 1.931 12.296.299 2.7-.11 4.852-1.226 6.455-1.116 1.604-2.915 3.176-5.397 4.717-.65.392-1.453.788-2.409 1.187-.956.399-1.684.716-2.184.952zm.691-5.137c.729-.04 1.269-.1 1.62-.179 1.171-.263 2.045-.889 2.622-1.88 1.602-2.451 2.094-5.052 1.476-7.803a174.808 174.808 0 00-1.461-7.328c-.868-3.864-1.719-6.286-2.554-7.267-.699-1.196-1.762-2.095-3.189-2.697-1.426-.602-2.969-.901-4.629-.897.524 4.248 1.364 8.948 2.521 14.1.986 4.391 2.184 9.041 3.594 13.951zm68.816-6.598c-1.814.408-3.129-1.203-3.944-4.833l-1.263-5.62-1.262-5.62c-.657-2.927-1.723-6.715-3.197-11.365-1.665-5.223-2.721-8.829-3.168-10.819l-1.047-5.484a75.003 75.003 0 00-1.027-5.396c-.063.813-.122 5.07-.177 12.769-.107 7.465-.391 14.416-.851 20.853-.455 6.19-1.239 9.41-2.351 9.66-1.112.25-2.092.131-2.939-.355-.802-.558-1.334-1.422-1.597-2.593-.578-2.576-2.861-7.813-6.849-15.711-3.929-7.911-7.34-14.34-10.234-19.286l1.701 10.041c1.412 8.477 2.654 15.515 3.727 21.116 1.093 5.412 1.862 9.114 2.309 11.104.106.469.233.901.384 1.298l.276 1.229c.224.995.183 1.773-.122 2.333-.291.619-.993 1.054-2.105 1.303-.586.132-1.194.023-1.826-.327-.619-.292-.988-.701-1.106-1.228-1.341-5.971-2.913-15.027-4.717-27.167-1.804-12.139-3.376-21.195-4.717-27.166-.47-.448-.77-.965-.902-1.55-.157-.703.046-1.302.611-1.798.611-.567 1.384-.956 2.321-1.167.761-.171 2.784 2.265 6.069 7.308 3.284 5.043 6.734 10.818 10.347 17.324 3.613 6.507 6.061 11.245 7.343 14.217.114-1.686.165-3.235.156-4.647l.053-2.226c.033-8.617.244-16.443.632-23.479.205-4.289.578-7.694 1.119-10.213.502-2.696 1.191-4.142 2.07-4.339a3.727 3.727 0 012.353.209c.794.252 1.27.73 1.428 1.432.947 4.215 2.542 10.498 4.786 18.849 2.172 7.753 3.744 13.795 4.717 18.127l.957 4.674.869 4.694c.158.702.483 1.736.974 3.102l.953 3.014c.177.514.298.917.364 1.21.124.279.193.449.206.507.464.695.735 1.219.814 1.57.224.995.128 1.939-.287 2.832-.414.892-1.031 1.43-1.851 1.614zm40.889-12.687c-1.288.29-2.71.394-4.265.312-1.484-.035-2.659-.202-3.526-.499-4.487-1.637-7.993-8.075-10.517-19.315l-.532-2.371-.612-2.722-.473-2.108a200.27 200.27 0 01-1.312-6.254 126.358 126.358 0 01-1.01-6.138c-.337-2.323-.487-4.226-.452-5.71.023-1.542.24-3.313.652-5.312.322-1.855.875-3.363 1.66-4.523.843-1.174 2.012-2.266 3.507-3.278 1.318-.973 3.061-1.703 5.227-2.189.878-.197 1.597-.143 2.158.161.56.305.913.779 1.057 1.423.132.585.045 1.158-.259 1.719-.247.547-.626.909-1.14 1.086l-4.127.927c-1.171.263-2.031 1.224-2.581 2.885-.549 1.661-.737 3.702-.562 6.122.212 4.503.62 8.101 1.224 10.794l.099.439 1.717 8.47a190.833 190.833 0 001.738 8.557c.499 2.224.995 4.02 1.486 5.385.766 2.042 1.658 3.686 2.676 4.934 1.057 1.423 2.514 2.295 4.369 2.616.957.154 1.962.113 3.016-.124.644-.145 1.235-.523 1.774-1.136.761-.171 1.415-.134 1.963.113.592.174.961.583 1.106 1.227.512 2.283-.841 3.786-4.061 4.509zm12.302-2.024a1.909 1.909 0 01-1.328-.163 2.743 2.743 0 01-1.047-.964c-.085-.104-.153-.273-.206-.508-.171-.761.101-1.467.815-2.12 1.482-1.07 2.475-2.4 2.979-3.989.549-1.661.783-3.497.7-5.507-.235-5.974-1.108-12.327-2.62-19.06-.565-2.517-1.021-4.413-1.369-5.688-2.632-9.801-4.547-16.689-5.747-20.663l-.079-.351c-.118-.527-.093-.963.075-1.308.169-.345.533-.642 1.092-.891 3.589-1.544 6.495-2.565 8.72-3.065 1.171-.263 2.055-.431 2.654-.504 1.36-.244 2.476-.064 3.35.539.873.604 1.461 1.579 1.763 2.925l1.133 4.634c1.037 4.072 1.786 7.132 2.246 9.181l.859 4.235c1.394 6.206 3.389 13.998 5.987 23.376 1.194 4.221 2.142 7.483 2.843 9.785.295 1.041.291 1.841-.014 2.402-.246.547-.795.978-1.647 1.292-1.905.551-3.134-.127-3.685-2.032a50.56 50.56 0 00-.88-5.152 85.019 85.019 0 00-1.034-4.196l-2.336-9.991a442.365 442.365 0 00-3.616-14.869 354.079 354.079 0 00-3.208-11.824c-1.076-3.694-1.823-5.925-2.241-6.692-.338.138-1.037.448-2.097.932-1.059.484-2.536 1.031-4.428 1.64.429 2.733.775 4.684 1.038 5.855.302 1.347.653 2.498 1.052 3.454.472 1.554 1.109 3.84 1.909 6.858l.434 1.932c2.13 9.484 3.482 15.914 4.055 19.29.093.963.199 1.708.318 2.235.318 2.511.504 4.437.559 5.778.111 3.234-.964 6.796-3.227 10.686-.609 1.121-1.808 1.944-3.597 2.468l-.175.04zm45.217-10.431c-1.522.342-3.039.16-4.55-.546-1.498-.648-2.841-1.699-4.029-3.154-2.499-3.19-4.427-6.846-5.784-10.969-1.421-3.863-2.545-7.638-3.373-11.326a14.996 14.996 0 01-.307-1.776l-.355-1.581c-.066-.293-.128-.433-.186-.419l-.355-1.581-1.293-6.167c-.362-1.886-.798-4.924-1.309-9.114a31.135 31.135 0 01.186-8.621c.147-1.262.477-2.259.989-2.989.5-.788 1.159-1.275 1.979-1.459 2.341-.526 4.548-.56 6.618-.102 2.057.399 3.901 1.214 5.531 2.447 1.499 1.201 2.902 2.792 4.208 4.774 1.293 1.924 2.384 4.046 3.275 6.367.903 2.38 1.664 4.946 2.282 7.698l.157.702c.408 1.815.805 3.447 1.192 4.898l1.212 4.986c3.786 16.86 1.757 26.17-6.088 27.932zm-1.179-3.609c1.054-.237 1.928-.864 2.622-1.88.681-1.076 1.091-2.398 1.231-3.966.441-3.236.392-6.607-.15-10.113-.378-3.052-.81-5.66-1.296-7.827-.592-2.634-1.572-6.042-2.942-10.223-1.363-4.429-2.295-7.756-2.794-9.981l-.355-1.58c-.617-2.199-1.812-3.96-3.585-5.283-1.714-1.337-3.567-1.782-5.557-1.335-1.991.447-3.052 1.884-3.183 4.312-.178 1.946.055 4.354.7 7.222a38.36 38.36 0 00.718 2.791l.533 2.371.731 4.078c.159 1.256.403 2.616.732 4.079.71 3.161 1.501 6.274 2.373 9.337a78.726 78.726 0 004.635 12.426c1.91 4.122 3.772 5.979 5.587 5.572zm24.918-2.552c-1.288.289-2.203-.089-2.746-1.136-.392-.65-.732-1.619-1.021-2.907-.566-2.517-1.145-5.646-1.739-9.387-.496-3.578-1.053-6.743-1.671-9.494-.697-3.103-1.654-7.777-2.872-14.022l-2.94-13.914c-.119-.527-.384-1.297-.796-2.311l-.756-2.137-.099-.439c-.302-1.346-.321-2.387-.056-3.123.265-.736.954-1.229 2.066-1.479 1.523-.342 3.29-.277 5.302.193 2.012.471 3.579 1.287 4.7 2.45 2.329 2.429 3.967 5.75 4.913 9.965.71 3.162 1.045 5.885 1.004 8.169a17.777 17.777 0 01-1.401 6.495c1.923 1.167 3.417 2.891 4.483 5.173 1.111 2.211 2.068 5.101 2.87 8.672.802 3.571.884 6.812.246 9.723-.735 3.301-2.324 5.81-4.767 7.527-1.507.953-3.081 1.614-4.72 1.982zm-4.743-34.263c3.032-.742 3.758-4.626 2.181-11.651-1.696-7.552-3.784-11.234-6.263-11.046-.341 1.491.047 4.724 1.164 9.7l2.918 12.997zm6.02 29.272c1.782-.83 2.995-2.271 3.642-4.323.646-2.051.706-4.248.18-6.59-.552-2.458-1.185-4.591-1.898-6.399-.563-1.411-1.154-2.539-1.774-3.384a9.712 9.712 0 00-2.105-2.386c-.899-.721-1.837-1.064-2.813-1.029.515 3.389 1.39 7.836 2.626 13.339.079.351.27 1.476.574 3.376l.495 3.025c.026.117.075.198.147.244l.039.175.887 3.952zm31.668-1.577c-1.522.342-3.038.16-4.55-.546-1.498-.648-2.841-1.699-4.029-3.154-2.499-3.19-4.427-6.846-5.784-10.969-1.421-3.863-2.545-7.638-3.373-11.326a14.996 14.996 0 01-.307-1.776l-.355-1.581c-.065-.293-.128-.432-.186-.419l-.355-1.581-1.293-6.167c-.362-1.886-.798-4.924-1.308-9.114a31.089 31.089 0 01.185-8.62c.147-1.263.477-2.26.989-2.99.5-.788 1.159-1.275 1.979-1.459 2.342-.526 4.548-.56 6.618-.102 2.058.399 3.901 1.215 5.531 2.447 1.499 1.201 2.902 2.792 4.208 4.774 1.293 1.924 2.384 4.046 3.275 6.368.903 2.38 1.664 4.945 2.282 7.697l.157.702a128.17 128.17 0 001.192 4.898l1.212 4.986c3.786 16.86 1.757 26.171-6.088 27.932zm-1.179-3.609c1.054-.237 1.928-.863 2.622-1.88.681-1.076 1.091-2.398 1.231-3.966.442-3.236.392-6.607-.15-10.113-.377-3.052-.81-5.66-1.296-7.826-.592-2.635-1.572-6.043-2.942-10.224-1.363-4.429-2.295-7.756-2.794-9.981l-.355-1.58c-.617-2.198-1.812-3.959-3.585-5.283-1.714-1.337-3.567-1.782-5.557-1.335-1.991.447-3.051 1.884-3.183 4.312-.178 1.946.056 4.354.7 7.222.249 1.113.489 2.043.719 2.791l.532 2.371.731 4.079c.159 1.255.403 2.615.732 4.078.71 3.162 1.501 6.274 2.373 9.337a78.679 78.679 0 004.636 12.427c1.909 4.121 3.771 5.978 5.586 5.571zm58.588-6.238c-1.814.407-3.129-1.204-3.944-4.834l-1.262-5.62-1.263-5.62c-.657-2.927-1.723-6.715-3.197-11.365-1.665-5.222-2.721-8.829-3.168-10.819l-1.047-5.484a75.003 75.003 0 00-1.027-5.396c-.063.814-.122 5.07-.177 12.769-.107 7.465-.391 14.416-.851 20.853-.455 6.19-1.239 9.41-2.351 9.66-1.112.25-2.092.132-2.939-.355-.802-.558-1.334-1.422-1.597-2.593-.578-2.576-2.861-7.813-6.849-15.711-3.929-7.911-7.34-14.34-10.234-19.286l1.701 10.041c1.412 8.477 2.654 15.516 3.727 21.116 1.093 5.413 1.862 9.114 2.309 11.104.106.469.233.901.384 1.298l.276 1.229c.224.995.183 1.773-.122 2.334-.291.618-.993 1.053-2.105 1.303-.586.131-1.194.022-1.826-.328-.619-.292-.988-.701-1.106-1.228-1.341-5.971-2.913-15.027-4.717-27.166-1.804-12.14-3.376-21.196-4.717-27.167-.47-.448-.77-.965-.902-1.55-.157-.703.046-1.302.611-1.798.611-.567 1.385-.956 2.321-1.167.761-.17 2.784 2.266 6.069 7.308 3.285 5.043 6.734 10.818 10.347 17.324 3.613 6.507 6.061 11.245 7.343 14.217.114-1.686.165-3.235.156-4.647l.053-2.226c.033-8.617.244-16.443.632-23.479.205-4.289.578-7.693 1.119-10.213.502-2.696 1.191-4.142 2.07-4.339a3.734 3.734 0 012.353.209c.794.252 1.27.73 1.428 1.432.947 4.215 2.542 10.498 4.786 18.85 2.172 7.752 3.744 13.795 4.717 18.127l.957 4.673.869 4.694c.158.702.483 1.737.974 3.102l.953 3.014c.177.514.298.917.364 1.21.124.28.193.449.206.507.464.696.735 1.219.814 1.57.224.995.128 1.939-.287 2.832-.414.892-1.031 1.43-1.851 1.615zM114.3 346.223c-.735.288-1.418.257-2.05-.093-.646-.409-1.067-1.052-1.264-1.93a136.89 136.89 0 01-2.137-8.284 240.98 240.98 0 01-2.241-11.211c-.724-3.773-1.283-6.538-1.678-8.294-1.577-4.012-3.463-10.629-5.657-19.853-.486-2.166-.91-3.915-1.27-5.249-2.987.671-5.166 1.099-6.538 1.284l-.527.118c-.879.197-1.242.771-1.09 1.721l1.332 6.342c.684 3.044 1.186 4.868 1.506 5.473.275.676.438 1.131.491 1.366.105.468.204 1.184.298 2.147.093.962.192 1.678.297 2.146.197.879.515 1.607.952 2.185.352.474.605 1.186.757 2.136l.473 2.108c.466 1.801 1.035 4.472 1.706 8.01.514 2.837.922 4.928 1.225 6.275.381 1.697.873 3.616 1.477 5.756.59 2.081 1.013 3.554 1.269 4.419l.728 2.419c.269.924.235 1.731-.102 2.422-.292.619-.847 1.02-1.667 1.204-.293.066-.686.093-1.18.081-.567-.058-.984-.271-1.252-.642-.267-.37-.503-.871-.706-1.501l-1.92-7.318-2.298-10.645c-1.537-6.296-2.654-10.995-3.35-14.098l-1.686-7.093a243.432 243.432 0 00-2.825-10.527l-.984-3.561-.118-.527c-.132-.585-.106-1.021.075-1.308.169-.345.555-.678 1.16-.998 1.105-.556 2.126-.939 3.062-1.149.527-.119.914-.175 1.162-.169.468-.105 1.183-.204 2.146-.298 1.315-.172 2.352-.343 3.113-.514 1.113-.25 2.11-.597 2.995-1.042.605-.32 1.457-.357 2.557-.113 1.088.187 1.782.676 2.083 1.47.301.793.504 1.424.609 1.892.106.469.155.826.149 1.074-.076.755-.003 1.63.221 2.625.118.527.279 1.106.482 1.737.203.631.384 1.297.541 2 .132.585.208 1.06.228 1.424.06.54.221 1.396.484 2.567.434 1.932 1.221 4.614 2.361 8.048l.796 2.312c.177.514.383 1.297.62 2.351.276 1.229.45 2.143.523 2.742.106.468.208 1.06.307 1.776.145.644.351 1.428.62 2.351.244 1.36.727 3.373 1.449 6.04l.521 1.912 3.623 13.668c.145.644.087 1.21-.172 1.699-.214.417-.776.789-1.686 1.117zm17.208-2.573c-.761.171-1.523.065-2.285-.317-.704-.396-1.17-.967-1.4-1.715l-.512-2.283-.395-1.757a17.283 17.283 0 01-.502-1.824c-.276-1.229-.784-3.083-1.525-5.561l-1.438-5.58c-.644-2.869-1.516-7.162-2.615-12.88-.91-5.146-1.753-9.446-2.528-12.9-.184-.82-.548-2.029-1.092-3.629-.557-1.658-.921-2.868-1.091-3.629-.934-4.156-.171-6.511 2.288-7.063 1.932-.434 4.242-.553 6.93-.357 2.747.183 4.238.801 4.475 1.855.131.585-.007 1.2-.416 1.846-.363.573-.863 1.085-1.5 1.535-2.656-.326-5.012-.411-7.068-.257.256.865.568 2.117.936 3.756.526 2.342.97 4.456 1.332 6.342.455 2.85.841 4.977 1.156 6.382l.579 1.346 1.385-.403a14.927 14.927 0 011.737-.483c2.81-.631 4.399-.127 4.767 1.513.145.644.006 1.259-.416 1.846-.434.528-1.062.884-1.881 1.068-1.054.236-1.887.362-2.498.376l-2.196.493c.459 1.496 1.017 3.708 1.675 6.635a326.511 326.511 0 011.686 7.923c.627 3.61 1.137 6.293 1.531 8.05.737 3.278 1.163 4.904 1.28 4.878l2.878-.739a64.052 64.052 0 013.581-.896c2.225-.5 3.495-.047 3.81 1.358.184.82-.058 1.52-.727 2.101-.598.626-1.423 1.057-2.477 1.294l-7.464 1.676zm56.366-2.511c-.442.222-.781.36-1.015.412-.702.158-1.298-.169-1.788-.982-.392-.65-.706-1.501-.943-2.555l-1.273-6.079a5.003 5.003 0 00-.305-.946l-.372-.839-10.099 2.268c.585-.132-.754.476-4.018 1.824-3.218 1.277-5.745 2.213-7.579 2.809l-3.872 1.239-4.292 1.425.433 1.932c.23.748.434 1.655.612 2.722l.098.439c.211.937.134 1.692-.229 2.265-.363.574-.75.906-1.159.998-.234.053-.612.015-1.133-.114-1.225-.525-2.047-1.447-2.466-2.767l-1.703-6.351c-.63-2.257.05-3.609 2.041-4.056 1.099-.308 1.911-.798 2.437-1.47.526-.671 1.103-1.662 1.731-2.971a13.868 13.868 0 001.152-4.317c.198-1.582.302-3.45.31-5.604a55.603 55.603 0 00-.318-6.755c-.239-2.16-.623-5.241-1.153-9.242a222.251 222.251 0 00-3.37-18.706l-1.192-4.898c-.25-1.112-.132-2.092.354-2.939.473-.906 1.266-1.483 2.378-1.733.352-.079.622-.109.81-.09 2.799-.136 5.06-.336 6.784-.601l.439-.098c.761-.171 1.167-.416 1.218-.735.369-.821.935-1.317 1.696-1.488a2.852 2.852 0 011.483.036c1.016.141 1.828.881 2.436 2.22l2.933 15.115c1.827 8.137 3.224 14.219 4.189 18.246.474 2.107 1.255 5.314 2.345 9.62l1.173 4.81c.105.468.233.9.383 1.297l.452 1.19c1.197-.146 2.088-.285 2.674-.416.468-.105.813-.213 1.034-.324 1.248-.465 2.462-.4 3.641.196 1.225.525 1.975 1.402 2.251 2.631.355 1.581.771 3.978 1.246 7.192.184.82.389 2.004.614 3.552.159 1.256-.197 2.135-1.068 2.638zm-28.426-8.283c3.213-1.029 5.729-1.871 7.55-2.526a39.31 39.31 0 005.412-2.599c-1.005-7.215-2.415-14.862-4.229-22.941-1.683-7.493-3.822-15.652-6.419-24.478-1.535.283-4.408.775-8.617 1.474l.839 4.147c1.557 9.12 2.746 15.925 3.57 20.414a74.863 74.863 0 01.992 20.439 105.82 105.82 0 00-.198 2.812c-.049 1.425-.343 2.721-.88 3.887l1.98-.629zm50.929-7.286c-1.346.302-2.387.321-3.123.056-.736-.265-1.229-.954-1.479-2.066-.394-1.757-1.358-4.677-2.89-8.76l-.765-1.765-8.989.635c-.049 1.425.065 4.259.341 8.502.293 2.947.164 4.974-.387 6.082-.291.619-.818 1.014-1.579 1.185a3.38 3.38 0 01-2.07-.181c-.69-.337-1.108-.827-1.252-1.471l.077-.479.009-.371c.485-15.913.079-31.411-1.217-46.493a12.3 12.3 0 01-.168-1.161 61.34 61.34 0 00-.377-2.499c-.31-2.205-.523-3.971-.636-5.299-.055-1.34.079-2.385.403-3.134l2.985-.671c.82-.184 1.569-.137 2.246.142.664.219 1.075.681 1.233 1.383.999 4.449 3.099 10.927 6.301 19.432 3.195 8.752 5.2 14.943 6.015 18.573.079.351.429 1.226 1.051 2.624.595 1.28.938 2.126 1.03 2.535.092.41.779 2.101 2.062 5.072 1.157 2.692 1.828 4.447 2.012 5.267l.02.088c.289 1.288.005 2.213-.853 2.774zm-9.581-15.559c-.373-.838-.704-1.902-.993-3.189-1.184-5.269-3.164-11.896-5.941-19.882l-2.929-8.935c.572 14.322 1.179 25.101 1.819 32.337 1.01.388 3.691.278 8.044-.331zm19.294 13.286c-.111-.221-.32-.605-.628-1.151-.248-.559-.389-1.05-.423-1.473-1.407-6.817-2.369-11.92-2.884-15.31-.218-1.242-.596-3.064-1.135-5.464-.973-4.332-2.354-9.526-4.144-15.58-2.034-7.415-3.485-13.054-4.353-16.918-.197-.878-.023-1.747.522-2.607a3.549 3.549 0 012.31-1.626c3.336-.749 6.293-1.137 8.871-1.162 1.223-.029 2.076.21 2.559.717.469.448.79 1.329.962 2.643-.701.711-1.491 1.165-2.369 1.362-.293.066-.745.106-1.356.12-.554.002-1.985.2-4.294.596l-.176.039c-.82.184-1.131.715-.934 1.593 1.614 8.555 2.552 13.417 2.815 14.588 1.484 6.062 2.633 10.632 3.447 13.708.092.41.233.901.423 1.473.19.572.302 1.07.335 1.493.43 2.732.979 5.591 1.65 8.577 1.091 4.859 1.941 8.235 2.551 10.127.23 1.301.223 2.225-.024 2.773-.232.605-.817 1.013-1.754 1.224-.234.052-.891.138-1.971.258zm30.453-5.824c-1.522.342-3.039.16-4.55-.546-1.498-.648-2.841-1.699-4.029-3.154-2.5-3.19-4.428-6.847-5.784-10.97-1.421-3.862-2.545-7.637-3.373-11.326a14.928 14.928 0 01-.307-1.776l-.355-1.58c-.066-.293-.128-.433-.186-.42l-.355-1.58-1.293-6.167c-.362-1.886-.798-4.925-1.309-9.115a31.128 31.128 0 01.186-8.62c.147-1.263.477-2.259.989-2.989.5-.789 1.159-1.275 1.979-1.459 2.341-.526 4.547-.56 6.618-.103 2.057.399 3.901 1.215 5.531 2.448 1.499 1.201 2.902 2.792 4.208 4.774 1.293 1.924 2.384 4.046 3.275 6.367.903 2.38 1.664 4.946 2.281 7.697l.158.703c.408 1.815.805 3.447 1.192 4.898l1.212 4.985c3.786 16.86 1.757 26.171-6.088 27.933zm-1.179-3.609c1.054-.237 1.927-.864 2.622-1.88.68-1.076 1.091-2.398 1.23-3.967.442-3.235.393-6.606-.149-10.113-.378-3.051-.81-5.66-1.296-7.826-.592-2.634-1.572-6.042-2.942-10.224-1.363-4.428-2.295-7.755-2.794-9.98l-.355-1.58c-.617-2.199-1.812-3.96-3.585-5.283-1.714-1.337-3.567-1.782-5.557-1.335-1.991.447-3.052 1.884-3.183 4.312-.178 1.946.055 4.354.7 7.222.249 1.112.489 2.043.718 2.79l.533 2.371.731 4.079c.159 1.256.403 2.616.732 4.079.71 3.161 1.501 6.274 2.373 9.337a78.726 78.726 0 004.635 12.426c1.91 4.122 3.772 5.979 5.587 5.572zm23.122-2.333a32.78 32.78 0 00-.627-1.151c-.249-.559-.39-1.05-.423-1.473-1.408-6.817-2.37-11.92-2.885-15.31-.217-1.242-.596-3.064-1.135-5.464-.972-4.332-2.354-9.526-4.144-15.58-2.034-7.415-3.485-13.054-4.352-16.918-.198-.878-.024-1.747.521-2.607a3.553 3.553 0 012.31-1.626c3.337-.749 6.294-1.137 8.871-1.162 1.223-.029 2.076.21 2.559.717.47.448.79 1.329.963 2.643-.702.711-1.491 1.165-2.369 1.362-.293.066-.745.106-1.357.12-.553.002-1.985.2-4.294.596l-.176.039c-.819.184-1.13.715-.933 1.593 1.613 8.555 2.551 13.417 2.814 14.588 1.485 6.062 2.634 10.631 3.448 13.708.092.41.233.901.423 1.473.19.572.301 1.07.335 1.493.429 2.732.979 5.591 1.649 8.577 1.091 4.859 1.942 8.235 2.551 10.127.231 1.301.223 2.225-.023 2.772-.233.606-.818 1.014-1.755 1.225-.234.052-.891.138-1.971.258zm30.454-5.824c-1.523.342-3.039.16-4.551-.546-1.498-.648-2.841-1.699-4.029-3.154-2.499-3.19-4.427-6.847-5.784-10.97-1.42-3.862-2.545-7.637-3.373-11.326a14.928 14.928 0 01-.307-1.776l-.355-1.58c-.065-.293-.127-.433-.186-.42l-.355-1.58-1.292-6.167c-.363-1.886-.799-4.925-1.309-9.115a31.09 31.09 0 01.185-8.62c.147-1.263.477-2.259.99-2.989.499-.789 1.158-1.275 1.978-1.459 2.342-.526 4.548-.56 6.618-.103 2.058.399 3.901 1.215 5.531 2.448 1.499 1.201 2.902 2.792 4.208 4.774 1.293 1.924 2.385 4.046 3.275 6.367.903 2.38 1.664 4.946 2.282 7.697l.157.703a126.64 126.64 0 001.193 4.898l1.211 4.985c3.786 16.86 1.757 26.171-6.087 27.933zm-1.18-3.609c1.054-.237 1.928-.864 2.622-1.88.681-1.076 1.091-2.398 1.231-3.967.442-3.235.392-6.606-.15-10.113-.377-3.051-.809-5.66-1.296-7.826-.591-2.634-1.572-6.042-2.941-10.224-1.364-4.428-2.295-7.755-2.795-9.98l-.355-1.58c-.617-2.199-1.811-3.96-3.585-5.283-1.714-1.337-3.567-1.782-5.557-1.335-1.99.447-3.051 1.884-3.183 4.312-.177 1.946.056 4.354.7 7.222.25 1.112.489 2.043.719 2.79l.532 2.371.732 4.079c.159 1.256.402 2.616.731 4.079.71 3.161 1.501 6.274 2.373 9.337a78.827 78.827 0 004.636 12.426c1.909 4.122 3.771 5.979 5.586 5.572zm24.918-2.552c-1.288.289-2.203-.089-2.745-1.136-.392-.65-.733-1.619-1.022-2.907-.565-2.517-1.145-5.646-1.739-9.387-.496-3.578-1.053-6.743-1.671-9.494-.697-3.103-1.654-7.777-2.872-14.022l-2.94-13.914c-.118-.527-.384-1.297-.796-2.312l-.756-2.136-.099-.439c-.302-1.346-.321-2.388-.056-3.124.266-.736.954-1.228 2.067-1.478 1.522-.342 3.289-.278 5.301.193 2.012.471 3.579 1.287 4.701 2.45 2.328 2.428 3.966 5.75 4.913 9.965.709 3.162 1.044 5.884 1.004 8.169a17.818 17.818 0 01-1.401 6.495c1.922 1.167 3.416 2.891 4.482 5.173 1.111 2.21 2.068 5.101 2.87 8.672.802 3.571.884 6.812.246 9.722-.735 3.302-2.323 5.811-4.767 7.528-1.507.953-3.081 1.614-4.72 1.982zm-4.742-34.263c3.031-.743 3.758-4.626 2.18-11.651-1.696-7.552-3.783-11.234-6.262-11.047-.342 1.492.046 4.725 1.163 9.701l2.919 12.997zm6.02 29.272c1.781-.831 2.995-2.272 3.641-4.323.646-2.051.706-4.248.181-6.59-.553-2.458-1.185-4.592-1.899-6.399-.563-1.411-1.154-2.539-1.774-3.384a9.731 9.731 0 00-2.104-2.387c-.9-.72-1.838-1.063-2.814-1.028.515 3.389 1.391 7.836 2.626 13.338.079.352.27 1.477.574 3.377l.495 3.025c.026.117.075.198.147.244l.039.175.888 3.952zm22.384-14.989c-.586.132-1.306-.475-2.162-1.82-.869-1.404-1.638-3.599-2.309-6.584-.236-1.054-.625-3.058-1.165-6.011-.369-2.193-.85-4.606-1.441-7.24l-3.41-14.362-3.409-14.362c-.211-.937-.008-1.813.609-2.628.603-.873 1.373-1.415 2.31-1.625a2.085 2.085 0 011.631.279c.501.318.825.799.969 1.443 1.157 5.152 2.435 12.213 3.835 21.184 1.551 9.922 2.8 16.99 3.747 21.205.697 3.102 1.144 5.37 1.343 6.801.243 1.359.301 2.3.172 2.821-.071.507-.311.807-.72.899zm1.791 15.371c-.703.158-1.448-.013-2.237-.512-.73-.513-1.2-1.237-1.41-2.174-.237-1.054-.089-2.04.442-2.959.519-.977 1.275-1.577 2.271-1.801 1.053-.237 1.994-.017 2.822.658.874.603 1.448 1.519 1.725 2.749.46 2.049-.745 3.395-3.613 4.039z" fill="#0E2EB6"/></svg>