<svg width="378" height="479" viewBox="0 0 378 479" fill="none" xmlns="http://www.w3.org/2000/svg">
<path d="M230.964 94.1025C230.662 88.6533 235.49 80.7823 240.016 76.5441C244.543 72.0032 247.56 66.2513 245.146 57.1693C243.336 50.2065 238.809 50.812 237.3 46.8765C236.093 43.8492 236.697 40.5192 236.395 37.1891C235.49 25.9881 223.42 17.2089 212.556 20.2362C209.539 9.64066 199.581 1.46694 188.718 0.256014C177.854 -0.954908 166.388 5.0997 161.258 14.7871C154.921 11.457 147.075 11.7598 141.04 15.0898C135.005 18.4198 130.78 25.0799 130.177 32.0427C124.142 27.5018 114.787 29.3181 109.959 35.07C105.131 40.8219 104.829 49.6011 108.451 56.2612C112.072 62.9212 119.314 67.1595 126.556 68.3704C134.1 69.5813 141.644 67.7649 148.282 64.4349C154.921 61.1049 160.956 56.2612 166.086 50.812" fill="#263238"/>
<path d="M190.5 478.102C86.9466 478.102 3 395.947 3 294.602C3 193.258 86.9466 111.102 190.5 111.102C294.053 111.102 378 193.258 378 294.602C378 395.947 294.053 478.102 190.5 478.102Z" fill="#E0E0E0"/>
<path d="M50.0751 313.717L64.5799 276.513L116.555 309.18L70.0191 380.562C70.0191 380.562 51.2839 356.062 50.0751 313.717Z" fill="#EB996E"/>
<path d="M193.309 233.26C174.574 233.26 159.163 218.742 158.256 200.292C157.35 184.866 156.745 170.045 156.745 170.045C156.745 170.045 128.34 167.928 125.621 140.101C122.901 112.274 122.599 47.5455 122.599 47.5455C154.026 30.9098 192.101 32.7246 222.017 51.7801L224.736 53.5949L228.06 198.174C228.362 217.23 212.649 232.958 193.309 233.26Z" fill="#FFBE9D"/>
<path d="M176.689 90.4959C174.574 91.1008 173.365 93.5206 173.97 95.6379C174.574 97.7551 176.991 98.965 179.107 98.3601C181.222 97.7551 182.431 95.3354 181.826 93.2181C181.222 90.7984 179.107 89.5885 176.689 90.4959Z" fill="#263238"/>
<path d="M169.135 92.0082C169.739 92.6132 172.156 90.1934 176.085 89.891C180.013 89.5885 183.035 91.4033 183.337 90.7984C183.639 90.4959 183.035 89.5885 181.826 88.9836C180.618 88.0762 178.502 87.4712 176.085 87.4712C173.667 87.7737 171.552 88.6811 170.646 89.5885C169.135 90.7984 168.832 91.7058 169.135 92.0082Z" fill="#263238"/>
<path d="M134.082 90.4959C131.966 91.1008 130.758 93.5206 131.362 95.6379C131.966 97.7551 134.384 98.965 136.499 98.3601C138.614 97.7551 139.823 95.3354 139.219 93.2181C138.614 90.7984 136.499 89.5885 134.082 90.4959Z" fill="#263238"/>
<path d="M125.923 92.0082C126.527 92.6132 128.945 90.1934 132.873 89.891C136.801 89.5885 139.823 91.4033 140.125 90.7984C140.427 90.4959 139.823 89.5885 138.614 88.9836C137.406 88.0762 135.29 87.4712 132.873 87.4712C130.455 87.7737 128.34 88.6811 127.434 89.5885C125.923 90.7984 125.621 91.7058 125.923 92.0082Z" fill="#263238"/>
<path d="M155.234 122.255C155.234 121.953 152.817 121.65 148.888 121.348C147.982 121.348 147.075 121.045 147.075 120.743C146.773 120.138 147.075 118.928 147.68 117.718C148.586 114.996 149.191 112.576 150.097 109.551C153.421 98.0576 155.536 88.6811 154.932 88.3786C154.328 88.0762 151.306 97.4527 147.982 108.946C147.075 111.669 146.471 114.391 145.867 117.113C145.564 118.323 144.96 119.835 145.564 121.348C145.867 122.255 146.773 122.557 147.378 122.86C147.982 122.86 148.586 122.86 149.191 122.86C152.817 122.86 155.234 122.557 155.234 122.255Z" fill="#263238"/>
<path d="M156.745 169.44C156.745 169.44 174.574 169.44 192.705 156.131C192.705 156.131 185.755 177.002 157.35 176.699L156.745 169.44Z" fill="#EB996E"/>
<path d="M225.643 94.428C225.643 92.3107 227.456 90.1934 229.571 90.1934C234.708 89.8909 243.472 91.7057 244.68 106.224C246.191 126.792 226.247 121.952 225.945 121.348C225.945 121.045 225.643 102.595 225.643 94.428Z" fill="#FFBE9D"/>
<path d="M230.478 113.483C230.478 113.483 230.78 113.786 231.384 114.088C231.989 114.391 232.895 114.391 234.104 114.088C236.219 113.181 237.73 109.551 237.73 105.922C237.73 104.107 237.126 102.292 236.219 100.78C235.615 99.2675 234.406 98.3601 233.197 98.3601C231.989 98.0576 231.384 98.965 231.082 99.5699C230.78 100.175 231.082 100.477 230.78 100.477C230.78 100.477 230.176 100.175 230.478 99.2675C230.478 98.965 230.78 98.3601 231.082 98.0576C231.686 96.8477 232.593 96.8477 233.197 96.8477C234.708 96.8477 236.219 98.0576 237.126 99.8724C238.032 101.385 238.637 103.502 238.939 105.619C239.241 109.854 237.126 113.786 234.406 114.996C232.895 115.601 231.686 114.996 231.082 114.693C230.478 113.786 230.176 113.483 230.478 113.483Z" fill="#EB996E"/>
<path d="M187.266 80.8169C186.359 82.0268 182.733 81.4218 177.898 81.4218C173.365 81.1194 169.739 81.1194 168.833 79.9095C167.926 78.3972 172.459 75.07 178.2 75.3725C184.546 75.675 188.475 79.607 187.266 80.8169Z" fill="#263238"/>
<path d="M142.241 79.607C141.636 81.4218 138.312 82.0268 134.384 82.0268C130.456 82.0268 127.132 81.4218 126.829 79.607C126.225 77.7922 129.851 75.3725 134.686 75.3725C139.219 75.07 142.845 77.7922 142.241 79.607Z" fill="#263238"/>
<path d="M118.67 56.317C118.67 56.317 135.593 64.4837 157.652 53.5948C172.157 46.3356 189.079 42.706 192.705 45.7307C196.331 48.7554 197.238 63.5763 211.44 67.8108C211.44 67.8108 210.534 96.2427 221.715 95.3353C233.197 94.4279 225.945 50.2677 225.945 50.2677L198.144 36.6567L167.926 30.9098L139.521 34.8419L117.462 40.8912L118.67 56.317Z" fill="#263238"/>
<path d="M308.441 220.859C278.827 190.31 226.549 193.637 226.549 193.637L183.337 224.489L158.861 196.057C158.861 196.057 133.175 198.779 109.001 211.483L107.187 212.088V212.39C88.15 222.674 61.2558 247.476 35.8725 271.371L66.3929 299.803L100.237 330.05C100.237 330.05 100.237 330.353 100.237 330.655C100.539 332.47 95.4023 373.908 90.2652 405.364C121.39 435.006 160.674 447.407 204.49 439.846C218.39 437.426 225.038 434.099 238.032 430.772C257.07 425.932 270.668 409.297 272.481 389.636C274.898 363.321 276.409 330.655 276.409 330.655" fill="#455A64"/>
<path d="M131.966 201.501C131.966 201.501 131.06 203.316 130.153 206.341C128.945 209.366 127.434 214.205 125.621 219.952C121.994 231.446 117.462 247.476 113.231 265.02C109.001 282.865 105.677 299.198 103.561 310.995C102.655 317.044 101.748 321.581 101.446 324.908C100.842 328.235 100.842 330.05 100.842 330.05C100.842 330.05 101.446 328.235 102.05 324.908C102.655 321.278 103.561 316.741 104.77 310.995C107.188 299.198 110.512 283.168 114.742 265.322C118.973 247.476 123.505 231.748 126.829 220.254C128.34 214.81 129.851 209.97 130.758 206.643C131.362 203.316 131.966 201.501 131.966 201.501Z" fill="#263238"/>
<path d="M103.864 310.692C104.166 310.39 91.1721 299.501 74.8543 286.192C58.5364 272.884 45.2404 262.6 44.9382 262.902C44.6361 263.205 57.6299 274.094 73.9477 287.402C90.2656 300.408 103.864 310.995 103.864 310.692Z" fill="#263238"/>
<path opacity="0.2" d="M269.459 262.902L296.051 350.315L286.079 355.457L276.41 330.655C276.41 330.655 266.438 278.631 269.459 262.902Z" fill="black"/>
<g opacity="0.2">
<path d="M134.686 201.501C120.484 209.063 156.141 227.211 172.459 226.606L160.674 195.755C160.674 195.755 139.521 199.082 134.686 201.501Z" fill="black"/>
</g>
<path d="M231.082 195.755V172.465C231.082 172.465 186.057 183.958 184.244 211.18C184.244 211.18 178.503 181.236 155.235 179.724L151.911 221.767L179.107 245.359H206.606L228.06 226.909L230.78 197.872" fill="#455A64"/>
<path d="M173.97 340.939C173.97 340.939 173.97 339.124 173.97 336.099C173.97 332.772 173.97 328.235 173.97 322.488C173.97 310.995 174.272 295.266 175.783 278.026C177.294 260.785 179.409 245.057 181.524 233.865C182.431 228.421 183.337 223.884 183.942 220.557C184.546 217.532 184.848 215.717 184.546 215.717C184.546 215.717 183.942 217.532 183.337 220.557C182.431 223.582 181.524 228.119 180.618 233.865C178.502 245.057 176.085 260.785 174.574 278.328C173.063 295.871 173.063 311.6 173.365 323.093C173.668 328.84 173.668 333.377 173.97 336.704C173.668 339.124 173.97 340.939 173.97 340.939Z" fill="#263238"/>
<path d="M186.359 203.619C186.359 203.619 187.266 203.316 189.079 203.921C190.892 204.526 192.403 206.643 193.612 209.668C196.331 215.717 199.958 224.489 202.073 234.773L202.375 235.68L203.282 235.075C206.001 233.563 208.721 231.748 211.44 229.933C216.88 226.304 221.715 222.372 225.945 218.742C228.06 216.927 229.874 214.507 230.78 212.088C231.687 209.668 232.291 207.248 232.291 205.131C232.593 200.896 231.687 197.267 231.384 195.15C230.78 192.73 230.478 191.52 230.478 191.52C230.478 191.52 230.478 192.73 230.78 195.15C231.082 197.569 231.687 200.896 231.384 205.131C231.082 207.248 230.78 209.366 229.874 211.785C228.967 213.903 227.154 216.02 225.039 217.835C220.808 221.464 215.671 225.094 210.534 228.723C207.814 230.538 205.095 232.353 202.375 233.865L203.584 234.47C201.166 224.186 197.54 215.415 194.518 209.366C193.914 207.853 193.007 206.643 192.101 205.433C191.194 204.526 190.288 203.619 189.079 203.619C187.266 202.711 186.057 203.316 186.359 203.619Z" fill="#263238"/>
<path d="M155.235 180.026C155.235 180.026 154.933 181.236 154.933 183.656C154.63 186.378 154.63 189.705 154.328 193.637C154.026 197.872 153.422 202.711 152.515 208.156C152.213 210.878 151.306 213.6 151.911 216.927C152.817 220.254 155.235 222.674 157.954 224.489C161.581 227.211 165.207 229.328 167.926 232.051L169.135 233.261V231.446C169.739 222.069 172.761 214.205 175.783 209.063C178.503 203.921 180.92 201.199 180.92 201.199C180.92 201.199 180.316 201.804 179.107 203.014C177.898 204.224 176.69 206.038 174.877 208.761C171.855 213.903 168.229 221.767 167.624 231.748L168.833 231.446C166.113 228.421 162.185 226.304 158.861 223.582C156.443 221.767 154.328 219.347 153.422 216.927C152.817 214.205 153.724 211.483 154.026 208.761C154.933 203.316 155.235 198.174 155.537 194.242C155.839 190.008 155.839 186.681 155.839 184.261C155.235 181.236 155.235 180.026 155.235 180.026Z" fill="#263238"/>
<path d="M9.88448 185.773C11.6976 187.89 78.1776 276.816 78.1776 276.816L68.81 282.26L0.516846 194.545L9.88448 185.773Z" fill="#263238"/>
<path d="M276.711 255.946C276.711 255.946 206.907 356.667 202.677 358.482C194.518 362.414 98.7262 279.538 89.6607 271.674C88.452 269.859 85.7323 266.532 80.5952 259.273C80.5952 259.273 73.0407 224.791 64.8818 227.514C56.7229 230.236 69.4145 245.057 63.9752 258.063C58.8381 271.069 34.6635 239.915 33.757 237.193L27.7134 229.026C27.7134 229.026 21.3676 247.476 21.6697 255.038C23.1806 279.841 46.4486 308.877 46.4486 308.877C46.4486 308.877 151.004 438.636 222.923 442.568C243.471 443.778 280.338 385.099 304.814 341.241C319.621 314.624 312.369 281.353 287.59 263.205L276.711 255.946Z" fill="#FFBE9D"/>
<path d="M33.757 259.878C34.0592 259.878 31.6418 255.643 29.2243 250.804C26.8069 245.662 24.9938 241.73 24.6916 241.73C24.3894 241.73 25.9003 246.267 28.3178 251.106C30.7352 256.248 33.4549 260.18 33.757 259.878Z" fill="#EB996E"/>
<path d="M288.799 206.946C288.799 206.946 363.74 233.563 308.139 359.994L221.412 307.667L233.802 278.026L288.799 206.946Z" fill="#455A64"/>
<path d="M294.54 209.063C294.54 209.063 291.216 208.458 285.475 209.971C282.755 210.575 279.129 212.088 275.503 214.205C271.877 216.322 268.25 219.347 264.624 223.279C257.372 230.841 250.422 241.427 244.378 253.828C238.032 266.229 231.989 280.143 225.945 294.661C224.132 299.198 222.319 303.433 220.506 307.365L220.204 307.97L220.808 308.272C245.889 321.883 267.646 334.89 283.057 344.266C290.914 349.106 296.958 353.038 301.188 355.76C303.304 356.97 304.814 358.18 306.023 358.784C307.232 359.389 307.836 359.692 307.836 359.692C307.836 359.692 307.232 359.087 306.325 358.482C305.117 357.575 303.606 356.667 301.49 355.155C297.26 352.13 291.216 348.198 283.662 343.359C268.25 333.68 246.493 320.674 221.412 306.76L221.714 307.667C223.528 303.433 225.341 299.198 227.154 294.964C233.197 280.143 239.241 266.229 245.285 254.131C251.63 242.032 257.976 231.446 265.229 223.884C268.855 219.952 272.481 216.927 275.805 214.81C279.129 212.693 282.453 211.18 285.475 210.575C291.216 209.063 294.54 209.366 294.54 209.063Z" fill="#263238"/>
<path d="M133.175 21.8358C133.175 21.8358 132.873 22.1383 132.873 23.0457C132.873 23.9531 132.571 25.163 132.571 26.9778C132.873 30.3049 134.082 35.4469 138.312 39.9839C142.543 44.5209 150.4 47.5455 158.559 45.1258C162.487 43.9159 166.415 41.4962 168.833 37.5641C170.042 35.7493 170.646 33.0271 170.344 30.6074C170.042 28.1876 168.833 25.7679 166.718 24.2556C164.602 22.7432 161.58 22.7432 159.465 23.6506C157.35 24.558 155.235 26.3728 154.63 28.4901C152.817 33.0271 154.026 37.8666 156.746 41.1937C161.883 48.1505 171.25 48.7554 176.69 45.4283C179.409 44.2184 181.827 43.0085 184.244 42.7061C186.662 42.1011 188.475 42.7061 189.986 43.311C193.007 44.8233 194.216 46.3357 194.216 46.0332C194.216 46.0332 193.914 45.7307 193.31 45.1258C193.007 44.8233 192.705 44.5209 192.101 43.9159C191.496 43.6135 190.892 43.0085 190.288 42.7061C188.777 41.7987 186.662 41.4962 184.244 41.7987C181.827 42.1011 179.107 43.311 176.387 44.5209C174.876 45.1258 173.668 45.7307 172.157 46.0332C170.646 46.3357 168.833 46.3357 167.322 46.0332C163.998 45.4283 160.674 43.6135 158.256 40.5888C156.141 37.5641 154.932 33.3296 156.443 29.3975C157.652 25.7679 162.789 23.3482 166.415 25.4654C168.228 26.6753 169.135 28.4901 169.437 30.6074C169.739 32.7246 169.135 34.5394 168.228 36.3543C166.113 39.9839 162.487 42.1011 158.861 43.311C151.306 45.4283 143.752 43.0085 139.823 38.774C135.593 34.5394 134.384 29.7 133.78 26.3728C132.571 23.6506 133.175 21.8358 133.175 21.8358Z" fill="#455A64"/>
<path d="M149.493 135.866C149.493 136.169 150.4 136.471 152.213 136.471C153.724 136.471 156.141 136.168 158.559 134.959C160.976 133.749 162.487 132.236 163.393 130.724C164.3 129.212 164.602 128.304 164.3 128.304C163.998 128.002 161.883 131.631 157.652 133.446C153.421 135.866 149.493 135.564 149.493 135.866Z" fill="#263238"/>
<path d="M128.038 32.1197C128.038 32.1197 126.829 33.9345 126.527 37.5641C126.225 41.1937 127.434 46.3357 131.06 50.5702C134.686 54.8047 139.823 56.6195 143.449 56.922C147.075 57.2245 149.191 56.3171 149.191 56.3171C149.191 56.0146 147.075 56.3171 143.751 56.0146C140.427 55.4097 135.895 53.5949 132.571 49.6628C129.247 45.7307 128.038 40.8912 128.038 37.5641C127.736 34.237 128.34 32.1197 128.038 32.1197Z" fill="#455A64"/>
<path d="M230.176 285.285C229.873 285.587 249.817 295.871 274.596 308.272C299.375 320.674 319.621 330.05 319.924 329.748C320.226 329.445 300.282 319.161 275.503 306.76C250.724 294.359 230.478 284.68 230.176 285.285Z" fill="#E0E0E0"/>
<path d="M248.306 250.804C248.004 251.106 265.833 261.088 287.892 272.884C309.952 284.68 328.082 294.057 328.385 293.754C328.687 293.452 310.858 283.47 288.799 271.674C266.74 259.878 248.609 250.501 248.306 250.804Z" fill="#E0E0E0"/>
<path d="M265.833 222.977C265.833 223.279 269.157 225.094 274.596 228.119C280.64 231.446 287.892 235.68 296.353 240.217C304.512 245.057 312.067 249.291 317.808 252.618C323.248 255.643 326.874 257.76 326.874 257.458C326.874 257.155 323.852 255.038 318.413 251.711C312.973 248.384 305.419 243.847 296.958 239.007C288.497 234.168 280.64 230.236 274.898 227.211C269.761 224.489 266.135 222.977 265.833 222.977Z" fill="#E0E0E0"/>
<path d="M199.655 216.625C199.655 216.927 202.073 216.625 205.397 215.112C208.721 213.6 213.253 210.878 217.484 207.248C221.715 203.316 225.039 199.384 227.456 196.662C229.873 193.637 231.082 191.823 230.78 191.823C230.478 191.823 228.967 193.335 226.549 196.057C224.132 198.779 220.506 202.711 216.577 206.341C212.347 209.971 208.116 212.693 204.792 214.508C201.771 215.717 199.655 216.322 199.655 216.625Z" fill="#E0E0E0"/>
<path d="M155.537 200.292C155.234 200.292 157.048 205.434 161.882 209.366C166.717 213.298 171.854 214.508 171.854 213.903C172.157 213.6 167.322 211.785 162.789 208.156C158.256 204.224 155.839 199.989 155.537 200.292Z" fill="#E0E0E0"/>
<path d="M76.9692 245.662C76.9692 245.662 77.5736 245.964 78.7823 245.964C79.9911 246.267 81.8042 246.267 83.6172 246.569C87.8478 247.174 93.8914 247.476 101.446 248.081C116.555 249.291 137.708 250.501 160.674 251.409C183.942 252.316 204.792 252.618 220.203 252.316C227.758 252.316 234.104 252.014 238.334 252.014C240.45 252.014 241.961 251.711 243.169 251.711C244.378 251.711 244.982 251.711 244.982 251.409C244.982 251.409 244.378 251.409 243.169 251.409C241.961 251.409 240.148 251.409 238.334 251.409C233.802 251.409 227.758 251.409 220.203 251.409C205.094 251.106 183.942 250.804 160.976 249.896C137.708 248.989 116.857 248.081 101.748 247.174C94.1936 246.569 88.15 246.267 83.9194 245.964C81.8041 245.964 80.2932 245.662 79.0845 245.662C77.5736 245.662 76.9692 245.662 76.9692 245.662Z" fill="#E0E0E0"/>
<path d="M100.842 281.655C100.842 281.655 102.655 281.958 105.677 282.563C109.001 282.865 113.533 283.47 119.275 284.075C130.758 285.285 146.773 286.192 164.3 287.1C181.826 287.705 197.842 288.007 209.325 288.007C215.066 288.007 219.901 287.705 222.923 287.705C226.247 287.705 228.06 287.402 228.06 287.402C228.06 287.402 226.247 287.1 222.923 287.1C219.297 287.1 214.764 287.1 209.325 286.797C197.842 286.495 181.826 286.192 164.3 285.587C146.773 284.982 130.758 284.075 119.275 283.168C113.836 282.865 109.001 282.563 105.677 282.26C102.655 281.655 100.842 281.353 100.842 281.655Z" fill="#E0E0E0"/>
<path d="M154.932 325.815C154.932 326.118 158.861 326.723 164.904 327.328C171.25 327.933 179.711 328.538 189.079 329.143C198.446 329.748 207.21 329.748 213.556 329.748C219.901 329.748 223.528 329.445 223.528 329.445C223.528 329.143 219.599 329.143 213.556 328.84C206.908 328.538 198.446 328.235 189.079 327.63C179.711 327.025 171.552 326.723 164.904 326.42C158.861 325.816 154.932 325.513 154.932 325.815Z" fill="#E0E0E0"/>
<path d="M224.132 220.859C224.132 221.162 233.499 221.464 244.68 221.767C256.163 222.372 265.229 222.977 265.531 222.372C265.531 222.069 256.465 220.557 244.982 220.254C233.499 219.65 224.132 220.254 224.132 220.859Z" fill="#E0E0E0"/>
<path d="M96.6113 219.045C96.6113 219.347 108.699 219.649 123.505 219.649C138.312 219.649 150.4 219.045 150.4 218.742C150.4 218.44 138.312 218.137 123.505 218.137C108.699 218.44 96.6113 218.742 96.6113 219.045Z" fill="#E0E0E0"/>
<path d="M92.0785 403.247C92.0785 403.247 92.985 403.852 94.7981 404.759C96.6112 405.667 99.3309 406.877 102.655 408.389C109.303 411.111 118.973 414.438 129.851 417.161C140.73 419.58 150.702 420.79 157.954 421.093C161.58 421.395 164.602 421.395 166.717 421.395C168.833 421.395 169.739 421.395 169.739 421.093C169.739 420.79 165.207 420.79 157.954 419.883C150.702 419.278 140.73 417.766 130.153 415.346C119.275 412.926 109.907 409.599 102.957 407.179C96.309 404.759 92.0785 402.945 92.0785 403.247Z" fill="#E0E0E0"/>
</svg>
