<svg width="378" height="479" fill="none" xmlns="http://www.w3.org/2000/svg"><path d="M230.964 94.103c-.302-5.45 4.526-13.32 9.052-17.559 4.527-4.54 7.544-10.293 5.13-19.375-1.81-6.962-6.337-6.357-7.846-10.292-1.207-3.028-.603-6.358-.905-9.688-.905-11.2-12.975-19.98-23.839-16.953-3.017-10.595-12.975-18.77-23.838-19.98-10.864-1.21-22.33 4.844-27.46 14.531-6.337-3.33-14.183-3.027-20.218.303s-10.26 9.99-10.863 16.953c-6.035-4.541-15.39-2.725-20.218 3.027-4.828 5.752-5.13 14.531-1.508 21.191 3.621 6.66 10.863 10.898 18.105 12.11 7.544 1.21 15.088-.606 21.726-3.936 6.639-3.33 12.674-8.174 17.804-13.623" fill="#263238"/><path d="M190.5 478.102C86.947 478.102 3 395.947 3 294.602c0-101.344 83.947-183.5 187.5-183.5S378 193.258 378 294.602c0 101.345-83.947 183.5-187.5 183.5z" fill="#E0E0E0"/><path d="M50.075 313.717l14.505-37.204 51.975 32.667-46.536 71.382s-18.735-24.5-19.944-66.845z" fill="#EB996E"/><path d="M193.309 233.26c-18.735 0-34.146-14.518-35.053-32.968-.906-15.426-1.511-30.247-1.511-30.247s-28.405-2.117-31.124-29.944c-2.72-27.827-3.022-92.555-3.022-92.555 31.427-16.636 69.502-14.821 99.418 4.234l2.719 1.815 3.324 144.579c.302 19.056-15.411 34.784-34.751 35.086z" fill="#FFBE9D"/><path d="M176.689 90.496c-2.115.605-3.324 3.025-2.719 5.142.604 2.117 3.021 3.327 5.137 2.722 2.115-.605 3.324-3.025 2.719-5.142-.604-2.42-2.719-3.63-5.137-2.722z" fill="#263238"/><path d="M169.135 92.008c.604.605 3.021-1.815 6.95-2.117 3.928-.303 6.95 1.512 7.252.907.302-.302-.302-1.21-1.511-1.814-1.208-.908-3.324-1.513-5.741-1.513-2.418.303-4.533 1.21-5.439 2.117-1.511 1.21-1.814 2.118-1.511 2.42zm-35.053-1.512c-2.116.605-3.324 3.025-2.72 5.142.604 2.117 3.022 3.327 5.137 2.722 2.115-.605 3.324-3.025 2.72-5.142-.605-2.42-2.72-3.63-5.137-2.722z" fill="#263238"/><path d="M125.923 92.008c.604.605 3.022-1.815 6.95-2.117 3.928-.303 6.95 1.512 7.252.907.302-.302-.302-1.21-1.511-1.814-1.208-.908-3.324-1.513-5.741-1.513-2.418.303-4.533 1.21-5.439 2.117-1.511 1.21-1.813 2.118-1.511 2.42zm29.311 30.247c0-.302-2.417-.605-6.346-.907-.906 0-1.813-.303-1.813-.605-.302-.605 0-1.815.605-3.025.906-2.722 1.511-5.142 2.417-8.167 3.324-11.493 5.439-20.87 4.835-21.172-.604-.303-3.626 9.074-6.95 20.567-.907 2.723-1.511 5.445-2.115 8.167-.303 1.21-.907 2.722-.303 4.235.303.907 1.209 1.209 1.814 1.512h1.813c3.626 0 6.043-.303 6.043-.605z" fill="#263238"/><path d="M156.745 169.44s17.829 0 35.96-13.309c0 0-6.95 20.871-35.355 20.568l-.605-7.259z" fill="#EB996E"/><path d="M225.643 94.428c0-2.117 1.813-4.235 3.928-4.235 5.137-.302 13.901 1.513 15.109 16.031 1.511 20.568-18.433 15.728-18.735 15.124 0-.303-.302-18.753-.302-26.92z" fill="#FFBE9D"/><path d="M230.478 113.483s.302.303.906.605c.605.303 1.511.303 2.72 0 2.115-.907 3.626-4.537 3.626-8.166 0-1.815-.604-3.63-1.511-5.142-.604-1.513-1.813-2.42-3.022-2.42-1.208-.302-1.813.605-2.115 1.21-.302.605 0 .907-.302.907 0 0-.604-.302-.302-1.21 0-.302.302-.907.604-1.21.604-1.21 1.511-1.21 2.115-1.21 1.511 0 3.022 1.21 3.929 3.025.906 1.513 1.511 3.63 1.813 5.747.302 4.235-1.813 8.167-4.533 9.377-1.511.605-2.72 0-3.324-.303-.604-.907-.906-1.21-.604-1.21z" fill="#EB996E"/><path d="M187.266 80.817c-.907 1.21-4.533.605-9.368.605-4.533-.303-8.159-.303-9.065-1.513-.907-1.512 3.626-4.839 9.367-4.537 6.346.303 10.275 4.235 9.066 5.445zm-45.025-1.21c-.605 1.815-3.929 2.42-7.857 2.42-3.928 0-7.252-.605-7.555-2.42-.604-1.815 3.022-4.234 7.857-4.234 4.533-.303 8.159 2.42 7.555 4.234z" fill="#263238"/><path d="M118.67 56.317s16.923 8.167 38.982-2.722c14.505-7.26 31.427-10.889 35.053-7.864 3.626 3.024 4.533 17.845 18.735 22.08 0 0-.906 28.432 10.275 27.524 11.482-.907 4.23-45.067 4.23-45.067l-27.801-13.611-30.218-5.747-28.405 3.932-22.059 6.05 1.208 15.425z" fill="#263238"/><path d="M308.441 220.859c-29.614-30.549-81.892-27.222-81.892-27.222l-43.212 30.852-24.476-28.432s-25.686 2.722-49.86 15.426l-1.814.605v.302c-19.037 10.284-45.931 35.086-71.314 58.981l30.52 28.432 33.844 30.247v.605c.302 1.815-4.835 43.253-9.972 74.709 31.125 29.642 70.409 42.043 114.225 34.482 13.9-2.42 20.548-5.747 33.542-9.074 19.038-4.84 32.636-21.475 34.449-41.136 2.417-26.315 3.928-58.981 3.928-58.981" fill="#455A64"/><path d="M131.966 201.501s-.906 1.815-1.813 4.84c-1.208 3.025-2.719 7.864-4.532 13.611-3.627 11.494-8.159 27.524-12.39 45.068-4.23 17.845-7.554 34.178-9.67 45.975-.906 6.049-1.813 10.586-2.115 13.913-.604 3.327-.604 5.142-.604 5.142s.604-1.815 1.208-5.142c.605-3.63 1.511-8.167 2.72-13.913 2.418-11.797 5.742-27.827 9.972-45.673 4.231-17.846 8.763-33.574 12.087-45.068 1.511-5.444 3.022-10.284 3.929-13.611.604-3.327 1.208-5.142 1.208-5.142z" fill="#263238"/><path d="M103.864 310.692c.302-.302-12.692-11.191-29.01-24.5-16.318-13.308-29.614-23.592-29.916-23.29-.302.303 12.692 11.192 29.01 24.5 16.318 13.006 29.916 23.593 29.916 23.29z" fill="#263238"/><path opacity=".2" d="M269.459 262.902l26.592 87.413-9.972 5.142-9.669-24.802s-9.972-52.024-6.951-67.753zm-134.773-61.401c-14.202 7.562 21.455 25.71 37.773 25.105l-11.785-30.851s-21.153 3.327-25.988 5.746z" fill="#000"/><path d="M231.082 195.755v-23.29s-45.025 11.493-46.838 38.715c0 0-5.741-29.944-29.009-31.456l-3.324 42.043 27.196 23.592h27.499l21.454-18.45 2.72-29.037" fill="#455A64"/><path d="M173.97 340.939v-18.451c0-11.493.302-27.222 1.813-44.462 1.511-17.241 3.626-32.969 5.741-44.161.907-5.444 1.813-9.981 2.418-13.308.604-3.025.906-4.84.604-4.84 0 0-.604 1.815-1.209 4.84-.906 3.025-1.813 7.562-2.719 13.308-2.116 11.192-4.533 26.92-6.044 44.463-1.511 17.543-1.511 33.272-1.209 44.765.303 5.747.303 10.284.605 13.611-.302 2.42 0 4.235 0 4.235zm12.389-137.32s.907-.303 2.72.302c1.813.605 3.324 2.722 4.533 5.747 2.719 6.049 6.346 14.821 8.461 25.105l.302.907.907-.605c2.719-1.512 5.439-3.327 8.158-5.142 5.44-3.629 10.275-7.561 14.505-11.191 2.115-1.815 3.929-4.235 4.835-6.654.907-2.42 1.511-4.84 1.511-6.957.302-4.235-.604-7.864-.907-9.981l-.906-3.63s0 1.21.302 3.63c.302 2.419.907 5.746.604 9.981-.302 2.117-.604 4.235-1.51 6.654-.907 2.118-2.72 4.235-4.835 6.05-4.231 3.629-9.368 7.259-14.505 10.888-2.72 1.815-5.439 3.63-8.159 5.142l1.209.605c-2.418-10.284-6.044-19.055-9.066-25.104-.604-1.513-1.511-2.723-2.417-3.933-.907-.907-1.813-1.814-3.022-1.814-1.813-.908-3.022-.303-2.72 0zm-31.124-23.593s-.302 1.21-.302 3.63c-.303 2.722-.303 6.049-.605 9.981-.302 4.235-.906 9.074-1.813 14.519-.302 2.722-1.209 5.444-.604 8.771.906 3.327 3.324 5.747 6.043 7.562 3.627 2.722 7.253 4.839 9.972 7.562l1.209 1.21v-1.815c.604-9.377 3.626-17.241 6.648-22.383 2.72-5.142 5.137-7.864 5.137-7.864l-1.813 1.815c-1.209 1.21-2.417 3.024-4.23 5.747-3.022 5.142-6.648 13.006-7.253 22.987l1.209-.302c-2.72-3.025-6.648-5.142-9.972-7.864-2.418-1.815-4.533-4.235-5.439-6.655-.605-2.722.302-5.444.604-8.166.907-5.445 1.209-10.587 1.511-14.519.302-4.234.302-7.561.302-9.981-.604-3.025-.604-4.235-.604-4.235zM9.884 185.773c1.814 2.117 68.294 91.043 68.294 91.043l-9.368 5.444L.517 194.545l9.367-8.772z" fill="#263238"/><path d="M276.711 255.946s-69.804 100.721-74.034 102.536c-8.159 3.932-103.95-78.944-113.016-86.808-1.209-1.815-3.929-5.142-9.066-12.401 0 0-7.554-34.482-15.713-31.759-8.16 2.722 4.532 17.543-.907 30.549-5.137 13.006-29.312-18.148-30.218-20.87l-6.044-8.167s-6.345 18.45-6.043 26.012c1.51 24.803 24.779 53.839 24.779 53.839s104.555 129.759 176.474 133.691c20.548 1.21 57.415-57.469 81.891-101.327 14.807-26.617 7.555-59.888-17.224-78.036l-10.879-7.259z" fill="#FFBE9D"/><path d="M33.757 259.878c.302 0-2.115-4.235-4.533-9.074-2.417-5.142-4.23-9.074-4.532-9.074-.303 0 1.208 4.537 3.626 9.376 2.417 5.142 5.137 9.074 5.439 8.772z" fill="#EB996E"/><path d="M288.799 206.946s74.941 26.617 19.34 153.048l-86.727-52.327 12.39-29.641 54.997-71.08z" fill="#455A64"/><path d="M294.54 209.063s-3.324-.605-9.065.908c-2.72.604-6.346 2.117-9.972 4.234-3.626 2.117-7.253 5.142-10.879 9.074-7.252 7.562-14.202 18.148-20.246 30.549-6.346 12.401-12.389 26.315-18.433 40.833a267.143 267.143 0 01-5.439 12.704l-.302.605.604.302c25.081 13.611 46.838 26.618 62.249 35.994 7.857 4.84 13.901 8.772 18.131 11.494 2.116 1.21 3.626 2.42 4.835 3.024l1.813.908s-.604-.605-1.511-1.21c-1.208-.907-2.719-1.815-4.835-3.327-4.23-3.025-10.274-6.957-17.828-11.796-15.412-9.679-37.169-22.685-62.25-36.599l.302.907 5.44-12.703c6.043-14.821 12.087-28.735 18.131-40.833 6.345-12.099 12.691-22.685 19.944-30.247 3.626-3.932 7.252-6.957 10.576-9.074 3.324-2.117 6.648-3.63 9.67-4.235 5.741-1.512 9.065-1.209 9.065-1.512z" fill="#263238"/><path d="M133.175 21.836s-.302.302-.302 1.21c0 .907-.302 2.117-.302 3.932.302 3.327 1.511 8.469 5.741 13.006 4.231 4.537 12.088 7.561 20.247 5.142 3.928-1.21 7.856-3.63 10.274-7.562 1.209-1.815 1.813-4.537 1.511-6.957-.302-2.42-1.511-4.84-3.626-6.351-2.116-1.513-5.138-1.513-7.253-.605-2.115.907-4.23 2.722-4.835 4.84-1.813 4.536-.604 9.376 2.116 12.703 5.137 6.956 14.504 7.561 19.944 4.234 2.719-1.21 5.137-2.42 7.554-2.722 2.418-.605 4.231 0 5.742.605 3.021 1.512 4.23 3.025 4.23 2.722l-.906-.907-1.209-1.21c-.605-.302-1.209-.907-1.813-1.21-1.511-.907-3.626-1.21-6.044-.907-2.417.302-5.137 1.512-7.857 2.722-1.511.605-2.719 1.21-4.23 1.512a12.993 12.993 0 01-4.835 0 15.132 15.132 0 01-9.066-5.444c-2.115-3.025-3.324-7.26-1.813-11.191 1.209-3.63 6.346-6.05 9.972-3.933 1.813 1.21 2.72 3.025 3.022 5.142.302 2.118-.302 3.932-1.209 5.747-2.115 3.63-5.741 5.747-9.367 6.957-7.555 2.117-15.109-.303-19.038-4.537-4.23-4.235-5.439-9.074-6.043-12.401-1.209-2.722-.605-4.537-.605-4.537z" fill="#455A64"/><path d="M149.493 135.866c0 .303.907.605 2.72.605 1.511 0 3.928-.303 6.346-1.512 2.417-1.21 3.928-2.723 4.834-4.235.907-1.512 1.209-2.42.907-2.42-.302-.302-2.417 3.327-6.648 5.142-4.231 2.42-8.159 2.118-8.159 2.42z" fill="#263238"/><path d="M128.038 32.12s-1.209 1.815-1.511 5.444c-.302 3.63.907 8.772 4.533 13.006 3.626 4.235 8.763 6.05 12.389 6.352 3.626.303 5.742-.605 5.742-.605 0-.302-2.116 0-5.44-.302-3.324-.605-7.856-2.42-11.18-6.352-3.324-3.932-4.533-8.772-4.533-12.099-.302-3.327.302-5.444 0-5.444z" fill="#455A64"/><path d="M230.176 285.285c-.303.302 19.641 10.586 44.42 22.987 24.779 12.402 45.025 21.778 45.328 21.476.302-.303-19.642-10.587-44.421-22.988s-45.025-22.08-45.327-21.475zm18.13-34.481c-.302.302 17.527 10.284 39.586 22.08 22.06 11.796 40.19 21.173 40.493 20.87.302-.302-17.527-10.284-39.586-22.08-22.059-11.796-40.19-21.173-40.493-20.87zm17.527-27.827c0 .302 3.324 2.117 8.763 5.142 6.044 3.327 13.296 7.561 21.757 12.098 8.159 4.84 15.714 9.074 21.455 12.401 5.44 3.025 9.066 5.142 9.066 4.84 0-.303-3.022-2.42-8.461-5.747a864.304 864.304 0 00-21.455-12.704c-8.461-4.839-16.318-8.771-22.06-11.796-5.137-2.722-8.763-4.234-9.065-4.234zm-66.178-6.352c0 .302 2.418 0 5.742-1.513 3.324-1.512 7.856-4.234 12.087-7.864 4.231-3.932 7.555-7.864 9.972-10.586 2.417-3.025 3.626-4.839 3.324-4.839-.302 0-1.813 1.512-4.231 4.234-2.417 2.722-6.043 6.654-9.972 10.284-4.23 3.63-8.461 6.352-11.785 8.167-3.021 1.209-5.137 1.814-5.137 2.117zm-44.118-16.333c-.303 0 1.511 5.142 6.345 9.074 4.835 3.932 9.972 5.142 9.972 4.537.303-.303-4.532-2.118-9.065-5.747-4.533-3.932-6.95-8.167-7.252-7.864zm-78.567 45.37s.604.302 1.812.302c1.21.303 3.022.303 4.835.605 4.23.605 10.274.907 17.829 1.512 15.109 1.21 36.262 2.42 59.228 3.328 23.268.907 44.118 1.209 59.529.907 7.555 0 13.901-.302 18.131-.302 2.116 0 3.627-.303 4.835-.303 1.209 0 1.813 0 1.813-.302h-24.779c-15.109-.303-36.261-.605-59.227-1.513-23.268-.907-44.119-1.815-59.228-2.722-7.554-.605-13.598-.907-17.829-1.21-2.115 0-3.626-.302-4.834-.302h-2.116zm23.872 35.993s1.813.303 4.835.908c3.324.302 7.856.907 13.598 1.512 11.483 1.21 27.498 2.117 45.025 3.025 17.526.605 33.542.907 45.025.907 5.741 0 10.576-.302 13.598-.302 3.324 0 5.137-.303 5.137-.303s-1.813-.302-5.137-.302c-3.626 0-8.159 0-13.598-.303-11.483-.302-27.499-.605-45.025-1.21-17.527-.605-33.542-1.512-45.025-2.419-5.439-.303-10.274-.605-13.598-.908-3.022-.605-4.835-.907-4.835-.605zm54.09 44.16c0 .303 3.929.908 9.972 1.513 6.346.605 14.807 1.21 24.175 1.815 9.367.605 18.131.605 24.477.605 6.345 0 9.972-.303 9.972-.303 0-.302-3.929-.302-9.972-.605-6.648-.302-15.11-.605-24.477-1.21-9.368-.605-17.527-.907-24.175-1.21-6.043-.604-9.972-.907-9.972-.605zm69.2-104.956c0 .303 9.367.605 20.548.908 11.483.605 20.549 1.21 20.851.605 0-.303-9.066-1.815-20.549-2.118-11.483-.604-20.85 0-20.85.605zm-127.521-1.814c0 .302 12.088.604 26.894.604 14.807 0 26.895-.604 26.895-.907 0-.302-12.088-.605-26.895-.605-14.806.303-26.894.605-26.894.908zm-4.532 184.202s.906.605 2.72 1.512c1.812.908 4.532 2.118 7.856 3.63 6.648 2.722 16.318 6.049 27.196 8.772 10.879 2.419 20.851 3.629 28.103 3.932 3.626.302 6.648.302 8.763.302 2.116 0 3.022 0 3.022-.302 0-.303-4.532-.303-11.785-1.21-7.252-.605-17.224-2.117-27.801-4.537-10.878-2.42-20.246-5.747-27.196-8.167-6.648-2.42-10.878-4.234-10.878-3.932z" fill="#E0E0E0"/></svg>