<svg width="397" height="97" viewBox="0 0 397 97" fill="none" xmlns="http://www.w3.org/2000/svg">
<path d="M397 77C397 88.0457 388.046 97 377 97H0V20C0 8.95431 8.95431 0 20 0H377C388.046 0 397 8.95431 397 20V77Z" fill="#0E2EB6"/>
<path d="M106.512 73.64C105.829 73.64 105.36 73.512 105.104 73.256C104.891 73 104.741 72.5093 104.656 71.784L104.08 59.688L104.144 57.896L104.208 51.944C104.208 45.7573 104.187 41.1067 104.144 37.992C104.101 36.968 104.08 34.6427 104.08 31.016L104.144 28.456C104.144 27.9867 104.059 27.7093 103.888 27.624C103.717 27.496 103.248 27.3893 102.48 27.304C101.627 27.2187 101.008 27.176 100.624 27.176C99.4293 27.176 98.2987 27.4107 97.232 27.88C96.976 28.4773 96.8267 29.7147 96.784 31.592C96.7413 33.4693 96.72 35.7733 96.72 38.504C96.6773 39.144 96.6987 41.9387 96.784 46.888V52.072C96.784 52.8827 96.8693 54.056 97.04 55.592C97.2107 57.384 97.296 58.7493 97.296 59.688C97.296 60.2853 97.2533 61.0533 97.168 61.992L97.104 63.976L97.424 71.272C97.424 71.8693 97.2533 72.3173 96.912 72.616C96.5707 72.9147 96.1013 73.0427 95.504 73C94.3093 73 93.712 72.424 93.712 71.272C93.84 66.792 93.904 62.2907 93.904 57.768V54.76C93.8187 51.432 93.7333 48.9573 93.648 47.336C93.5627 46.056 93.4773 44.2213 93.392 41.832C93.264 38.4613 93.1147 33.512 92.944 26.984C92.944 26.2587 93.0933 25.7253 93.392 25.384C93.7333 25 94.2453 24.7867 94.928 24.744C99.3653 24.6587 102.715 24.616 104.976 24.616C105.787 24.616 106.448 24.872 106.96 25.384C107.515 25.896 107.707 26.5147 107.536 27.24C107.365 28.264 107.28 29.4373 107.28 30.76C107.28 31.7413 107.301 32.488 107.344 33C107.344 33.384 107.344 33.8533 107.344 34.408C107.387 34.9627 107.387 35.6027 107.344 36.328C107.301 37.2667 107.28 38.44 107.28 39.848C107.195 42.92 107.088 45.096 106.96 46.376C107.003 47.3573 107.045 48.936 107.088 51.112C107.173 53.2453 107.259 54.76 107.344 55.656C107.216 56.4667 107.152 57.2987 107.152 58.152C107.152 59.1333 107.28 60.648 107.536 62.696C107.707 64.1893 107.813 65.3627 107.856 66.216L107.92 67.752C108.005 69.1173 108.048 70.12 108.048 70.76L107.984 72.168C108.027 73.1493 107.536 73.64 106.512 73.64ZM124.474 74.792C123.322 74.792 122.277 74.408 121.338 73.64C120.399 72.872 119.589 71.8267 118.906 70.504C117.669 68.2 116.751 65.0427 116.154 61.032C115.727 58.2587 115.407 55.0587 115.194 51.432L115.13 48.04V44.584C115.087 43.4747 115.066 42.1307 115.066 40.552C115.066 37.992 115.173 35.7307 115.386 33.768C115.557 31.72 115.983 29.6933 116.666 27.688C117.349 25.9387 118.33 24.7013 119.61 23.976C120.378 23.6347 121.146 23.464 121.914 23.464C124.175 23.464 125.967 24.36 127.29 26.152C128.741 28.1573 129.701 30.3973 130.17 32.872C130.853 35.8587 131.237 38.7173 131.322 41.448C131.493 44.4773 131.578 47.336 131.578 50.024V53.672C131.578 54.3973 131.471 55.7627 131.258 57.768C131.087 59.3467 131.002 60.6907 131.002 61.8V62.056C130.746 63.2507 130.618 64.6587 130.618 66.28C130.618 67.4747 130.362 68.712 129.85 69.992C129.338 71.272 128.613 72.36 127.674 73.256C126.735 74.28 125.669 74.792 124.474 74.792ZM124.602 71.272C125.455 71.272 126.181 70.4827 126.778 68.904C127.29 67.496 127.653 65.7893 127.866 63.784C128.122 61.736 128.335 59.432 128.506 56.872C128.591 55.7627 128.634 54.3333 128.634 52.584L128.57 46.696C128.485 44.392 128.229 41.512 127.802 38.056C127.461 35.112 126.821 32.5093 125.882 30.248C125.455 29.1813 124.922 28.3493 124.282 27.752C123.642 27.1547 122.959 26.856 122.234 26.856C121.167 26.856 120.378 27.688 119.866 29.352C119.226 31.1013 118.799 33.0213 118.586 35.112C118.33 37.3733 118.181 39.528 118.138 41.576L118.074 43.688C118.031 44.2853 118.01 45.096 118.01 46.12V46.376C118.01 49.2347 118.309 52.7547 118.906 56.936C119.589 62.6107 120.591 66.6427 121.914 69.032C122.767 70.5253 123.663 71.272 124.602 71.272ZM144.6 73.512C143.107 73.3413 142.04 72.5733 141.4 71.208C141.144 70.696 140.973 70.312 140.888 70.056C140.461 69.2027 140.141 68.456 139.928 67.816C139.715 67.176 139.608 66.5147 139.608 65.832L139.672 65.128C139.715 64.6587 139.843 64.2533 140.056 63.912C140.269 63.5707 140.547 63.3573 140.888 63.272C141.357 63.1867 141.827 63.3147 142.296 63.656C142.808 63.9547 143.128 64.3387 143.256 64.808C143.427 65.2347 143.597 65.832 143.768 66.6C144.024 67.752 144.365 68.8613 144.792 69.928C145.048 70.4827 145.475 70.76 146.072 70.76C146.243 70.76 146.499 70.7173 146.84 70.632C148.376 69.992 149.421 69.032 149.976 67.752C151 65.2773 151.512 62.888 151.512 60.584C151.512 59.688 151.405 58.6427 151.192 57.448C151.149 57.0213 151.107 56.616 151.064 56.232C151.021 55.8053 150.979 55.3787 150.936 54.952C150.723 53.5013 150.232 52.3493 149.464 51.496C148.696 50.6427 147.587 50.024 146.136 49.64C146.008 49.5973 145.667 49.5333 145.112 49.448C144.557 49.32 144.088 49.1067 143.704 48.808C143.363 48.4667 143.192 48.0613 143.192 47.592C143.107 46.3973 144.067 45.5867 146.072 45.16C147.181 44.8613 148.077 44.2 148.76 43.176C150.381 41.6827 151.192 39.5067 151.192 36.648C151.192 34.9413 150.915 33.192 150.36 31.4C150.104 30.4187 149.528 29.672 148.632 29.16C147.736 28.6053 146.776 28.328 145.752 28.328C144.301 28.328 143.085 28.9467 142.104 30.184C141.933 30.3973 141.635 30.8453 141.208 31.528C140.483 32.7227 139.971 33.4267 139.672 33.64C139.331 33.9813 138.989 34.152 138.648 34.152C138.136 34.152 137.731 34.024 137.432 33.768C137.176 33.4693 137.027 33.1493 136.984 32.808C136.941 32.6373 136.92 32.3813 136.92 32.04C136.92 30.632 137.325 29.352 138.136 28.2C138.989 27.048 140.056 26.1307 141.336 25.448C142.659 24.7653 143.96 24.424 145.24 24.424C146.733 24.424 148.291 24.8293 149.912 25.64C152.173 26.7493 153.56 28.52 154.072 30.952C154.371 32.2747 154.52 33.6187 154.52 34.984C154.52 36.8613 154.243 38.7813 153.688 40.744C153.176 42.7067 152.067 44.584 150.36 46.376L149.08 46.952C150.488 47.2507 151.747 48.2747 152.856 50.024C153.965 51.7733 154.52 53.5227 154.52 55.272C154.52 55.9973 154.584 56.7227 154.712 57.448C154.797 58.216 154.84 58.7493 154.84 59.048C154.883 59.4747 154.904 60.0933 154.904 60.904C154.904 63.336 154.563 65.576 153.88 67.624C152.6 71.6773 150.168 73.704 146.584 73.704C145.987 73.704 145.325 73.64 144.6 73.512ZM179.847 79.656C179.463 79.656 179.079 79.4427 178.695 79.016C178.353 78.632 178.183 78.184 178.183 77.672C178.183 76.9467 178.311 74.92 178.567 71.592C177.628 71.336 176.689 71.208 175.751 71.208C174.855 71.208 173.596 71.3147 171.975 71.528L170.439 71.72C167.324 72.0613 164.871 72.296 163.079 72.424C162.908 72.424 161.777 72.488 159.687 72.616C159.687 73.0427 159.687 73.6613 159.687 74.472C159.729 75.2827 159.729 75.944 159.687 76.456C159.644 77.0107 159.473 77.4587 159.174 77.8C158.919 78.1413 158.599 78.312 158.215 78.312C158.001 78.312 157.724 78.2267 157.383 78.056C157.041 77.7573 156.678 77.1813 156.294 76.328C156.209 76.072 156.166 75.1547 156.166 73.576L156.102 71.848C156.06 71.5067 156.23 71.144 156.614 70.76C156.998 70.3333 157.532 70.0987 158.215 70.056C160.135 69.928 161.372 68.84 161.927 66.792C162.225 65.8107 162.503 64.6373 162.759 63.272C163.015 61.864 163.185 60.6267 163.271 59.56C163.868 53.928 164.167 49.6187 164.167 46.632C164.167 45.608 164.124 44.1147 164.039 42.152C163.953 40.7867 163.911 39.784 163.911 39.144C163.911 37.352 163.889 36.008 163.847 35.112C163.847 31.4853 163.804 29.1813 163.719 28.2C163.633 27.3467 163.783 26.6427 164.167 26.088C164.551 25.4907 165.148 25.1493 165.959 25.064C168.007 24.8507 169.244 24.744 169.671 24.744C170.567 24.744 171.356 24.8507 172.039 25.064C172.337 25.1493 172.593 25.192 172.807 25.192C173.063 25.192 173.255 25.2133 173.383 25.256C174.193 25.3413 174.748 25.512 175.047 25.768C175.388 26.024 175.559 26.6427 175.559 27.624L175.495 32.04C175.495 33.0213 175.516 33.7467 175.559 34.216C175.687 38.8667 175.921 46.0347 176.263 55.72L176.327 57.448C176.412 59.624 176.519 61.8427 176.647 64.104C176.775 66.3227 176.945 67.88 177.159 68.776C178.737 68.776 179.932 68.8827 180.743 69.096C181.596 69.3093 182.023 69.8427 182.023 70.696C182.023 70.9093 182.001 71.08 181.959 71.208C181.831 72.0613 181.703 73 181.575 74.024C181.447 75.048 181.361 75.9227 181.319 76.648C181.276 76.8613 181.255 77.2667 181.255 77.864C181.255 78.4613 181.148 78.9093 180.935 79.208C180.764 79.5067 180.401 79.656 179.847 79.656ZM164.487 69.544C166.364 69.3733 167.9 69.2667 169.095 69.224L173.639 68.904C173.724 67.9653 173.767 67.2827 173.767 66.856C173.767 66.2587 173.724 65.2347 173.639 63.784C173.639 63.4853 173.596 62.9947 173.51 62.312C173.468 61.6293 173.447 61.0107 173.447 60.456L172.999 50.28V43.944L172.231 29.224C172.231 28.5413 172.167 28.008 172.039 27.624C171.569 27.4107 170.801 27.304 169.735 27.304C168.796 27.304 167.9 27.368 167.047 27.496V37.544V42.408C166.919 48.2107 166.705 53.352 166.407 57.832C166.279 59.9227 166.001 62.0987 165.575 64.36C165.191 66.6213 164.828 68.3493 164.487 69.544ZM187.579 73.32C187.109 73.32 186.725 73.128 186.427 72.744C186.171 72.3173 186.043 71.8053 186.043 71.208L186.171 60.456C186.299 55.2507 186.363 51.2187 186.363 48.36C186.363 38.4187 185.808 30.8027 184.699 25.512C185.339 24.5307 186.149 24.04 187.131 24.04C188.709 24.04 190.139 24.4027 191.419 25.128C192.741 25.8107 193.829 26.7493 194.683 27.944C196.347 30.4187 197.179 33.192 197.179 36.264C197.179 39.464 196.496 42.3227 195.131 44.84C193.765 47.3573 191.781 49.32 189.179 50.728L189.307 57.192L189.435 60.584C189.477 61.3093 189.499 62.3547 189.499 63.72C189.627 66.5787 189.691 68.904 189.691 70.696C189.691 71.5067 189.52 72.1467 189.179 72.616C188.837 73.0853 188.304 73.32 187.579 73.32ZM189.051 47.656C190.715 46.0773 191.931 44.4347 192.699 42.728C193.509 40.9787 193.915 39.016 193.915 36.84V36.776C193.915 35.7947 193.808 34.5573 193.595 33.064C193.467 32.552 193.232 32.04 192.891 31.528C192.549 31.016 192.357 30.7173 192.315 30.632C192.016 30.2053 191.227 29.544 189.947 28.648L188.283 27.432C188.283 29.608 188.411 32.9787 188.667 37.544L189.051 47.656ZM216.512 73C215.829 73 215.317 72.872 214.976 72.616C214.677 72.36 214.528 71.9333 214.528 71.336V62.952C213.973 62.568 212.928 62.2267 211.392 61.928C209.856 61.6293 208.405 61.4373 207.04 61.352C206.571 62.248 206.229 63.336 206.016 64.616L205.76 65.896C205.717 66.1947 205.589 66.856 205.376 67.88C205.163 68.904 204.928 69.8 204.672 70.568C204.416 71.2933 204.16 71.8693 203.904 72.296C202.283 72.296 201.344 71.8693 201.088 71.016C201.557 70.3333 202.091 68.328 202.688 65L204.8 53.288C205.739 47.7413 206.592 43.0053 207.36 39.08C208.171 35.1547 209.024 31.8693 209.92 29.224C210.901 26.28 211.84 24.808 212.736 24.808C213.632 24.808 214.315 24.9787 214.784 25.32C214.784 27.0267 215.189 31.144 216 37.672C216.853 44.072 217.28 48.4453 217.28 50.792C217.28 53.0533 217.515 56.296 217.984 60.52C218.411 64.8293 218.624 68.264 218.624 70.824C218.624 72.2747 217.92 73 216.512 73ZM213.184 59.24C213.525 59.24 213.952 59.176 214.464 59.048C214.336 57.1707 214.123 54.8453 213.824 52.072C212.843 42.4293 212.352 36.52 212.352 34.344V33.832C211.925 34.2587 211.328 36.2 210.56 39.656C209.835 43.0693 209.152 46.7387 208.512 50.664C207.872 54.5893 207.531 57.192 207.488 58.472C209.28 58.984 211.179 59.24 213.184 59.24ZM229.223 73.512C227.26 73.512 226.279 72.9787 226.279 71.912L226.407 64.04L226.535 56.168C226.535 53.3093 226.471 48.9787 226.343 43.176C226.215 37.416 226.151 33.0853 226.151 30.184V29.8C226.151 28.6907 226.258 27.6667 226.471 26.728C226.727 25.576 227.41 25 228.519 25C231.506 25 233.874 25.96 235.623 27.88C237.372 29.8 238.247 32.3387 238.247 35.496C238.247 37.416 237.735 39.4213 236.711 41.512C235.687 43.6027 234.471 45.16 233.063 46.184C235.538 47.848 237.351 50.0027 238.503 52.648C239.698 55.2507 240.295 58.1307 240.295 61.288C240.295 62.7813 239.783 64.6373 238.759 66.856C237.522 69.5013 235.836 71.4 233.703 72.552C232.423 73.192 231.015 73.512 229.479 73.512H229.223ZM229.863 45.224C230.972 44.968 231.911 44.0507 232.679 42.472C233.319 41.2773 233.916 39.8267 234.471 38.12C234.599 37.6507 234.812 37.0533 235.111 36.328V34.088C235.111 32.808 234.642 31.5707 233.703 30.376C232.764 29.1813 231.698 28.584 230.503 28.584C229.906 28.584 229.607 29.2453 229.607 30.568C229.607 33.384 229.65 35.9013 229.735 38.12L229.863 45.224ZM230.119 70.184C232.21 69.8853 233.874 68.9253 235.111 67.304C236.348 65.6827 236.967 63.7413 236.967 61.48C236.967 59.5173 236.796 57.7253 236.455 56.104C236.156 54.44 235.751 53.1813 235.239 52.328C234.77 51.5173 234.3 50.8347 233.831 50.28C233.362 49.7253 232.956 49.3627 232.615 49.192L232.103 49H229.799C230.012 53.9067 230.119 60.968 230.119 70.184ZM248.836 73.64C248.196 73.64 247.62 73.3627 247.108 72.808C246.596 72.2533 246.361 71.6347 246.404 70.952C246.532 68.776 246.596 66.5573 246.596 64.296C246.596 62.3333 246.553 59.3467 246.468 55.336C246.425 53.5013 246.276 50.7493 246.02 47.08C245.977 46.3547 245.913 45.3093 245.828 43.944C245.743 42.536 245.679 41.2987 245.636 40.232C245.593 39.5067 245.572 38.4187 245.572 36.968L245.636 30.44C245.636 30.056 245.593 29.5227 245.508 28.84L245.444 27.368C245.444 26.6853 245.615 26.152 245.956 25.768C246.34 25.384 246.831 25.192 247.428 25.192C248.665 25.192 249.369 25.768 249.54 26.92C249.711 28.2 249.796 29.16 249.796 29.8C249.796 30.568 249.732 31.336 249.604 32.104C249.391 33.6827 249.284 35.112 249.284 36.392L249.348 38.312C249.519 42.2373 249.604 45.8427 249.604 49.128V56.744C249.604 58.0667 249.647 60.0507 249.732 62.696L250.116 62.76L250.884 60.264C252.164 55.9547 253.38 52.0293 254.532 48.488C255.129 46.824 255.769 44.2427 256.452 40.744C256.751 39.208 257.028 37.9707 257.284 37.032L260.484 25.512C260.783 24.9573 261.145 24.552 261.572 24.296C261.999 23.9973 262.425 23.8693 262.852 23.912C263.364 24.04 263.855 24.4027 264.324 25C264.793 25.5547 265.007 26.1093 264.964 26.664C264.921 28.1573 264.793 29.7147 264.58 31.336C264.196 36.6693 263.983 40.0187 263.94 41.384C263.769 47.1013 263.684 51.3893 263.684 54.248C263.684 55.6133 263.791 57.768 264.004 60.712C264.217 63.6133 264.345 65.5333 264.388 66.472L264.644 69.672C264.687 70.568 264.473 71.272 264.004 71.784C263.535 72.296 262.916 72.552 262.148 72.552C261.679 72.552 261.273 72.4027 260.932 72.104C260.591 71.7627 260.399 71.3147 260.356 70.76V70.184L260.42 57.32V55.016C260.335 52.7973 260.249 49.384 260.164 44.776V42.152V37.928C260.121 37.8853 260.015 37.864 259.844 37.864C259.588 37.9067 259.204 38.888 258.692 40.808C258.223 42.6853 257.775 44.584 257.348 46.504C256.921 48.3813 256.644 49.576 256.516 50.088C256.132 51.9227 255.897 52.968 255.812 53.224C254.617 57.2773 253.657 60.6693 252.932 63.4C252.207 66.088 251.609 68.8187 251.14 71.592C250.884 72.9573 250.116 73.64 248.836 73.64ZM277.828 73.448C277.188 73.448 276.676 73.1493 276.292 72.552C275.95 71.912 275.78 71.144 275.78 70.248C275.78 68.84 275.865 67.112 276.036 65.064L276.164 63.4L276.292 60.008C276.292 58.5147 276.142 55.1867 275.844 50.024C275.545 44.8613 275.396 41.5333 275.396 40.04C275.396 39.912 275.396 39.6773 275.396 39.336C275.438 38.952 275.46 38.376 275.46 37.608C275.502 36.7547 275.524 35.7093 275.524 34.472C275.524 31.3573 275.31 29.3733 274.884 28.52C274.628 28.52 274.073 28.584 273.22 28.712L271.428 28.84C270.873 28.84 270.382 28.6907 269.956 28.392C269.529 28.0507 269.316 27.624 269.316 27.112C269.316 26.6 269.828 26.152 270.852 25.768C272.345 25.256 274.884 24.8933 278.468 24.68C279.918 24.5947 280.793 24.552 281.092 24.552C281.604 24.552 282.073 24.7227 282.5 25.064C282.926 25.4053 283.14 25.832 283.14 26.344C283.14 26.856 282.948 27.2827 282.564 27.624C282.222 27.9227 281.774 28.072 281.22 28.072L280.068 28.008C279.726 27.9653 279.342 27.944 278.916 27.944H278.276C278.574 30.8453 278.724 33.4693 278.724 35.816L278.66 39.912C278.617 41.1493 278.595 42.536 278.595 44.072C278.595 46.12 278.681 48.5733 278.852 51.432C279.065 54.9733 279.172 57.4267 279.172 58.792C279.172 60.4133 279.257 62.3333 279.428 64.552C279.598 66.8133 279.684 68.7333 279.684 70.312C279.684 72.4027 279.065 73.448 277.828 73.448ZM292.146 73C291.42 73.0427 290.738 72.7653 290.098 72.168C289.5 71.5707 289.202 70.888 289.202 70.12V68.008C289.202 64.9787 289.223 62.7813 289.266 61.416C289.266 60.52 289.266 59.6453 289.266 58.792C289.308 57.896 289.308 57.2347 289.266 56.808C289.052 55.528 288.946 53.9493 288.946 52.072L289.01 48.424C289.052 47.272 289.031 45.544 288.946 43.24L288.882 41.448V28.712C288.839 27.56 288.924 26.664 289.138 26.024C289.394 25.3413 289.842 25 290.482 25C291.164 25 291.634 25.2773 291.89 25.832C292.146 26.344 292.274 27.0693 292.274 28.008L292.21 29.992L291.506 41.256L291.57 45.48C293.063 45.4373 294.514 45.8427 295.922 46.696C298.439 47.8907 300.274 49.5973 301.426 51.816C302.578 53.992 303.154 56.296 303.154 58.728C303.154 60.136 303.004 61.5867 302.706 63.08C302.407 64.5733 302.002 65.896 301.49 67.048C300.636 68.9253 299.399 70.3547 297.778 71.336C296.199 72.3173 294.322 72.872 292.146 73ZM292.978 69.8C294.13 69.8 295.132 69.3733 295.986 68.52C297.266 67.1973 298.247 65.6187 298.93 63.784C299.655 61.9067 300.018 59.9867 300.018 58.024C300.018 55.8053 299.591 53.8853 298.738 52.264C297.927 50.6427 296.498 49.3413 294.45 48.36C293.767 48.0187 293.127 47.848 292.53 47.848C292.231 47.848 291.89 47.912 291.506 48.04L292.658 64.872L292.978 69.8Z" fill="white"/>
</svg>
