<?xml version="1.0" standalone="no"?>
<!DOCTYPE svg PUBLIC "-//W3C//DTD SVG 20010904//EN"
 "http://www.w3.org/TR/2001/REC-SVG-20010904/DTD/svg10.dtd">
<svg version="1.0" xmlns="http://www.w3.org/2000/svg"
 width="800.000000pt" height="800.000000pt" viewBox="0 0 800.000000 800.000000"
 preserveAspectRatio="xMidYMid meet">
<metadata>
Created by potrace 1.14, written by Peter Selinger 2001-2017
</metadata>
<g transform="translate(0.000000,800.000000) scale(0.100000,-0.100000)"
fill="#000000" stroke="none">
<path d="M1144 7017 c-5 -7 -34 -32 -63 -57 -197 -167 -339 -317 -509 -535
-51 -66 -176 -268 -252 -409 l-53 -98 7 -81 c3 -45 8 -93 10 -107 2 -14 7 -43
10 -65 14 -103 18 -126 37 -214 161 -765 573 -1391 1199 -1822 l95 -66 87 61
c48 34 87 64 87 68 1 4 -27 35 -60 70 -93 95 -175 192 -256 303 -40 55 -76
105 -80 110 -15 19 -63 95 -63 99 0 2 -18 34 -40 70 -111 182 -235 486 -296
721 -15 58 -53 240 -58 275 -3 25 -8 54 -10 66 -14 70 -20 197 -21 394 0 193
10 393 20 410 1 3 6 25 9 50 3 25 8 56 11 70 3 14 7 36 10 50 3 14 7 35 10 48
3 12 7 32 10 43 30 137 93 334 152 474 18 44 33 81 33 82 0 7 -16 1 -26 -10z"/>
<path d="M2463 6419 c3 -8 20 -50 38 -94 17 -44 35 -89 40 -100 20 -48 91
-299 104 -368 3 -12 9 -44 15 -72 5 -27 12 -63 15 -80 3 -16 7 -41 10 -55 3
-14 7 -45 10 -70 3 -25 8 -54 10 -65 10 -49 19 -223 18 -365 0 -160 -4 -204
-27 -350 -19 -118 -83 -358 -124 -465 -127 -333 -275 -531 -657 -881 -263
-241 -396 -405 -505 -624 -63 -125 -103 -229 -132 -339 -32 -124 -32 -341 0
-459 55 -204 165 -367 327 -487 72 -53 195 -121 195 -108 0 5 -5 26 -9 48 -28
122 -30 285 -6 396 9 41 18 83 20 95 8 38 63 162 99 224 57 97 114 170 206
260 109 109 192 165 418 284 207 109 318 178 442 275 75 58 237 213 280 267
243 305 387 627 416 929 12 122 6 408 -10 434 -2 3 -7 27 -10 53 -4 26 -9 53
-11 60 -2 7 -6 25 -9 39 -24 142 -169 495 -274 664 -17 28 -39 64 -48 80 -73
131 -285 395 -448 558 -142 141 -411 358 -393 316z"/>
<path d="M81 5388 c-23 -101 -26 -115 -41 -198 -9 -53 -12 -73 -27 -210 -4
-36 -8 -164 -8 -285 l0 -220 63 -93 c130 -191 312 -391 472 -518 41 -32 77
-61 80 -64 23 -26 222 -144 335 -200 171 -84 444 -180 511 -180 16 0 91 68 83
74 -2 1 -51 29 -109 60 -207 114 -398 254 -563 413 -408 394 -671 902 -764
1478 -3 17 -6 31 -8 33 -2 2 -13 -39 -24 -90z"/>
<path d="M60 4069 c0 -77 147 -511 183 -542 34 -28 273 -142 357 -169 118 -40
203 -62 280 -73 14 -3 36 -7 50 -10 14 -4 114 -8 222 -11 l197 -4 25 33 25 32
-87 16 c-217 40 -394 100 -592 202 -221 114 -464 305 -611 480 -27 32 -49 52
-49 46z"/>
<path d="M340 3296 c0 -6 109 -187 141 -232 26 -38 32 -41 96 -51 110 -17 336
-13 433 7 128 26 230 70 258 110 12 18 22 37 22 41 0 5 -10 5 -22 0 -76 -28
-316 -43 -438 -28 -152 20 -319 70 -449 136 -22 12 -41 20 -41 17z"/>
<path d="M1113 2953 c-119 -56 -219 -77 -365 -78 -71 0 -128 -2 -128 -5 0 -8
68 -91 92 -112 20 -17 32 -19 88 -13 171 18 349 113 381 204 6 18 10 33 8 35
-2 2 -37 -12 -76 -31z"/>
<path d="M2660 2439 c-258 -45 -483 -220 -575 -448 -23 -55 -34 -96 -50 -176
-6 -35 -7 -201 -1 -230 39 -184 91 -287 201 -404 93 -100 217 -170 365 -207
114 -29 282 -27 385 6 116 37 222 97 297 168 l37 36 -18 30 c-22 36 -87 151
-103 183 -10 21 -13 20 -74 -42 -304 -307 -833 -96 -836 334 -1 106 7 145 46
226 79 161 230 259 416 272 145 9 256 -31 367 -133 32 -30 59 -54 60 -54 3 0
123 224 123 231 0 14 -79 78 -146 117 -108 64 -209 93 -333 97 -58 2 -131 0
-161 -6z"/>
<path d="M3558 2438 c-3 -10 -2 -1410 1 -1440 1 -4 64 -7 141 -6 l140 1 1 26
c0 14 0 146 0 294 l0 267 162 0 162 -1 60 -107 c33 -59 61 -112 63 -119 2 -7
8 -13 13 -13 5 0 9 -4 9 -9 0 -5 42 -83 94 -173 l94 -163 146 -2 c80 -2 146 1
146 5 0 4 -27 54 -60 111 -33 57 -60 105 -60 107 0 2 -20 37 -45 77 -25 41
-45 78 -45 82 0 4 -8 19 -19 33 -10 15 -30 48 -44 74 -15 26 -56 99 -92 162
l-66 114 176 307 c97 169 185 321 196 339 10 17 19 34 19 39 0 4 -67 7 -148 7
l-148 0 -17 -32 c-9 -18 -21 -40 -27 -48 -5 -8 -77 -132 -159 -275 l-149 -260
-130 -3 -130 -3 -1 188 c-1 103 -2 243 -2 311 l-1 122 -138 0 c-101 0 -139 -3
-142 -12z"/>
<path d="M5626 2443 c-1 -1 -37 -3 -81 -4 -352 -7 -624 -152 -740 -393 -54
-113 -67 -171 -70 -312 -4 -159 12 -237 73 -364 88 -180 298 -320 550 -366
107 -20 434 -25 551 -10 438 60 680 313 682 714 1 291 -125 508 -367 630 -62
31 -175 69 -234 78 -19 3 -38 8 -41 9 -12 8 -316 25 -323 18z m-95 -267 c0
-12 0 -228 1 -481 l0 -460 -34 -1 c-18 0 -46 3 -63 8 -16 5 -43 11 -59 13 -43
8 -146 54 -192 85 -80 56 -142 148 -165 247 -10 47 -14 188 -5 228 13 60 21
84 43 129 62 123 179 199 363 235 108 22 110 22 111 -3z m354 8 c28 -4 52 -8
55 -9 3 -1 25 -7 50 -14 177 -51 303 -188 326 -356 5 -37 4 -160 -1 -190 -40
-218 -208 -352 -476 -381 l-46 -5 0 485 0 486 21 -5 c12 -2 44 -7 71 -11z"/>
<path d="M6603 2442 c-24 -4 -29 -12 -14 -27 4 -6 32 -55 61 -110 29 -55 65
-122 80 -150 66 -121 90 -165 135 -250 26 -49 56 -103 65 -120 21 -36 69 -125
140 -260 29 -55 57 -105 62 -112 6 -8 -4 -30 -31 -66 -77 -105 -151 -144 -251
-135 l-50 5 52 -96 c81 -151 69 -142 158 -129 104 16 211 84 287 183 31 41
131 218 358 635 153 282 178 327 271 495 39 72 70 131 69 133 -7 8 -278 3
-285 -4 -7 -9 -25 -41 -150 -279 -60 -114 -103 -192 -225 -413 -22 -39 -43
-72 -46 -72 -6 0 -56 90 -199 355 -18 33 -47 87 -65 120 -18 33 -51 94 -73
135 -22 41 -51 95 -65 118 l-25 44 -118 1 c-66 1 -129 1 -141 -1z"/>
</g>
</svg>
